%TF.GenerationSoftware,KiCad,Pcbnew,(5.1.8-44-gfd79c7ae46)*%
%TF.CreationDate,2021-01-02T19:49:22-07:00*%
%TF.ProjectId,egg,6567672e-6b69-4636-9164-5f7063625858,rev?*%
%TF.SameCoordinates,Original*%
%TF.FileFunction,Copper,L1,Top*%
%TF.FilePolarity,Positive*%
%FSLAX46Y46*%
G04 Gerber Fmt 4.6, Leading zero omitted, Abs format (unit mm)*
G04 Created by KiCad (PCBNEW (5.1.8-44-gfd79c7ae46)) date 2021-01-02 19:49:22*
%MOMM*%
%LPD*%
G01*
G04 APERTURE LIST*
%TA.AperFunction,SMDPad,CuDef*%
%ADD10R,0.350000X1.000000*%
%TD*%
%TA.AperFunction,SMDPad,CuDef*%
%ADD11R,1.000000X0.350000*%
%TD*%
%TA.AperFunction,SMDPad,CuDef*%
%ADD12R,0.254000X0.203200*%
%TD*%
%TA.AperFunction,SMDPad,CuDef*%
%ADD13R,4.700000X1.350000*%
%TD*%
%TA.AperFunction,SMDPad,CuDef*%
%ADD14R,4.200000X1.270000*%
%TD*%
%TA.AperFunction,SMDPad,CuDef*%
%ADD15R,0.500000X0.500000*%
%TD*%
%TA.AperFunction,ViaPad*%
%ADD16C,0.349758*%
%TD*%
%TA.AperFunction,ViaPad*%
%ADD17C,0.457200*%
%TD*%
%TA.AperFunction,Conductor*%
%ADD18C,0.300000*%
%TD*%
%TA.AperFunction,Conductor*%
%ADD19C,0.127000*%
%TD*%
%TA.AperFunction,Conductor*%
%ADD20C,0.340360*%
%TD*%
%TA.AperFunction,Conductor*%
%ADD21C,1.000000*%
%TD*%
%TA.AperFunction,Conductor*%
%ADD22C,0.100000*%
%TD*%
G04 APERTURE END LIST*
D10*
%TO.P,FL1,3*%
%TO.N,GND*%
X52950000Y-35900000D03*
%TO.P,FL1,1*%
X51650000Y-35900000D03*
%TO.P,FL1,7*%
X51650000Y-34100000D03*
%TO.P,FL1,5*%
X52950000Y-34100000D03*
%TO.P,FL1,6*%
X52300000Y-34100000D03*
%TO.P,FL1,2*%
X52300000Y-35900000D03*
D11*
%TO.P,FL1,4*%
%TO.N,Net-(C2-Pad2)*%
X53500000Y-35000000D03*
%TO.P,FL1,8*%
%TO.N,Net-(C1-Pad1)*%
X51100000Y-35000000D03*
%TD*%
D12*
%TO.P,D3,1*%
%TO.N,Net-(C3-Pad2)*%
X45500000Y-50074100D03*
%TO.P,D3,2*%
%TO.N,GND*%
X45500000Y-50425900D03*
%TD*%
%TO.P,D2,1*%
%TO.N,Net-(C2-Pad1)*%
X66000000Y-35094100D03*
%TO.P,D2,2*%
%TO.N,GND*%
X66000000Y-35445900D03*
%TD*%
%TO.P,D1,1*%
%TO.N,Net-(C1-Pad2)*%
X42010000Y-35074100D03*
%TO.P,D1,2*%
%TO.N,GND*%
X42010000Y-35425900D03*
%TD*%
D13*
%TO.P,J6,2*%
%TO.N,GND*%
X32750000Y-62175000D03*
X32750000Y-67825000D03*
D14*
%TO.P,J6,1*%
%TO.N,Net-(J5-Pad1)*%
X32500000Y-65000000D03*
%TD*%
D13*
%TO.P,J5,2*%
%TO.N,GND*%
X73250000Y-67825000D03*
X73250000Y-62175000D03*
D14*
%TO.P,J5,1*%
%TO.N,Net-(J5-Pad1)*%
X73500000Y-65000000D03*
%TD*%
D13*
%TO.P,J4,2*%
%TO.N,GND*%
X73250000Y-52825000D03*
X73250000Y-47175000D03*
D14*
%TO.P,J4,1*%
%TO.N,Net-(C3-Pad1)*%
X73500000Y-50000000D03*
%TD*%
D13*
%TO.P,J3,2*%
%TO.N,GND*%
X32850000Y-47175000D03*
X32850000Y-52825000D03*
D14*
%TO.P,J3,1*%
%TO.N,Net-(C3-Pad2)*%
X32600000Y-50000000D03*
%TD*%
D15*
%TO.P,C3,2*%
%TO.N,Net-(C3-Pad2)*%
X60500000Y-50000000D03*
%TO.P,C3,1*%
%TO.N,Net-(C3-Pad1)*%
X61500000Y-50000000D03*
%TD*%
D13*
%TO.P,J2,2*%
%TO.N,GND*%
X73250000Y-37825000D03*
X73250000Y-32175000D03*
D14*
%TO.P,J2,1*%
%TO.N,Net-(C2-Pad1)*%
X73500000Y-35000000D03*
%TD*%
D13*
%TO.P,J1,2*%
%TO.N,GND*%
X32850000Y-32175000D03*
X32850000Y-37825000D03*
D14*
%TO.P,J1,1*%
%TO.N,Net-(C1-Pad2)*%
X32600000Y-35000000D03*
%TD*%
D15*
%TO.P,C2,2*%
%TO.N,Net-(C2-Pad2)*%
X58000000Y-35000000D03*
%TO.P,C2,1*%
%TO.N,Net-(C2-Pad1)*%
X59000000Y-35000000D03*
%TD*%
%TO.P,C1,2*%
%TO.N,Net-(C1-Pad2)*%
X46500000Y-35000000D03*
%TO.P,C1,1*%
%TO.N,Net-(C1-Pad1)*%
X47500000Y-35000000D03*
%TD*%
D16*
%TO.N,GND*%
X65340000Y-35670000D03*
D17*
X34000000Y-32000000D03*
X33000000Y-32000000D03*
X32000000Y-32000000D03*
X31000000Y-32000000D03*
X35000000Y-38000000D03*
X34000000Y-38000000D03*
X33000000Y-38000000D03*
X32000000Y-38000000D03*
X31000000Y-38000000D03*
X34000000Y-68000000D03*
X35000000Y-68000000D03*
X33000000Y-68000000D03*
X32000000Y-68000000D03*
X31000000Y-68000000D03*
X35000000Y-62000000D03*
X34000000Y-62000000D03*
X33000000Y-62000000D03*
X32000000Y-62000000D03*
X31000000Y-62000000D03*
X35000000Y-53000000D03*
X34000000Y-53000000D03*
X33000000Y-53000000D03*
X32000000Y-53000000D03*
X31000000Y-53000000D03*
X31000000Y-47000000D03*
X32000000Y-47000000D03*
X33000000Y-47000000D03*
X34000000Y-47000000D03*
X35000000Y-47000000D03*
X75000000Y-68000000D03*
X74000000Y-68000000D03*
X73000000Y-68000000D03*
X72000000Y-68000000D03*
X71000000Y-68000000D03*
X71000000Y-62000000D03*
X72000000Y-62000000D03*
X73000000Y-62000000D03*
X74000000Y-62000000D03*
X75000000Y-62000000D03*
X71000000Y-53000000D03*
X72000000Y-53000000D03*
X73000000Y-53000000D03*
X74000000Y-53000000D03*
X75000000Y-53000000D03*
X71000000Y-47000000D03*
X72000000Y-47000000D03*
X73000000Y-47000000D03*
X74000000Y-47000000D03*
X75000000Y-47000000D03*
X71000000Y-38000000D03*
X72000000Y-38000000D03*
X73000000Y-38000000D03*
X74000000Y-38000000D03*
X75000000Y-38000000D03*
X71000000Y-32000000D03*
X72000000Y-32000000D03*
X73000000Y-32000000D03*
X74000000Y-32000000D03*
X75000000Y-32000000D03*
D16*
X55000000Y-35635000D03*
X56500000Y-35635000D03*
X53500000Y-35635000D03*
X58000000Y-35635000D03*
X56500000Y-34365000D03*
X55000000Y-34365000D03*
X58000000Y-34365000D03*
X53500000Y-34365000D03*
X35619047Y-50635000D03*
X36928571Y-50635000D03*
X38238095Y-50635000D03*
X39547619Y-50635000D03*
X40857142Y-50635000D03*
X42166666Y-50635000D03*
X43476190Y-50635000D03*
X44785714Y-50635000D03*
X46095238Y-50635000D03*
X47404761Y-50635000D03*
X48714285Y-50635000D03*
X50023809Y-50635000D03*
X51333333Y-50635000D03*
X52642857Y-50635000D03*
X53952380Y-50635000D03*
X55261904Y-50635000D03*
X56571428Y-50635000D03*
X57880952Y-50635000D03*
X59190476Y-50635000D03*
X60500000Y-50635000D03*
X59190476Y-49365000D03*
X57880952Y-49365000D03*
X56571428Y-49365000D03*
X55261904Y-49365000D03*
X53952380Y-49365000D03*
X52642857Y-49365000D03*
X51333333Y-49365000D03*
X50023809Y-49365000D03*
X48714285Y-49365000D03*
X47404761Y-49365000D03*
X46095238Y-49365000D03*
X44785714Y-49365000D03*
X43476190Y-49365000D03*
X42166666Y-49365000D03*
X40857142Y-49365000D03*
X39547619Y-49365000D03*
X38238095Y-49365000D03*
X36928571Y-49365000D03*
X35619047Y-49365000D03*
X60500000Y-49365000D03*
X60272727Y-35635000D03*
X61545454Y-35635000D03*
X62818181Y-35635000D03*
X64090909Y-35635000D03*
X66636363Y-35635000D03*
X67909090Y-35635000D03*
X69181818Y-35635000D03*
X70454545Y-35635000D03*
X59000000Y-35635000D03*
X70454545Y-34365000D03*
X69181818Y-34365000D03*
X67909090Y-34365000D03*
X66636363Y-34365000D03*
X65363636Y-34365000D03*
X64090909Y-34365000D03*
X62818181Y-34365000D03*
X61545454Y-34365000D03*
X60272727Y-34365000D03*
X59000000Y-34365000D03*
X62777777Y-50635000D03*
X64055555Y-50635000D03*
X65333333Y-50635000D03*
X66611111Y-50635000D03*
X67888888Y-50635000D03*
X69166666Y-50635000D03*
X70444444Y-50635000D03*
X61500000Y-50635000D03*
X70444444Y-49365000D03*
X69166666Y-49365000D03*
X67888888Y-49365000D03*
X66611111Y-49365000D03*
X65333333Y-49365000D03*
X64055555Y-49365000D03*
X62777777Y-49365000D03*
X61500000Y-49365000D03*
X35580645Y-65635000D03*
X36870967Y-65635000D03*
X38161290Y-65635000D03*
X39451612Y-65635000D03*
X40741935Y-65635000D03*
X42032258Y-65635000D03*
X43322580Y-65635000D03*
X44612903Y-65635000D03*
X45903225Y-65635000D03*
X47193548Y-65635000D03*
X48483870Y-65635000D03*
X49774193Y-65635000D03*
X51064516Y-65635000D03*
X52354838Y-65635000D03*
X53645161Y-65635000D03*
X54935483Y-65635000D03*
X56225806Y-65635000D03*
X57516129Y-65635000D03*
X58806451Y-65635000D03*
X60096774Y-65635000D03*
X61387096Y-65635000D03*
X62677419Y-65635000D03*
X63967741Y-65635000D03*
X65258064Y-65635000D03*
X66548387Y-65635000D03*
X67838709Y-65635000D03*
X69129032Y-65635000D03*
X70419354Y-65635000D03*
X70419354Y-64365000D03*
X69129032Y-64365000D03*
X67838709Y-64365000D03*
X66548387Y-64365000D03*
X65258064Y-64365000D03*
X63967741Y-64365000D03*
X62677419Y-64365000D03*
X61387096Y-64365000D03*
X60096774Y-64365000D03*
X58806451Y-64365000D03*
X57516129Y-64365000D03*
X56225806Y-64365000D03*
X54935483Y-64365000D03*
X53645161Y-64365000D03*
X52354838Y-64365000D03*
X51064516Y-64365000D03*
X49774193Y-64365000D03*
X48483870Y-64365000D03*
X47193548Y-64365000D03*
X45903225Y-64365000D03*
X44612903Y-64365000D03*
X43322580Y-64365000D03*
X42032258Y-64365000D03*
X40741935Y-64365000D03*
X39451612Y-64365000D03*
X38161290Y-64365000D03*
X36870967Y-64365000D03*
X35580645Y-64365000D03*
X49300000Y-35635000D03*
X47500000Y-35635000D03*
X51100000Y-35635000D03*
X49300000Y-34365000D03*
X51100000Y-34365000D03*
X47500000Y-34365000D03*
X39750000Y-35635000D03*
X41100000Y-35635000D03*
X42450000Y-35635000D03*
X43800000Y-35635000D03*
X45150000Y-35635000D03*
X46500000Y-35635000D03*
X45150000Y-34365000D03*
X43800000Y-34365000D03*
X42450000Y-34365000D03*
X41100000Y-34365000D03*
X39750000Y-34365000D03*
X46500000Y-34365000D03*
D17*
X35000000Y-32000000D03*
D16*
X37050000Y-35635000D03*
X38400000Y-35635000D03*
X38400000Y-34365000D03*
X37050000Y-34365000D03*
X35700000Y-34365000D03*
X35700000Y-35635000D03*
D17*
X52300000Y-35000000D03*
X52070000Y-33020000D03*
X52705000Y-33020000D03*
X52705000Y-36830000D03*
X52070000Y-36830000D03*
X53467000Y-36258500D03*
X51181000Y-36258500D03*
X51181000Y-33718500D03*
X53467000Y-33718500D03*
%TD*%
D18*
%TO.N,Net-(C1-Pad1)*%
X51100000Y-35000000D02*
X47500000Y-35000000D01*
D19*
%TO.N,GND*%
X75075000Y-67825000D02*
X73250000Y-67825000D01*
X74925000Y-52825000D02*
X73250000Y-52825000D01*
D18*
%TO.N,Net-(C2-Pad2)*%
X58000000Y-35000000D02*
X53500000Y-35000000D01*
D20*
%TO.N,Net-(C1-Pad2)*%
X42000000Y-35010000D02*
X41990000Y-35000000D01*
X41990000Y-35000000D02*
X32600000Y-35000000D01*
X46500000Y-35000000D02*
X41990000Y-35000000D01*
%TO.N,Net-(C2-Pad1)*%
X73500000Y-35000000D02*
X59000000Y-35000000D01*
%TO.N,Net-(C3-Pad2)*%
X45540000Y-50000000D02*
X32600000Y-50000000D01*
X60500000Y-50000000D02*
X45540000Y-50000000D01*
D18*
%TO.N,Net-(C3-Pad1)*%
X73000000Y-50000000D02*
X61500000Y-50000000D01*
%TO.N,Net-(J5-Pad1)*%
X33000000Y-65000000D02*
X73000000Y-65000000D01*
%TD*%
D21*
%TO.N,GND*%
X70796573Y-65884948D02*
X70856930Y-65997868D01*
X70938157Y-66096843D01*
X71037132Y-66178070D01*
X71150052Y-66238427D01*
X71272578Y-66275595D01*
X71400000Y-66288145D01*
X75300001Y-66288145D01*
X75300001Y-72300000D01*
X30700000Y-72300000D01*
X30700000Y-66288145D01*
X34600000Y-66288145D01*
X34727422Y-66275595D01*
X34849948Y-66238427D01*
X34962868Y-66178070D01*
X35061843Y-66096843D01*
X35143070Y-65997868D01*
X35203427Y-65884948D01*
X35229196Y-65800000D01*
X70770804Y-65800000D01*
X70796573Y-65884948D01*
%TA.AperFunction,Conductor*%
D22*
G36*
X70796573Y-65884948D02*
G01*
X70856930Y-65997868D01*
X70938157Y-66096843D01*
X71037132Y-66178070D01*
X71150052Y-66238427D01*
X71272578Y-66275595D01*
X71400000Y-66288145D01*
X75300001Y-66288145D01*
X75300001Y-72300000D01*
X30700000Y-72300000D01*
X30700000Y-66288145D01*
X34600000Y-66288145D01*
X34727422Y-66275595D01*
X34849948Y-66238427D01*
X34962868Y-66178070D01*
X35061843Y-66096843D01*
X35143070Y-65997868D01*
X35203427Y-65884948D01*
X35229196Y-65800000D01*
X70770804Y-65800000D01*
X70796573Y-65884948D01*
G37*
%TD.AperFunction*%
D21*
X70796573Y-50884948D02*
X70856930Y-50997868D01*
X70938157Y-51096843D01*
X71037132Y-51178070D01*
X71150052Y-51238427D01*
X71272578Y-51275595D01*
X71400000Y-51288145D01*
X75300001Y-51288145D01*
X75300001Y-63711855D01*
X71400000Y-63711855D01*
X71272578Y-63724405D01*
X71150052Y-63761573D01*
X71037132Y-63821930D01*
X70938157Y-63903157D01*
X70856930Y-64002132D01*
X70796573Y-64115052D01*
X70770804Y-64200000D01*
X35229196Y-64200000D01*
X35203427Y-64115052D01*
X35143070Y-64002132D01*
X35061843Y-63903157D01*
X34962868Y-63821930D01*
X34849948Y-63761573D01*
X34727422Y-63724405D01*
X34600000Y-63711855D01*
X30700000Y-63711855D01*
X30700000Y-51288145D01*
X34700000Y-51288145D01*
X34827422Y-51275595D01*
X34949948Y-51238427D01*
X35062868Y-51178070D01*
X35161843Y-51096843D01*
X35243070Y-50997868D01*
X35303427Y-50884948D01*
X35323074Y-50820180D01*
X45285023Y-50820180D01*
X45373000Y-50828845D01*
X45627000Y-50828845D01*
X45714977Y-50820180D01*
X59937851Y-50820180D01*
X60000052Y-50853427D01*
X60122578Y-50890595D01*
X60250000Y-50903145D01*
X60750000Y-50903145D01*
X60877422Y-50890595D01*
X60999948Y-50853427D01*
X61000000Y-50853399D01*
X61000052Y-50853427D01*
X61122578Y-50890595D01*
X61250000Y-50903145D01*
X61750000Y-50903145D01*
X61877422Y-50890595D01*
X61999948Y-50853427D01*
X62099903Y-50800000D01*
X70770804Y-50800000D01*
X70796573Y-50884948D01*
%TA.AperFunction,Conductor*%
D22*
G36*
X70796573Y-50884948D02*
G01*
X70856930Y-50997868D01*
X70938157Y-51096843D01*
X71037132Y-51178070D01*
X71150052Y-51238427D01*
X71272578Y-51275595D01*
X71400000Y-51288145D01*
X75300001Y-51288145D01*
X75300001Y-63711855D01*
X71400000Y-63711855D01*
X71272578Y-63724405D01*
X71150052Y-63761573D01*
X71037132Y-63821930D01*
X70938157Y-63903157D01*
X70856930Y-64002132D01*
X70796573Y-64115052D01*
X70770804Y-64200000D01*
X35229196Y-64200000D01*
X35203427Y-64115052D01*
X35143070Y-64002132D01*
X35061843Y-63903157D01*
X34962868Y-63821930D01*
X34849948Y-63761573D01*
X34727422Y-63724405D01*
X34600000Y-63711855D01*
X30700000Y-63711855D01*
X30700000Y-51288145D01*
X34700000Y-51288145D01*
X34827422Y-51275595D01*
X34949948Y-51238427D01*
X35062868Y-51178070D01*
X35161843Y-51096843D01*
X35243070Y-50997868D01*
X35303427Y-50884948D01*
X35323074Y-50820180D01*
X45285023Y-50820180D01*
X45373000Y-50828845D01*
X45627000Y-50828845D01*
X45714977Y-50820180D01*
X59937851Y-50820180D01*
X60000052Y-50853427D01*
X60122578Y-50890595D01*
X60250000Y-50903145D01*
X60750000Y-50903145D01*
X60877422Y-50890595D01*
X60999948Y-50853427D01*
X61000000Y-50853399D01*
X61000052Y-50853427D01*
X61122578Y-50890595D01*
X61250000Y-50903145D01*
X61750000Y-50903145D01*
X61877422Y-50890595D01*
X61999948Y-50853427D01*
X62099903Y-50800000D01*
X70770804Y-50800000D01*
X70796573Y-50884948D01*
G37*
%TD.AperFunction*%
D21*
X75300000Y-33711855D02*
X71400000Y-33711855D01*
X71272578Y-33724405D01*
X71150052Y-33761573D01*
X71037132Y-33821930D01*
X70938157Y-33903157D01*
X70856930Y-34002132D01*
X70796573Y-34115052D01*
X70776926Y-34179820D01*
X59562149Y-34179820D01*
X59499948Y-34146573D01*
X59377422Y-34109405D01*
X59250000Y-34096855D01*
X58750000Y-34096855D01*
X58622578Y-34109405D01*
X58500052Y-34146573D01*
X58500000Y-34146601D01*
X58499948Y-34146573D01*
X58377422Y-34109405D01*
X58250000Y-34096855D01*
X57750000Y-34096855D01*
X57622578Y-34109405D01*
X57500052Y-34146573D01*
X57400097Y-34200000D01*
X54178832Y-34200000D01*
X54127422Y-34184405D01*
X54000000Y-34171855D01*
X53000000Y-34171855D01*
X52872578Y-34184405D01*
X52750052Y-34221573D01*
X52637132Y-34281930D01*
X52538157Y-34363157D01*
X52456930Y-34462132D01*
X52396573Y-34575052D01*
X52359405Y-34697578D01*
X52346855Y-34825000D01*
X52346855Y-35175000D01*
X52359405Y-35302422D01*
X52396573Y-35424948D01*
X52456930Y-35537868D01*
X52538157Y-35636843D01*
X52637132Y-35718070D01*
X52750052Y-35778427D01*
X52872578Y-35815595D01*
X53000000Y-35828145D01*
X54000000Y-35828145D01*
X54127422Y-35815595D01*
X54178832Y-35800000D01*
X57400097Y-35800000D01*
X57500052Y-35853427D01*
X57622578Y-35890595D01*
X57750000Y-35903145D01*
X58250000Y-35903145D01*
X58377422Y-35890595D01*
X58499948Y-35853427D01*
X58500000Y-35853399D01*
X58500052Y-35853427D01*
X58622578Y-35890595D01*
X58750000Y-35903145D01*
X59250000Y-35903145D01*
X59377422Y-35890595D01*
X59499948Y-35853427D01*
X59562149Y-35820180D01*
X65692454Y-35820180D01*
X65745578Y-35836295D01*
X65873000Y-35848845D01*
X66127000Y-35848845D01*
X66254422Y-35836295D01*
X66307546Y-35820180D01*
X70776926Y-35820180D01*
X70796573Y-35884948D01*
X70856930Y-35997868D01*
X70938157Y-36096843D01*
X71037132Y-36178070D01*
X71150052Y-36238427D01*
X71272578Y-36275595D01*
X71400000Y-36288145D01*
X75300000Y-36288145D01*
X75300001Y-48711855D01*
X71400000Y-48711855D01*
X71272578Y-48724405D01*
X71150052Y-48761573D01*
X71037132Y-48821930D01*
X70938157Y-48903157D01*
X70856930Y-49002132D01*
X70796573Y-49115052D01*
X70770804Y-49200000D01*
X62099903Y-49200000D01*
X61999948Y-49146573D01*
X61877422Y-49109405D01*
X61750000Y-49096855D01*
X61250000Y-49096855D01*
X61122578Y-49109405D01*
X61000052Y-49146573D01*
X61000000Y-49146601D01*
X60999948Y-49146573D01*
X60877422Y-49109405D01*
X60750000Y-49096855D01*
X60250000Y-49096855D01*
X60122578Y-49109405D01*
X60000052Y-49146573D01*
X59937851Y-49179820D01*
X35323074Y-49179820D01*
X35303427Y-49115052D01*
X35243070Y-49002132D01*
X35161843Y-48903157D01*
X35062868Y-48821930D01*
X34949948Y-48761573D01*
X34827422Y-48724405D01*
X34700000Y-48711855D01*
X30700000Y-48711855D01*
X30700000Y-36288145D01*
X34700000Y-36288145D01*
X34827422Y-36275595D01*
X34949948Y-36238427D01*
X35062868Y-36178070D01*
X35161843Y-36096843D01*
X35243070Y-35997868D01*
X35303427Y-35884948D01*
X35323074Y-35820180D01*
X41795023Y-35820180D01*
X41883000Y-35828845D01*
X41946158Y-35828845D01*
X41999999Y-35834148D01*
X42053841Y-35828845D01*
X42137000Y-35828845D01*
X42224977Y-35820180D01*
X45937851Y-35820180D01*
X46000052Y-35853427D01*
X46122578Y-35890595D01*
X46250000Y-35903145D01*
X46750000Y-35903145D01*
X46877422Y-35890595D01*
X46999948Y-35853427D01*
X47000000Y-35853399D01*
X47000052Y-35853427D01*
X47122578Y-35890595D01*
X47250000Y-35903145D01*
X47750000Y-35903145D01*
X47877422Y-35890595D01*
X47999948Y-35853427D01*
X48099903Y-35800000D01*
X50421168Y-35800000D01*
X50472578Y-35815595D01*
X50600000Y-35828145D01*
X51600000Y-35828145D01*
X51727422Y-35815595D01*
X51849948Y-35778427D01*
X51962868Y-35718070D01*
X52061843Y-35636843D01*
X52143070Y-35537868D01*
X52203427Y-35424948D01*
X52240595Y-35302422D01*
X52253145Y-35175000D01*
X52253145Y-34825000D01*
X52240595Y-34697578D01*
X52203427Y-34575052D01*
X52143070Y-34462132D01*
X52061843Y-34363157D01*
X51962868Y-34281930D01*
X51849948Y-34221573D01*
X51727422Y-34184405D01*
X51600000Y-34171855D01*
X50600000Y-34171855D01*
X50472578Y-34184405D01*
X50421168Y-34200000D01*
X48099903Y-34200000D01*
X47999948Y-34146573D01*
X47877422Y-34109405D01*
X47750000Y-34096855D01*
X47250000Y-34096855D01*
X47122578Y-34109405D01*
X47000052Y-34146573D01*
X47000000Y-34146601D01*
X46999948Y-34146573D01*
X46877422Y-34109405D01*
X46750000Y-34096855D01*
X46250000Y-34096855D01*
X46122578Y-34109405D01*
X46000052Y-34146573D01*
X45937851Y-34179820D01*
X42030287Y-34179820D01*
X41990000Y-34175852D01*
X41949713Y-34179820D01*
X35323074Y-34179820D01*
X35303427Y-34115052D01*
X35243070Y-34002132D01*
X35161843Y-33903157D01*
X35062868Y-33821930D01*
X34949948Y-33761573D01*
X34827422Y-33724405D01*
X34700000Y-33711855D01*
X30700000Y-33711855D01*
X30700000Y-24700000D01*
X75300000Y-24700000D01*
X75300000Y-33711855D01*
%TA.AperFunction,Conductor*%
D22*
G36*
X75300000Y-33711855D02*
G01*
X71400000Y-33711855D01*
X71272578Y-33724405D01*
X71150052Y-33761573D01*
X71037132Y-33821930D01*
X70938157Y-33903157D01*
X70856930Y-34002132D01*
X70796573Y-34115052D01*
X70776926Y-34179820D01*
X59562149Y-34179820D01*
X59499948Y-34146573D01*
X59377422Y-34109405D01*
X59250000Y-34096855D01*
X58750000Y-34096855D01*
X58622578Y-34109405D01*
X58500052Y-34146573D01*
X58500000Y-34146601D01*
X58499948Y-34146573D01*
X58377422Y-34109405D01*
X58250000Y-34096855D01*
X57750000Y-34096855D01*
X57622578Y-34109405D01*
X57500052Y-34146573D01*
X57400097Y-34200000D01*
X54178832Y-34200000D01*
X54127422Y-34184405D01*
X54000000Y-34171855D01*
X53000000Y-34171855D01*
X52872578Y-34184405D01*
X52750052Y-34221573D01*
X52637132Y-34281930D01*
X52538157Y-34363157D01*
X52456930Y-34462132D01*
X52396573Y-34575052D01*
X52359405Y-34697578D01*
X52346855Y-34825000D01*
X52346855Y-35175000D01*
X52359405Y-35302422D01*
X52396573Y-35424948D01*
X52456930Y-35537868D01*
X52538157Y-35636843D01*
X52637132Y-35718070D01*
X52750052Y-35778427D01*
X52872578Y-35815595D01*
X53000000Y-35828145D01*
X54000000Y-35828145D01*
X54127422Y-35815595D01*
X54178832Y-35800000D01*
X57400097Y-35800000D01*
X57500052Y-35853427D01*
X57622578Y-35890595D01*
X57750000Y-35903145D01*
X58250000Y-35903145D01*
X58377422Y-35890595D01*
X58499948Y-35853427D01*
X58500000Y-35853399D01*
X58500052Y-35853427D01*
X58622578Y-35890595D01*
X58750000Y-35903145D01*
X59250000Y-35903145D01*
X59377422Y-35890595D01*
X59499948Y-35853427D01*
X59562149Y-35820180D01*
X65692454Y-35820180D01*
X65745578Y-35836295D01*
X65873000Y-35848845D01*
X66127000Y-35848845D01*
X66254422Y-35836295D01*
X66307546Y-35820180D01*
X70776926Y-35820180D01*
X70796573Y-35884948D01*
X70856930Y-35997868D01*
X70938157Y-36096843D01*
X71037132Y-36178070D01*
X71150052Y-36238427D01*
X71272578Y-36275595D01*
X71400000Y-36288145D01*
X75300000Y-36288145D01*
X75300001Y-48711855D01*
X71400000Y-48711855D01*
X71272578Y-48724405D01*
X71150052Y-48761573D01*
X71037132Y-48821930D01*
X70938157Y-48903157D01*
X70856930Y-49002132D01*
X70796573Y-49115052D01*
X70770804Y-49200000D01*
X62099903Y-49200000D01*
X61999948Y-49146573D01*
X61877422Y-49109405D01*
X61750000Y-49096855D01*
X61250000Y-49096855D01*
X61122578Y-49109405D01*
X61000052Y-49146573D01*
X61000000Y-49146601D01*
X60999948Y-49146573D01*
X60877422Y-49109405D01*
X60750000Y-49096855D01*
X60250000Y-49096855D01*
X60122578Y-49109405D01*
X60000052Y-49146573D01*
X59937851Y-49179820D01*
X35323074Y-49179820D01*
X35303427Y-49115052D01*
X35243070Y-49002132D01*
X35161843Y-48903157D01*
X35062868Y-48821930D01*
X34949948Y-48761573D01*
X34827422Y-48724405D01*
X34700000Y-48711855D01*
X30700000Y-48711855D01*
X30700000Y-36288145D01*
X34700000Y-36288145D01*
X34827422Y-36275595D01*
X34949948Y-36238427D01*
X35062868Y-36178070D01*
X35161843Y-36096843D01*
X35243070Y-35997868D01*
X35303427Y-35884948D01*
X35323074Y-35820180D01*
X41795023Y-35820180D01*
X41883000Y-35828845D01*
X41946158Y-35828845D01*
X41999999Y-35834148D01*
X42053841Y-35828845D01*
X42137000Y-35828845D01*
X42224977Y-35820180D01*
X45937851Y-35820180D01*
X46000052Y-35853427D01*
X46122578Y-35890595D01*
X46250000Y-35903145D01*
X46750000Y-35903145D01*
X46877422Y-35890595D01*
X46999948Y-35853427D01*
X47000000Y-35853399D01*
X47000052Y-35853427D01*
X47122578Y-35890595D01*
X47250000Y-35903145D01*
X47750000Y-35903145D01*
X47877422Y-35890595D01*
X47999948Y-35853427D01*
X48099903Y-35800000D01*
X50421168Y-35800000D01*
X50472578Y-35815595D01*
X50600000Y-35828145D01*
X51600000Y-35828145D01*
X51727422Y-35815595D01*
X51849948Y-35778427D01*
X51962868Y-35718070D01*
X52061843Y-35636843D01*
X52143070Y-35537868D01*
X52203427Y-35424948D01*
X52240595Y-35302422D01*
X52253145Y-35175000D01*
X52253145Y-34825000D01*
X52240595Y-34697578D01*
X52203427Y-34575052D01*
X52143070Y-34462132D01*
X52061843Y-34363157D01*
X51962868Y-34281930D01*
X51849948Y-34221573D01*
X51727422Y-34184405D01*
X51600000Y-34171855D01*
X50600000Y-34171855D01*
X50472578Y-34184405D01*
X50421168Y-34200000D01*
X48099903Y-34200000D01*
X47999948Y-34146573D01*
X47877422Y-34109405D01*
X47750000Y-34096855D01*
X47250000Y-34096855D01*
X47122578Y-34109405D01*
X47000052Y-34146573D01*
X47000000Y-34146601D01*
X46999948Y-34146573D01*
X46877422Y-34109405D01*
X46750000Y-34096855D01*
X46250000Y-34096855D01*
X46122578Y-34109405D01*
X46000052Y-34146573D01*
X45937851Y-34179820D01*
X42030287Y-34179820D01*
X41990000Y-34175852D01*
X41949713Y-34179820D01*
X35323074Y-34179820D01*
X35303427Y-34115052D01*
X35243070Y-34002132D01*
X35161843Y-33903157D01*
X35062868Y-33821930D01*
X34949948Y-33761573D01*
X34827422Y-33724405D01*
X34700000Y-33711855D01*
X30700000Y-33711855D01*
X30700000Y-24700000D01*
X75300000Y-24700000D01*
X75300000Y-33711855D01*
G37*
%TD.AperFunction*%
%TD*%
M02*
