%TF.GenerationSoftware,KiCad,Pcbnew,(5.1.8-44-gfd79c7ae46)*%
%TF.CreationDate,2021-01-02T19:49:23-07:00*%
%TF.ProjectId,egg,6567672e-6b69-4636-9164-5f7063625858,rev?*%
%TF.SameCoordinates,Original*%
%TF.FileFunction,Soldermask,Top*%
%TF.FilePolarity,Negative*%
%FSLAX46Y46*%
G04 Gerber Fmt 4.6, Leading zero omitted, Abs format (unit mm)*
G04 Created by KiCad (PCBNEW (5.1.8-44-gfd79c7ae46)) date 2021-01-02 19:49:23*
%MOMM*%
%LPD*%
G01*
G04 APERTURE LIST*
%ADD10R,0.300000X0.300000*%
%ADD11C,0.254000*%
%ADD12C,0.100000*%
G04 APERTURE END LIST*
D10*
%TO.C,FL1*%
X52046000Y-35000000D03*
G36*
G01*
X53175800Y-35400000D02*
X53175800Y-36400000D01*
G75*
G02*
X53125000Y-36450800I-50800J0D01*
G01*
X52775000Y-36450800D01*
G75*
G02*
X52724200Y-36400000I0J50800D01*
G01*
X52724200Y-35400000D01*
G75*
G02*
X52775000Y-35349200I50800J0D01*
G01*
X53125000Y-35349200D01*
G75*
G02*
X53175800Y-35400000I0J-50800D01*
G01*
G37*
G36*
G01*
X51875800Y-35400000D02*
X51875800Y-36400000D01*
G75*
G02*
X51825000Y-36450800I-50800J0D01*
G01*
X51475000Y-36450800D01*
G75*
G02*
X51424200Y-36400000I0J50800D01*
G01*
X51424200Y-35400000D01*
G75*
G02*
X51475000Y-35349200I50800J0D01*
G01*
X51825000Y-35349200D01*
G75*
G02*
X51875800Y-35400000I0J-50800D01*
G01*
G37*
G36*
G01*
X51875800Y-33600000D02*
X51875800Y-34600000D01*
G75*
G02*
X51825000Y-34650800I-50800J0D01*
G01*
X51475000Y-34650800D01*
G75*
G02*
X51424200Y-34600000I0J50800D01*
G01*
X51424200Y-33600000D01*
G75*
G02*
X51475000Y-33549200I50800J0D01*
G01*
X51825000Y-33549200D01*
G75*
G02*
X51875800Y-33600000I0J-50800D01*
G01*
G37*
G36*
G01*
X53175800Y-33600000D02*
X53175800Y-34600000D01*
G75*
G02*
X53125000Y-34650800I-50800J0D01*
G01*
X52775000Y-34650800D01*
G75*
G02*
X52724200Y-34600000I0J50800D01*
G01*
X52724200Y-33600000D01*
G75*
G02*
X52775000Y-33549200I50800J0D01*
G01*
X53125000Y-33549200D01*
G75*
G02*
X53175800Y-33600000I0J-50800D01*
G01*
G37*
G36*
G01*
X52525800Y-33600000D02*
X52525800Y-34600000D01*
G75*
G02*
X52475000Y-34650800I-50800J0D01*
G01*
X52125000Y-34650800D01*
G75*
G02*
X52074200Y-34600000I0J50800D01*
G01*
X52074200Y-33600000D01*
G75*
G02*
X52125000Y-33549200I50800J0D01*
G01*
X52475000Y-33549200D01*
G75*
G02*
X52525800Y-33600000I0J-50800D01*
G01*
G37*
G36*
G01*
X52525800Y-35400000D02*
X52525800Y-36400000D01*
G75*
G02*
X52475000Y-36450800I-50800J0D01*
G01*
X52125000Y-36450800D01*
G75*
G02*
X52074200Y-36400000I0J50800D01*
G01*
X52074200Y-35400000D01*
G75*
G02*
X52125000Y-35349200I50800J0D01*
G01*
X52475000Y-35349200D01*
G75*
G02*
X52525800Y-35400000I0J-50800D01*
G01*
G37*
G36*
G01*
X54000000Y-35225800D02*
X53000000Y-35225800D01*
G75*
G02*
X52949200Y-35175000I0J50800D01*
G01*
X52949200Y-34825000D01*
G75*
G02*
X53000000Y-34774200I50800J0D01*
G01*
X54000000Y-34774200D01*
G75*
G02*
X54050800Y-34825000I0J-50800D01*
G01*
X54050800Y-35175000D01*
G75*
G02*
X54000000Y-35225800I-50800J0D01*
G01*
G37*
G36*
G01*
X51600000Y-35225800D02*
X50600000Y-35225800D01*
G75*
G02*
X50549200Y-35175000I0J50800D01*
G01*
X50549200Y-34825000D01*
G75*
G02*
X50600000Y-34774200I50800J0D01*
G01*
X51600000Y-34774200D01*
G75*
G02*
X51650800Y-34825000I0J-50800D01*
G01*
X51650800Y-35175000D01*
G75*
G02*
X51600000Y-35225800I-50800J0D01*
G01*
G37*
%TD*%
%TO.C,D3*%
G36*
G01*
X45373000Y-49921700D02*
X45627000Y-49921700D01*
G75*
G02*
X45677800Y-49972500I0J-50800D01*
G01*
X45677800Y-50175700D01*
G75*
G02*
X45627000Y-50226500I-50800J0D01*
G01*
X45373000Y-50226500D01*
G75*
G02*
X45322200Y-50175700I0J50800D01*
G01*
X45322200Y-49972500D01*
G75*
G02*
X45373000Y-49921700I50800J0D01*
G01*
G37*
G36*
G01*
X45373000Y-50273500D02*
X45627000Y-50273500D01*
G75*
G02*
X45677800Y-50324300I0J-50800D01*
G01*
X45677800Y-50527500D01*
G75*
G02*
X45627000Y-50578300I-50800J0D01*
G01*
X45373000Y-50578300D01*
G75*
G02*
X45322200Y-50527500I0J50800D01*
G01*
X45322200Y-50324300D01*
G75*
G02*
X45373000Y-50273500I50800J0D01*
G01*
G37*
%TD*%
%TO.C,D2*%
G36*
G01*
X65873000Y-34941700D02*
X66127000Y-34941700D01*
G75*
G02*
X66177800Y-34992500I0J-50800D01*
G01*
X66177800Y-35195700D01*
G75*
G02*
X66127000Y-35246500I-50800J0D01*
G01*
X65873000Y-35246500D01*
G75*
G02*
X65822200Y-35195700I0J50800D01*
G01*
X65822200Y-34992500D01*
G75*
G02*
X65873000Y-34941700I50800J0D01*
G01*
G37*
G36*
G01*
X65873000Y-35293500D02*
X66127000Y-35293500D01*
G75*
G02*
X66177800Y-35344300I0J-50800D01*
G01*
X66177800Y-35547500D01*
G75*
G02*
X66127000Y-35598300I-50800J0D01*
G01*
X65873000Y-35598300D01*
G75*
G02*
X65822200Y-35547500I0J50800D01*
G01*
X65822200Y-35344300D01*
G75*
G02*
X65873000Y-35293500I50800J0D01*
G01*
G37*
%TD*%
%TO.C,D1*%
G36*
G01*
X41883000Y-34921700D02*
X42137000Y-34921700D01*
G75*
G02*
X42187800Y-34972500I0J-50800D01*
G01*
X42187800Y-35175700D01*
G75*
G02*
X42137000Y-35226500I-50800J0D01*
G01*
X41883000Y-35226500D01*
G75*
G02*
X41832200Y-35175700I0J50800D01*
G01*
X41832200Y-34972500D01*
G75*
G02*
X41883000Y-34921700I50800J0D01*
G01*
G37*
G36*
G01*
X41883000Y-35273500D02*
X42137000Y-35273500D01*
G75*
G02*
X42187800Y-35324300I0J-50800D01*
G01*
X42187800Y-35527500D01*
G75*
G02*
X42137000Y-35578300I-50800J0D01*
G01*
X41883000Y-35578300D01*
G75*
G02*
X41832200Y-35527500I0J50800D01*
G01*
X41832200Y-35324300D01*
G75*
G02*
X41883000Y-35273500I50800J0D01*
G01*
G37*
%TD*%
%TO.C,J6*%
G36*
G01*
X30400000Y-61449200D02*
X35100000Y-61449200D01*
G75*
G02*
X35150800Y-61500000I0J-50800D01*
G01*
X35150800Y-62850000D01*
G75*
G02*
X35100000Y-62900800I-50800J0D01*
G01*
X30400000Y-62900800D01*
G75*
G02*
X30349200Y-62850000I0J50800D01*
G01*
X30349200Y-61500000D01*
G75*
G02*
X30400000Y-61449200I50800J0D01*
G01*
G37*
G36*
G01*
X30400000Y-67099200D02*
X35100000Y-67099200D01*
G75*
G02*
X35150800Y-67150000I0J-50800D01*
G01*
X35150800Y-68500000D01*
G75*
G02*
X35100000Y-68550800I-50800J0D01*
G01*
X30400000Y-68550800D01*
G75*
G02*
X30349200Y-68500000I0J50800D01*
G01*
X30349200Y-67150000D01*
G75*
G02*
X30400000Y-67099200I50800J0D01*
G01*
G37*
G36*
G01*
X30400000Y-64314200D02*
X34600000Y-64314200D01*
G75*
G02*
X34650800Y-64365000I0J-50800D01*
G01*
X34650800Y-65635000D01*
G75*
G02*
X34600000Y-65685800I-50800J0D01*
G01*
X30400000Y-65685800D01*
G75*
G02*
X30349200Y-65635000I0J50800D01*
G01*
X30349200Y-64365000D01*
G75*
G02*
X30400000Y-64314200I50800J0D01*
G01*
G37*
%TD*%
%TO.C,J5*%
G36*
G01*
X75600000Y-68550800D02*
X70900000Y-68550800D01*
G75*
G02*
X70849200Y-68500000I0J50800D01*
G01*
X70849200Y-67150000D01*
G75*
G02*
X70900000Y-67099200I50800J0D01*
G01*
X75600000Y-67099200D01*
G75*
G02*
X75650800Y-67150000I0J-50800D01*
G01*
X75650800Y-68500000D01*
G75*
G02*
X75600000Y-68550800I-50800J0D01*
G01*
G37*
G36*
G01*
X75600000Y-62900800D02*
X70900000Y-62900800D01*
G75*
G02*
X70849200Y-62850000I0J50800D01*
G01*
X70849200Y-61500000D01*
G75*
G02*
X70900000Y-61449200I50800J0D01*
G01*
X75600000Y-61449200D01*
G75*
G02*
X75650800Y-61500000I0J-50800D01*
G01*
X75650800Y-62850000D01*
G75*
G02*
X75600000Y-62900800I-50800J0D01*
G01*
G37*
G36*
G01*
X75600000Y-65685800D02*
X71400000Y-65685800D01*
G75*
G02*
X71349200Y-65635000I0J50800D01*
G01*
X71349200Y-64365000D01*
G75*
G02*
X71400000Y-64314200I50800J0D01*
G01*
X75600000Y-64314200D01*
G75*
G02*
X75650800Y-64365000I0J-50800D01*
G01*
X75650800Y-65635000D01*
G75*
G02*
X75600000Y-65685800I-50800J0D01*
G01*
G37*
%TD*%
%TO.C,J4*%
G36*
G01*
X75600000Y-53550800D02*
X70900000Y-53550800D01*
G75*
G02*
X70849200Y-53500000I0J50800D01*
G01*
X70849200Y-52150000D01*
G75*
G02*
X70900000Y-52099200I50800J0D01*
G01*
X75600000Y-52099200D01*
G75*
G02*
X75650800Y-52150000I0J-50800D01*
G01*
X75650800Y-53500000D01*
G75*
G02*
X75600000Y-53550800I-50800J0D01*
G01*
G37*
G36*
G01*
X75600000Y-47900800D02*
X70900000Y-47900800D01*
G75*
G02*
X70849200Y-47850000I0J50800D01*
G01*
X70849200Y-46500000D01*
G75*
G02*
X70900000Y-46449200I50800J0D01*
G01*
X75600000Y-46449200D01*
G75*
G02*
X75650800Y-46500000I0J-50800D01*
G01*
X75650800Y-47850000D01*
G75*
G02*
X75600000Y-47900800I-50800J0D01*
G01*
G37*
G36*
G01*
X75600000Y-50685800D02*
X71400000Y-50685800D01*
G75*
G02*
X71349200Y-50635000I0J50800D01*
G01*
X71349200Y-49365000D01*
G75*
G02*
X71400000Y-49314200I50800J0D01*
G01*
X75600000Y-49314200D01*
G75*
G02*
X75650800Y-49365000I0J-50800D01*
G01*
X75650800Y-50635000D01*
G75*
G02*
X75600000Y-50685800I-50800J0D01*
G01*
G37*
%TD*%
%TO.C,J3*%
G36*
G01*
X30500000Y-46449200D02*
X35200000Y-46449200D01*
G75*
G02*
X35250800Y-46500000I0J-50800D01*
G01*
X35250800Y-47850000D01*
G75*
G02*
X35200000Y-47900800I-50800J0D01*
G01*
X30500000Y-47900800D01*
G75*
G02*
X30449200Y-47850000I0J50800D01*
G01*
X30449200Y-46500000D01*
G75*
G02*
X30500000Y-46449200I50800J0D01*
G01*
G37*
G36*
G01*
X30500000Y-52099200D02*
X35200000Y-52099200D01*
G75*
G02*
X35250800Y-52150000I0J-50800D01*
G01*
X35250800Y-53500000D01*
G75*
G02*
X35200000Y-53550800I-50800J0D01*
G01*
X30500000Y-53550800D01*
G75*
G02*
X30449200Y-53500000I0J50800D01*
G01*
X30449200Y-52150000D01*
G75*
G02*
X30500000Y-52099200I50800J0D01*
G01*
G37*
G36*
G01*
X30500000Y-49314200D02*
X34700000Y-49314200D01*
G75*
G02*
X34750800Y-49365000I0J-50800D01*
G01*
X34750800Y-50635000D01*
G75*
G02*
X34700000Y-50685800I-50800J0D01*
G01*
X30500000Y-50685800D01*
G75*
G02*
X30449200Y-50635000I0J50800D01*
G01*
X30449200Y-49365000D01*
G75*
G02*
X30500000Y-49314200I50800J0D01*
G01*
G37*
%TD*%
%TO.C,C3*%
G36*
G01*
X60800800Y-49749999D02*
X60800800Y-50250001D01*
G75*
G02*
X60750001Y-50300800I-50799J0D01*
G01*
X60249999Y-50300800D01*
G75*
G02*
X60199200Y-50250001I0J50799D01*
G01*
X60199200Y-49749999D01*
G75*
G02*
X60249999Y-49699200I50799J0D01*
G01*
X60750001Y-49699200D01*
G75*
G02*
X60800800Y-49749999I0J-50799D01*
G01*
G37*
G36*
G01*
X61800800Y-49749999D02*
X61800800Y-50250001D01*
G75*
G02*
X61750001Y-50300800I-50799J0D01*
G01*
X61249999Y-50300800D01*
G75*
G02*
X61199200Y-50250001I0J50799D01*
G01*
X61199200Y-49749999D01*
G75*
G02*
X61249999Y-49699200I50799J0D01*
G01*
X61750001Y-49699200D01*
G75*
G02*
X61800800Y-49749999I0J-50799D01*
G01*
G37*
%TD*%
%TO.C,J2*%
G36*
G01*
X75600000Y-38550800D02*
X70900000Y-38550800D01*
G75*
G02*
X70849200Y-38500000I0J50800D01*
G01*
X70849200Y-37150000D01*
G75*
G02*
X70900000Y-37099200I50800J0D01*
G01*
X75600000Y-37099200D01*
G75*
G02*
X75650800Y-37150000I0J-50800D01*
G01*
X75650800Y-38500000D01*
G75*
G02*
X75600000Y-38550800I-50800J0D01*
G01*
G37*
G36*
G01*
X75600000Y-32900800D02*
X70900000Y-32900800D01*
G75*
G02*
X70849200Y-32850000I0J50800D01*
G01*
X70849200Y-31500000D01*
G75*
G02*
X70900000Y-31449200I50800J0D01*
G01*
X75600000Y-31449200D01*
G75*
G02*
X75650800Y-31500000I0J-50800D01*
G01*
X75650800Y-32850000D01*
G75*
G02*
X75600000Y-32900800I-50800J0D01*
G01*
G37*
G36*
G01*
X75600000Y-35685800D02*
X71400000Y-35685800D01*
G75*
G02*
X71349200Y-35635000I0J50800D01*
G01*
X71349200Y-34365000D01*
G75*
G02*
X71400000Y-34314200I50800J0D01*
G01*
X75600000Y-34314200D01*
G75*
G02*
X75650800Y-34365000I0J-50800D01*
G01*
X75650800Y-35635000D01*
G75*
G02*
X75600000Y-35685800I-50800J0D01*
G01*
G37*
%TD*%
%TO.C,J1*%
G36*
G01*
X30500000Y-31449200D02*
X35200000Y-31449200D01*
G75*
G02*
X35250800Y-31500000I0J-50800D01*
G01*
X35250800Y-32850000D01*
G75*
G02*
X35200000Y-32900800I-50800J0D01*
G01*
X30500000Y-32900800D01*
G75*
G02*
X30449200Y-32850000I0J50800D01*
G01*
X30449200Y-31500000D01*
G75*
G02*
X30500000Y-31449200I50800J0D01*
G01*
G37*
G36*
G01*
X30500000Y-37099200D02*
X35200000Y-37099200D01*
G75*
G02*
X35250800Y-37150000I0J-50800D01*
G01*
X35250800Y-38500000D01*
G75*
G02*
X35200000Y-38550800I-50800J0D01*
G01*
X30500000Y-38550800D01*
G75*
G02*
X30449200Y-38500000I0J50800D01*
G01*
X30449200Y-37150000D01*
G75*
G02*
X30500000Y-37099200I50800J0D01*
G01*
G37*
G36*
G01*
X30500000Y-34314200D02*
X34700000Y-34314200D01*
G75*
G02*
X34750800Y-34365000I0J-50800D01*
G01*
X34750800Y-35635000D01*
G75*
G02*
X34700000Y-35685800I-50800J0D01*
G01*
X30500000Y-35685800D01*
G75*
G02*
X30449200Y-35635000I0J50800D01*
G01*
X30449200Y-34365000D01*
G75*
G02*
X30500000Y-34314200I50800J0D01*
G01*
G37*
%TD*%
%TO.C,C2*%
G36*
G01*
X58300800Y-34749999D02*
X58300800Y-35250001D01*
G75*
G02*
X58250001Y-35300800I-50799J0D01*
G01*
X57749999Y-35300800D01*
G75*
G02*
X57699200Y-35250001I0J50799D01*
G01*
X57699200Y-34749999D01*
G75*
G02*
X57749999Y-34699200I50799J0D01*
G01*
X58250001Y-34699200D01*
G75*
G02*
X58300800Y-34749999I0J-50799D01*
G01*
G37*
G36*
G01*
X59300800Y-34749999D02*
X59300800Y-35250001D01*
G75*
G02*
X59250001Y-35300800I-50799J0D01*
G01*
X58749999Y-35300800D01*
G75*
G02*
X58699200Y-35250001I0J50799D01*
G01*
X58699200Y-34749999D01*
G75*
G02*
X58749999Y-34699200I50799J0D01*
G01*
X59250001Y-34699200D01*
G75*
G02*
X59300800Y-34749999I0J-50799D01*
G01*
G37*
%TD*%
%TO.C,C1*%
G36*
G01*
X46800800Y-34749999D02*
X46800800Y-35250001D01*
G75*
G02*
X46750001Y-35300800I-50799J0D01*
G01*
X46249999Y-35300800D01*
G75*
G02*
X46199200Y-35250001I0J50799D01*
G01*
X46199200Y-34749999D01*
G75*
G02*
X46249999Y-34699200I50799J0D01*
G01*
X46750001Y-34699200D01*
G75*
G02*
X46800800Y-34749999I0J-50799D01*
G01*
G37*
G36*
G01*
X47800800Y-34749999D02*
X47800800Y-35250001D01*
G75*
G02*
X47750001Y-35300800I-50799J0D01*
G01*
X47249999Y-35300800D01*
G75*
G02*
X47199200Y-35250001I0J50799D01*
G01*
X47199200Y-34749999D01*
G75*
G02*
X47249999Y-34699200I50799J0D01*
G01*
X47750001Y-34699200D01*
G75*
G02*
X47800800Y-34749999I0J-50799D01*
G01*
G37*
%TD*%
D11*
X75873000Y-35873000D02*
X30127000Y-35873000D01*
X30127000Y-34127000D01*
X75873000Y-34127000D01*
X75873000Y-35873000D01*
D12*
G36*
X75873000Y-35873000D02*
G01*
X30127000Y-35873000D01*
X30127000Y-34127000D01*
X75873000Y-34127000D01*
X75873000Y-35873000D01*
G37*
D11*
X75873000Y-50873000D02*
X30127000Y-50873000D01*
X30127000Y-49127000D01*
X75873000Y-49127000D01*
X75873000Y-50873000D01*
D12*
G36*
X75873000Y-50873000D02*
G01*
X30127000Y-50873000D01*
X30127000Y-49127000D01*
X75873000Y-49127000D01*
X75873000Y-50873000D01*
G37*
D11*
X75873000Y-65873000D02*
X30127000Y-65873000D01*
X30127000Y-64127000D01*
X75873000Y-64127000D01*
X75873000Y-65873000D01*
D12*
G36*
X75873000Y-65873000D02*
G01*
X30127000Y-65873000D01*
X30127000Y-64127000D01*
X75873000Y-64127000D01*
X75873000Y-65873000D01*
G37*
M02*
