%TF.GenerationSoftware,KiCad,Pcbnew,(5.1.8-44-gfd79c7ae46)*%
%TF.CreationDate,2021-01-02T19:49:22-07:00*%
%TF.ProjectId,egg,6567672e-6b69-4636-9164-5f7063625858,rev?*%
%TF.SameCoordinates,Original*%
%TF.FileFunction,Copper,L4,Bot*%
%TF.FilePolarity,Positive*%
%FSLAX46Y46*%
G04 Gerber Fmt 4.6, Leading zero omitted, Abs format (unit mm)*
G04 Created by KiCad (PCBNEW (5.1.8-44-gfd79c7ae46)) date 2021-01-02 19:49:22*
%MOMM*%
%LPD*%
G01*
G04 APERTURE LIST*
%TA.AperFunction,ViaPad*%
%ADD10C,0.349758*%
%TD*%
%TA.AperFunction,ViaPad*%
%ADD11C,0.457200*%
%TD*%
%TA.AperFunction,Conductor*%
%ADD12C,0.150000*%
%TD*%
%TA.AperFunction,Conductor*%
%ADD13C,0.100000*%
%TD*%
G04 APERTURE END LIST*
D10*
%TO.N,GND*%
X65340000Y-35670000D03*
D11*
X34000000Y-32000000D03*
X33000000Y-32000000D03*
X32000000Y-32000000D03*
X31000000Y-32000000D03*
X35000000Y-38000000D03*
X34000000Y-38000000D03*
X33000000Y-38000000D03*
X32000000Y-38000000D03*
X31000000Y-38000000D03*
X34000000Y-68000000D03*
X35000000Y-68000000D03*
X33000000Y-68000000D03*
X32000000Y-68000000D03*
X31000000Y-68000000D03*
X35000000Y-62000000D03*
X34000000Y-62000000D03*
X33000000Y-62000000D03*
X32000000Y-62000000D03*
X31000000Y-62000000D03*
X35000000Y-53000000D03*
X34000000Y-53000000D03*
X33000000Y-53000000D03*
X32000000Y-53000000D03*
X31000000Y-53000000D03*
X31000000Y-47000000D03*
X32000000Y-47000000D03*
X33000000Y-47000000D03*
X34000000Y-47000000D03*
X35000000Y-47000000D03*
X75000000Y-68000000D03*
X74000000Y-68000000D03*
X73000000Y-68000000D03*
X72000000Y-68000000D03*
X71000000Y-68000000D03*
X71000000Y-62000000D03*
X72000000Y-62000000D03*
X73000000Y-62000000D03*
X74000000Y-62000000D03*
X75000000Y-62000000D03*
X71000000Y-53000000D03*
X72000000Y-53000000D03*
X73000000Y-53000000D03*
X74000000Y-53000000D03*
X75000000Y-53000000D03*
X71000000Y-47000000D03*
X72000000Y-47000000D03*
X73000000Y-47000000D03*
X74000000Y-47000000D03*
X75000000Y-47000000D03*
X71000000Y-38000000D03*
X72000000Y-38000000D03*
X73000000Y-38000000D03*
X74000000Y-38000000D03*
X75000000Y-38000000D03*
X71000000Y-32000000D03*
X72000000Y-32000000D03*
X73000000Y-32000000D03*
X74000000Y-32000000D03*
X75000000Y-32000000D03*
D10*
X55000000Y-35635000D03*
X56500000Y-35635000D03*
X53500000Y-35635000D03*
X58000000Y-35635000D03*
X56500000Y-34365000D03*
X55000000Y-34365000D03*
X58000000Y-34365000D03*
X53500000Y-34365000D03*
X35619047Y-50635000D03*
X36928571Y-50635000D03*
X38238095Y-50635000D03*
X39547619Y-50635000D03*
X40857142Y-50635000D03*
X42166666Y-50635000D03*
X43476190Y-50635000D03*
X44785714Y-50635000D03*
X46095238Y-50635000D03*
X47404761Y-50635000D03*
X48714285Y-50635000D03*
X50023809Y-50635000D03*
X51333333Y-50635000D03*
X52642857Y-50635000D03*
X53952380Y-50635000D03*
X55261904Y-50635000D03*
X56571428Y-50635000D03*
X57880952Y-50635000D03*
X59190476Y-50635000D03*
X60500000Y-50635000D03*
X59190476Y-49365000D03*
X57880952Y-49365000D03*
X56571428Y-49365000D03*
X55261904Y-49365000D03*
X53952380Y-49365000D03*
X52642857Y-49365000D03*
X51333333Y-49365000D03*
X50023809Y-49365000D03*
X48714285Y-49365000D03*
X47404761Y-49365000D03*
X46095238Y-49365000D03*
X44785714Y-49365000D03*
X43476190Y-49365000D03*
X42166666Y-49365000D03*
X40857142Y-49365000D03*
X39547619Y-49365000D03*
X38238095Y-49365000D03*
X36928571Y-49365000D03*
X35619047Y-49365000D03*
X60500000Y-49365000D03*
X60272727Y-35635000D03*
X61545454Y-35635000D03*
X62818181Y-35635000D03*
X64090909Y-35635000D03*
X66636363Y-35635000D03*
X67909090Y-35635000D03*
X69181818Y-35635000D03*
X70454545Y-35635000D03*
X59000000Y-35635000D03*
X70454545Y-34365000D03*
X69181818Y-34365000D03*
X67909090Y-34365000D03*
X66636363Y-34365000D03*
X65363636Y-34365000D03*
X64090909Y-34365000D03*
X62818181Y-34365000D03*
X61545454Y-34365000D03*
X60272727Y-34365000D03*
X59000000Y-34365000D03*
X62777777Y-50635000D03*
X64055555Y-50635000D03*
X65333333Y-50635000D03*
X66611111Y-50635000D03*
X67888888Y-50635000D03*
X69166666Y-50635000D03*
X70444444Y-50635000D03*
X61500000Y-50635000D03*
X70444444Y-49365000D03*
X69166666Y-49365000D03*
X67888888Y-49365000D03*
X66611111Y-49365000D03*
X65333333Y-49365000D03*
X64055555Y-49365000D03*
X62777777Y-49365000D03*
X61500000Y-49365000D03*
X35580645Y-65635000D03*
X36870967Y-65635000D03*
X38161290Y-65635000D03*
X39451612Y-65635000D03*
X40741935Y-65635000D03*
X42032258Y-65635000D03*
X43322580Y-65635000D03*
X44612903Y-65635000D03*
X45903225Y-65635000D03*
X47193548Y-65635000D03*
X48483870Y-65635000D03*
X49774193Y-65635000D03*
X51064516Y-65635000D03*
X52354838Y-65635000D03*
X53645161Y-65635000D03*
X54935483Y-65635000D03*
X56225806Y-65635000D03*
X57516129Y-65635000D03*
X58806451Y-65635000D03*
X60096774Y-65635000D03*
X61387096Y-65635000D03*
X62677419Y-65635000D03*
X63967741Y-65635000D03*
X65258064Y-65635000D03*
X66548387Y-65635000D03*
X67838709Y-65635000D03*
X69129032Y-65635000D03*
X70419354Y-65635000D03*
X70419354Y-64365000D03*
X69129032Y-64365000D03*
X67838709Y-64365000D03*
X66548387Y-64365000D03*
X65258064Y-64365000D03*
X63967741Y-64365000D03*
X62677419Y-64365000D03*
X61387096Y-64365000D03*
X60096774Y-64365000D03*
X58806451Y-64365000D03*
X57516129Y-64365000D03*
X56225806Y-64365000D03*
X54935483Y-64365000D03*
X53645161Y-64365000D03*
X52354838Y-64365000D03*
X51064516Y-64365000D03*
X49774193Y-64365000D03*
X48483870Y-64365000D03*
X47193548Y-64365000D03*
X45903225Y-64365000D03*
X44612903Y-64365000D03*
X43322580Y-64365000D03*
X42032258Y-64365000D03*
X40741935Y-64365000D03*
X39451612Y-64365000D03*
X38161290Y-64365000D03*
X36870967Y-64365000D03*
X35580645Y-64365000D03*
X49300000Y-35635000D03*
X47500000Y-35635000D03*
X51100000Y-35635000D03*
X49300000Y-34365000D03*
X51100000Y-34365000D03*
X47500000Y-34365000D03*
X39750000Y-35635000D03*
X41100000Y-35635000D03*
X42450000Y-35635000D03*
X43800000Y-35635000D03*
X45150000Y-35635000D03*
X46500000Y-35635000D03*
X45150000Y-34365000D03*
X43800000Y-34365000D03*
X42450000Y-34365000D03*
X41100000Y-34365000D03*
X39750000Y-34365000D03*
X46500000Y-34365000D03*
D11*
X35000000Y-32000000D03*
D10*
X37050000Y-35635000D03*
X38400000Y-35635000D03*
X38400000Y-34365000D03*
X37050000Y-34365000D03*
X35700000Y-34365000D03*
X35700000Y-35635000D03*
D11*
X52300000Y-35000000D03*
X52070000Y-33020000D03*
X52705000Y-33020000D03*
X52705000Y-36830000D03*
X52070000Y-36830000D03*
X53467000Y-36258500D03*
X51181000Y-36258500D03*
X51181000Y-33718500D03*
X53467000Y-33718500D03*
%TD*%
D12*
%TO.N,GND*%
X75725000Y-32925000D02*
X70875000Y-32925000D01*
X70875000Y-31475000D01*
X75725000Y-31475000D01*
X75725000Y-32925000D01*
%TA.AperFunction,Conductor*%
D13*
G36*
X75725000Y-32925000D02*
G01*
X70875000Y-32925000D01*
X70875000Y-31475000D01*
X75725000Y-31475000D01*
X75725000Y-32925000D01*
G37*
%TD.AperFunction*%
%TD*%
D12*
%TO.N,GND*%
X75725000Y-38525000D02*
X70875000Y-38525000D01*
X70875000Y-37075000D01*
X75725000Y-37075000D01*
X75725000Y-38525000D01*
%TA.AperFunction,Conductor*%
D13*
G36*
X75725000Y-38525000D02*
G01*
X70875000Y-38525000D01*
X70875000Y-37075000D01*
X75725000Y-37075000D01*
X75725000Y-38525000D01*
G37*
%TD.AperFunction*%
%TD*%
D12*
%TO.N,GND*%
X75725000Y-47925000D02*
X70875000Y-47925000D01*
X70875000Y-46475000D01*
X75725000Y-46475000D01*
X75725000Y-47925000D01*
%TA.AperFunction,Conductor*%
D13*
G36*
X75725000Y-47925000D02*
G01*
X70875000Y-47925000D01*
X70875000Y-46475000D01*
X75725000Y-46475000D01*
X75725000Y-47925000D01*
G37*
%TD.AperFunction*%
%TD*%
D12*
%TO.N,GND*%
X75725001Y-53525000D02*
X70875000Y-53525000D01*
X70875000Y-52075000D01*
X75725001Y-52075000D01*
X75725001Y-53525000D01*
%TA.AperFunction,Conductor*%
D13*
G36*
X75725001Y-53525000D02*
G01*
X70875000Y-53525000D01*
X70875000Y-52075000D01*
X75725001Y-52075000D01*
X75725001Y-53525000D01*
G37*
%TD.AperFunction*%
%TD*%
D12*
%TO.N,GND*%
X75725001Y-62925000D02*
X70875000Y-62925000D01*
X70875000Y-61475000D01*
X75725001Y-61475000D01*
X75725001Y-62925000D01*
%TA.AperFunction,Conductor*%
D13*
G36*
X75725001Y-62925000D02*
G01*
X70875000Y-62925000D01*
X70875000Y-61475000D01*
X75725001Y-61475000D01*
X75725001Y-62925000D01*
G37*
%TD.AperFunction*%
%TD*%
D12*
%TO.N,GND*%
X75725001Y-68525000D02*
X70875000Y-68525000D01*
X70875000Y-67075000D01*
X75725001Y-67075000D01*
X75725001Y-68525000D01*
%TA.AperFunction,Conductor*%
D13*
G36*
X75725001Y-68525000D02*
G01*
X70875000Y-68525000D01*
X70875000Y-67075000D01*
X75725001Y-67075000D01*
X75725001Y-68525000D01*
G37*
%TD.AperFunction*%
%TD*%
D12*
%TO.N,GND*%
X35125000Y-32925000D02*
X30275000Y-32925000D01*
X30275000Y-31475000D01*
X35125000Y-31475000D01*
X35125000Y-32925000D01*
%TA.AperFunction,Conductor*%
D13*
G36*
X35125000Y-32925000D02*
G01*
X30275000Y-32925000D01*
X30275000Y-31475000D01*
X35125000Y-31475000D01*
X35125000Y-32925000D01*
G37*
%TD.AperFunction*%
%TD*%
D12*
%TO.N,GND*%
X35125000Y-38525000D02*
X30275000Y-38525000D01*
X30275000Y-37075000D01*
X35125000Y-37075000D01*
X35125000Y-38525000D01*
%TA.AperFunction,Conductor*%
D13*
G36*
X35125000Y-38525000D02*
G01*
X30275000Y-38525000D01*
X30275000Y-37075000D01*
X35125000Y-37075000D01*
X35125000Y-38525000D01*
G37*
%TD.AperFunction*%
%TD*%
D12*
%TO.N,GND*%
X35125000Y-47925000D02*
X30275000Y-47925000D01*
X30275000Y-46475000D01*
X35125000Y-46475000D01*
X35125000Y-47925000D01*
%TA.AperFunction,Conductor*%
D13*
G36*
X35125000Y-47925000D02*
G01*
X30275000Y-47925000D01*
X30275000Y-46475000D01*
X35125000Y-46475000D01*
X35125000Y-47925000D01*
G37*
%TD.AperFunction*%
%TD*%
D12*
%TO.N,GND*%
X35125000Y-62925000D02*
X30275000Y-62925000D01*
X30275000Y-61475000D01*
X35125000Y-61475000D01*
X35125000Y-62925000D01*
%TA.AperFunction,Conductor*%
D13*
G36*
X35125000Y-62925000D02*
G01*
X30275000Y-62925000D01*
X30275000Y-61475000D01*
X35125000Y-61475000D01*
X35125000Y-62925000D01*
G37*
%TD.AperFunction*%
%TD*%
D12*
%TO.N,GND*%
X35125000Y-68525000D02*
X30275000Y-68525000D01*
X30275000Y-67075000D01*
X35125000Y-67075000D01*
X35125000Y-68525000D01*
%TA.AperFunction,Conductor*%
D13*
G36*
X35125000Y-68525000D02*
G01*
X30275000Y-68525000D01*
X30275000Y-67075000D01*
X35125000Y-67075000D01*
X35125000Y-68525000D01*
G37*
%TD.AperFunction*%
%TD*%
D12*
%TO.N,GND*%
X35125000Y-53525000D02*
X30275000Y-53525000D01*
X30275000Y-52075000D01*
X35125000Y-52075000D01*
X35125000Y-53525000D01*
%TA.AperFunction,Conductor*%
D13*
G36*
X35125000Y-53525000D02*
G01*
X30275000Y-53525000D01*
X30275000Y-52075000D01*
X35125000Y-52075000D01*
X35125000Y-53525000D01*
G37*
%TD.AperFunction*%
%TD*%
M02*
