%TF.GenerationSoftware,KiCad,Pcbnew,(5.1.8-44-gfd79c7ae46)*%
%TF.CreationDate,2021-01-02T19:49:22-07:00*%
%TF.ProjectId,egg,6567672e-6b69-4636-9164-5f7063625858,rev?*%
%TF.SameCoordinates,Original*%
%TF.FileFunction,Copper,L2,Inr*%
%TF.FilePolarity,Positive*%
%FSLAX46Y46*%
G04 Gerber Fmt 4.6, Leading zero omitted, Abs format (unit mm)*
G04 Created by KiCad (PCBNEW (5.1.8-44-gfd79c7ae46)) date 2021-01-02 19:49:22*
%MOMM*%
%LPD*%
G01*
G04 APERTURE LIST*
%TA.AperFunction,ViaPad*%
%ADD10C,0.349758*%
%TD*%
%TA.AperFunction,ViaPad*%
%ADD11C,0.457200*%
%TD*%
%TA.AperFunction,Conductor*%
%ADD12C,1.000000*%
%TD*%
%TA.AperFunction,Conductor*%
%ADD13C,0.100000*%
%TD*%
G04 APERTURE END LIST*
D10*
%TO.N,GND*%
X65340000Y-35670000D03*
D11*
X34000000Y-32000000D03*
X33000000Y-32000000D03*
X32000000Y-32000000D03*
X31000000Y-32000000D03*
X35000000Y-38000000D03*
X34000000Y-38000000D03*
X33000000Y-38000000D03*
X32000000Y-38000000D03*
X31000000Y-38000000D03*
X34000000Y-68000000D03*
X35000000Y-68000000D03*
X33000000Y-68000000D03*
X32000000Y-68000000D03*
X31000000Y-68000000D03*
X35000000Y-62000000D03*
X34000000Y-62000000D03*
X33000000Y-62000000D03*
X32000000Y-62000000D03*
X31000000Y-62000000D03*
X35000000Y-53000000D03*
X34000000Y-53000000D03*
X33000000Y-53000000D03*
X32000000Y-53000000D03*
X31000000Y-53000000D03*
X31000000Y-47000000D03*
X32000000Y-47000000D03*
X33000000Y-47000000D03*
X34000000Y-47000000D03*
X35000000Y-47000000D03*
X75000000Y-68000000D03*
X74000000Y-68000000D03*
X73000000Y-68000000D03*
X72000000Y-68000000D03*
X71000000Y-68000000D03*
X71000000Y-62000000D03*
X72000000Y-62000000D03*
X73000000Y-62000000D03*
X74000000Y-62000000D03*
X75000000Y-62000000D03*
X71000000Y-53000000D03*
X72000000Y-53000000D03*
X73000000Y-53000000D03*
X74000000Y-53000000D03*
X75000000Y-53000000D03*
X71000000Y-47000000D03*
X72000000Y-47000000D03*
X73000000Y-47000000D03*
X74000000Y-47000000D03*
X75000000Y-47000000D03*
X71000000Y-38000000D03*
X72000000Y-38000000D03*
X73000000Y-38000000D03*
X74000000Y-38000000D03*
X75000000Y-38000000D03*
X71000000Y-32000000D03*
X72000000Y-32000000D03*
X73000000Y-32000000D03*
X74000000Y-32000000D03*
X75000000Y-32000000D03*
D10*
X55000000Y-35635000D03*
X56500000Y-35635000D03*
X53500000Y-35635000D03*
X58000000Y-35635000D03*
X56500000Y-34365000D03*
X55000000Y-34365000D03*
X58000000Y-34365000D03*
X53500000Y-34365000D03*
X35619047Y-50635000D03*
X36928571Y-50635000D03*
X38238095Y-50635000D03*
X39547619Y-50635000D03*
X40857142Y-50635000D03*
X42166666Y-50635000D03*
X43476190Y-50635000D03*
X44785714Y-50635000D03*
X46095238Y-50635000D03*
X47404761Y-50635000D03*
X48714285Y-50635000D03*
X50023809Y-50635000D03*
X51333333Y-50635000D03*
X52642857Y-50635000D03*
X53952380Y-50635000D03*
X55261904Y-50635000D03*
X56571428Y-50635000D03*
X57880952Y-50635000D03*
X59190476Y-50635000D03*
X60500000Y-50635000D03*
X59190476Y-49365000D03*
X57880952Y-49365000D03*
X56571428Y-49365000D03*
X55261904Y-49365000D03*
X53952380Y-49365000D03*
X52642857Y-49365000D03*
X51333333Y-49365000D03*
X50023809Y-49365000D03*
X48714285Y-49365000D03*
X47404761Y-49365000D03*
X46095238Y-49365000D03*
X44785714Y-49365000D03*
X43476190Y-49365000D03*
X42166666Y-49365000D03*
X40857142Y-49365000D03*
X39547619Y-49365000D03*
X38238095Y-49365000D03*
X36928571Y-49365000D03*
X35619047Y-49365000D03*
X60500000Y-49365000D03*
X60272727Y-35635000D03*
X61545454Y-35635000D03*
X62818181Y-35635000D03*
X64090909Y-35635000D03*
X66636363Y-35635000D03*
X67909090Y-35635000D03*
X69181818Y-35635000D03*
X70454545Y-35635000D03*
X59000000Y-35635000D03*
X70454545Y-34365000D03*
X69181818Y-34365000D03*
X67909090Y-34365000D03*
X66636363Y-34365000D03*
X65363636Y-34365000D03*
X64090909Y-34365000D03*
X62818181Y-34365000D03*
X61545454Y-34365000D03*
X60272727Y-34365000D03*
X59000000Y-34365000D03*
X62777777Y-50635000D03*
X64055555Y-50635000D03*
X65333333Y-50635000D03*
X66611111Y-50635000D03*
X67888888Y-50635000D03*
X69166666Y-50635000D03*
X70444444Y-50635000D03*
X61500000Y-50635000D03*
X70444444Y-49365000D03*
X69166666Y-49365000D03*
X67888888Y-49365000D03*
X66611111Y-49365000D03*
X65333333Y-49365000D03*
X64055555Y-49365000D03*
X62777777Y-49365000D03*
X61500000Y-49365000D03*
X35580645Y-65635000D03*
X36870967Y-65635000D03*
X38161290Y-65635000D03*
X39451612Y-65635000D03*
X40741935Y-65635000D03*
X42032258Y-65635000D03*
X43322580Y-65635000D03*
X44612903Y-65635000D03*
X45903225Y-65635000D03*
X47193548Y-65635000D03*
X48483870Y-65635000D03*
X49774193Y-65635000D03*
X51064516Y-65635000D03*
X52354838Y-65635000D03*
X53645161Y-65635000D03*
X54935483Y-65635000D03*
X56225806Y-65635000D03*
X57516129Y-65635000D03*
X58806451Y-65635000D03*
X60096774Y-65635000D03*
X61387096Y-65635000D03*
X62677419Y-65635000D03*
X63967741Y-65635000D03*
X65258064Y-65635000D03*
X66548387Y-65635000D03*
X67838709Y-65635000D03*
X69129032Y-65635000D03*
X70419354Y-65635000D03*
X70419354Y-64365000D03*
X69129032Y-64365000D03*
X67838709Y-64365000D03*
X66548387Y-64365000D03*
X65258064Y-64365000D03*
X63967741Y-64365000D03*
X62677419Y-64365000D03*
X61387096Y-64365000D03*
X60096774Y-64365000D03*
X58806451Y-64365000D03*
X57516129Y-64365000D03*
X56225806Y-64365000D03*
X54935483Y-64365000D03*
X53645161Y-64365000D03*
X52354838Y-64365000D03*
X51064516Y-64365000D03*
X49774193Y-64365000D03*
X48483870Y-64365000D03*
X47193548Y-64365000D03*
X45903225Y-64365000D03*
X44612903Y-64365000D03*
X43322580Y-64365000D03*
X42032258Y-64365000D03*
X40741935Y-64365000D03*
X39451612Y-64365000D03*
X38161290Y-64365000D03*
X36870967Y-64365000D03*
X35580645Y-64365000D03*
X49300000Y-35635000D03*
X47500000Y-35635000D03*
X51100000Y-35635000D03*
X49300000Y-34365000D03*
X51100000Y-34365000D03*
X47500000Y-34365000D03*
X39750000Y-35635000D03*
X41100000Y-35635000D03*
X42450000Y-35635000D03*
X43800000Y-35635000D03*
X45150000Y-35635000D03*
X46500000Y-35635000D03*
X45150000Y-34365000D03*
X43800000Y-34365000D03*
X42450000Y-34365000D03*
X41100000Y-34365000D03*
X39750000Y-34365000D03*
X46500000Y-34365000D03*
D11*
X35000000Y-32000000D03*
D10*
X37050000Y-35635000D03*
X38400000Y-35635000D03*
X38400000Y-34365000D03*
X37050000Y-34365000D03*
X35700000Y-34365000D03*
X35700000Y-35635000D03*
D11*
X52300000Y-35000000D03*
X52070000Y-33020000D03*
X52705000Y-33020000D03*
X52705000Y-36830000D03*
X52070000Y-36830000D03*
X53467000Y-36258500D03*
X51181000Y-36258500D03*
X51181000Y-33718500D03*
X53467000Y-33718500D03*
%TD*%
D12*
%TO.N,GND*%
X75300000Y-33500000D02*
X70500000Y-33500000D01*
X70402455Y-33509607D01*
X70308658Y-33538060D01*
X70222215Y-33584265D01*
X70146447Y-33646447D01*
X70084265Y-33722215D01*
X70038060Y-33808658D01*
X70009607Y-33902455D01*
X70000000Y-34000000D01*
X70000000Y-36000000D01*
X70009607Y-36097545D01*
X70038060Y-36191342D01*
X70084265Y-36277785D01*
X70146447Y-36353553D01*
X70222215Y-36415735D01*
X70308658Y-36461940D01*
X70402455Y-36490393D01*
X70500000Y-36500000D01*
X75300000Y-36500000D01*
X75300000Y-48500000D01*
X70500000Y-48500000D01*
X70402455Y-48509607D01*
X70308658Y-48538060D01*
X70222215Y-48584265D01*
X70146447Y-48646447D01*
X70084265Y-48722215D01*
X70038060Y-48808658D01*
X70009607Y-48902455D01*
X70000000Y-49000000D01*
X70000000Y-51000000D01*
X70009607Y-51097545D01*
X70038060Y-51191342D01*
X70084265Y-51277785D01*
X70146447Y-51353553D01*
X70222215Y-51415735D01*
X70308658Y-51461940D01*
X70402455Y-51490393D01*
X70500000Y-51500000D01*
X75300001Y-51500000D01*
X75300001Y-63500000D01*
X70500000Y-63500000D01*
X70402455Y-63509607D01*
X70308658Y-63538060D01*
X70222215Y-63584265D01*
X70146447Y-63646447D01*
X70084265Y-63722215D01*
X70038060Y-63808658D01*
X70009607Y-63902455D01*
X70000000Y-64000000D01*
X70000000Y-66000000D01*
X70009607Y-66097545D01*
X70038060Y-66191342D01*
X70084265Y-66277785D01*
X70146447Y-66353553D01*
X70222215Y-66415735D01*
X70308658Y-66461940D01*
X70402455Y-66490393D01*
X70500000Y-66500000D01*
X75300001Y-66500000D01*
X75300001Y-72300000D01*
X30700000Y-72300000D01*
X30700000Y-66500000D01*
X35500000Y-66500000D01*
X35597545Y-66490393D01*
X35691342Y-66461940D01*
X35777785Y-66415735D01*
X35853553Y-66353553D01*
X35915735Y-66277785D01*
X35961940Y-66191342D01*
X35990393Y-66097545D01*
X36000000Y-66000000D01*
X36000000Y-64000000D01*
X35990393Y-63902455D01*
X35961940Y-63808658D01*
X35915735Y-63722215D01*
X35853553Y-63646447D01*
X35777785Y-63584265D01*
X35691342Y-63538060D01*
X35597545Y-63509607D01*
X35500000Y-63500000D01*
X30700000Y-63500000D01*
X30700000Y-51500000D01*
X35500000Y-51500000D01*
X35597545Y-51490393D01*
X35691342Y-51461940D01*
X35777785Y-51415735D01*
X35853553Y-51353553D01*
X35915735Y-51277785D01*
X35961940Y-51191342D01*
X35990393Y-51097545D01*
X36000000Y-51000000D01*
X36000000Y-49450000D01*
X59550000Y-49450000D01*
X59550000Y-50550000D01*
X59559607Y-50647545D01*
X59588060Y-50741342D01*
X59634265Y-50827785D01*
X59696447Y-50903553D01*
X59772215Y-50965735D01*
X59858658Y-51011940D01*
X59952455Y-51040393D01*
X60050000Y-51050000D01*
X61950000Y-51050000D01*
X62047545Y-51040393D01*
X62141342Y-51011940D01*
X62227785Y-50965735D01*
X62303553Y-50903553D01*
X62365735Y-50827785D01*
X62411940Y-50741342D01*
X62440393Y-50647545D01*
X62450000Y-50550000D01*
X62450000Y-49450000D01*
X62440393Y-49352455D01*
X62411940Y-49258658D01*
X62365735Y-49172215D01*
X62303553Y-49096447D01*
X62227785Y-49034265D01*
X62141342Y-48988060D01*
X62047545Y-48959607D01*
X61950000Y-48950000D01*
X60050000Y-48950000D01*
X59952455Y-48959607D01*
X59858658Y-48988060D01*
X59772215Y-49034265D01*
X59696447Y-49096447D01*
X59634265Y-49172215D01*
X59588060Y-49258658D01*
X59559607Y-49352455D01*
X59550000Y-49450000D01*
X36000000Y-49450000D01*
X36000000Y-49000000D01*
X35990393Y-48902455D01*
X35961940Y-48808658D01*
X35915735Y-48722215D01*
X35853553Y-48646447D01*
X35777785Y-48584265D01*
X35691342Y-48538060D01*
X35597545Y-48509607D01*
X35500000Y-48500000D01*
X30700000Y-48500000D01*
X30700000Y-36500000D01*
X35500000Y-36500000D01*
X35597545Y-36490393D01*
X35691342Y-36461940D01*
X35777785Y-36415735D01*
X35853553Y-36353553D01*
X35915735Y-36277785D01*
X35961940Y-36191342D01*
X35990393Y-36097545D01*
X36000000Y-36000000D01*
X36000000Y-34450000D01*
X45550000Y-34450000D01*
X45550000Y-35550000D01*
X45559607Y-35647545D01*
X45588060Y-35741342D01*
X45634265Y-35827785D01*
X45696447Y-35903553D01*
X45772215Y-35965735D01*
X45858658Y-36011940D01*
X45952455Y-36040393D01*
X46050000Y-36050000D01*
X47950000Y-36050000D01*
X48047545Y-36040393D01*
X48141342Y-36011940D01*
X48227785Y-35965735D01*
X48303553Y-35903553D01*
X48365735Y-35827785D01*
X48411940Y-35741342D01*
X48440393Y-35647545D01*
X48450000Y-35550000D01*
X48450000Y-34450000D01*
X57050000Y-34450000D01*
X57050000Y-35550000D01*
X57059607Y-35647545D01*
X57088060Y-35741342D01*
X57134265Y-35827785D01*
X57196447Y-35903553D01*
X57272215Y-35965735D01*
X57358658Y-36011940D01*
X57452455Y-36040393D01*
X57550000Y-36050000D01*
X59450000Y-36050000D01*
X59547545Y-36040393D01*
X59641342Y-36011940D01*
X59727785Y-35965735D01*
X59803553Y-35903553D01*
X59865735Y-35827785D01*
X59911940Y-35741342D01*
X59940393Y-35647545D01*
X59950000Y-35550000D01*
X59950000Y-34450000D01*
X59940393Y-34352455D01*
X59911940Y-34258658D01*
X59865735Y-34172215D01*
X59803553Y-34096447D01*
X59727785Y-34034265D01*
X59641342Y-33988060D01*
X59547545Y-33959607D01*
X59450000Y-33950000D01*
X57550000Y-33950000D01*
X57452455Y-33959607D01*
X57358658Y-33988060D01*
X57272215Y-34034265D01*
X57196447Y-34096447D01*
X57134265Y-34172215D01*
X57088060Y-34258658D01*
X57059607Y-34352455D01*
X57050000Y-34450000D01*
X48450000Y-34450000D01*
X48440393Y-34352455D01*
X48411940Y-34258658D01*
X48365735Y-34172215D01*
X48303553Y-34096447D01*
X48227785Y-34034265D01*
X48141342Y-33988060D01*
X48047545Y-33959607D01*
X47950000Y-33950000D01*
X46050000Y-33950000D01*
X45952455Y-33959607D01*
X45858658Y-33988060D01*
X45772215Y-34034265D01*
X45696447Y-34096447D01*
X45634265Y-34172215D01*
X45588060Y-34258658D01*
X45559607Y-34352455D01*
X45550000Y-34450000D01*
X36000000Y-34450000D01*
X36000000Y-34000000D01*
X35990393Y-33902455D01*
X35961940Y-33808658D01*
X35915735Y-33722215D01*
X35853553Y-33646447D01*
X35777785Y-33584265D01*
X35691342Y-33538060D01*
X35597545Y-33509607D01*
X35500000Y-33500000D01*
X30700000Y-33500000D01*
X30700000Y-24700000D01*
X75300000Y-24700000D01*
X75300000Y-33500000D01*
%TA.AperFunction,Conductor*%
D13*
G36*
X75300000Y-33500000D02*
G01*
X70500000Y-33500000D01*
X70402455Y-33509607D01*
X70308658Y-33538060D01*
X70222215Y-33584265D01*
X70146447Y-33646447D01*
X70084265Y-33722215D01*
X70038060Y-33808658D01*
X70009607Y-33902455D01*
X70000000Y-34000000D01*
X70000000Y-36000000D01*
X70009607Y-36097545D01*
X70038060Y-36191342D01*
X70084265Y-36277785D01*
X70146447Y-36353553D01*
X70222215Y-36415735D01*
X70308658Y-36461940D01*
X70402455Y-36490393D01*
X70500000Y-36500000D01*
X75300000Y-36500000D01*
X75300000Y-48500000D01*
X70500000Y-48500000D01*
X70402455Y-48509607D01*
X70308658Y-48538060D01*
X70222215Y-48584265D01*
X70146447Y-48646447D01*
X70084265Y-48722215D01*
X70038060Y-48808658D01*
X70009607Y-48902455D01*
X70000000Y-49000000D01*
X70000000Y-51000000D01*
X70009607Y-51097545D01*
X70038060Y-51191342D01*
X70084265Y-51277785D01*
X70146447Y-51353553D01*
X70222215Y-51415735D01*
X70308658Y-51461940D01*
X70402455Y-51490393D01*
X70500000Y-51500000D01*
X75300001Y-51500000D01*
X75300001Y-63500000D01*
X70500000Y-63500000D01*
X70402455Y-63509607D01*
X70308658Y-63538060D01*
X70222215Y-63584265D01*
X70146447Y-63646447D01*
X70084265Y-63722215D01*
X70038060Y-63808658D01*
X70009607Y-63902455D01*
X70000000Y-64000000D01*
X70000000Y-66000000D01*
X70009607Y-66097545D01*
X70038060Y-66191342D01*
X70084265Y-66277785D01*
X70146447Y-66353553D01*
X70222215Y-66415735D01*
X70308658Y-66461940D01*
X70402455Y-66490393D01*
X70500000Y-66500000D01*
X75300001Y-66500000D01*
X75300001Y-72300000D01*
X30700000Y-72300000D01*
X30700000Y-66500000D01*
X35500000Y-66500000D01*
X35597545Y-66490393D01*
X35691342Y-66461940D01*
X35777785Y-66415735D01*
X35853553Y-66353553D01*
X35915735Y-66277785D01*
X35961940Y-66191342D01*
X35990393Y-66097545D01*
X36000000Y-66000000D01*
X36000000Y-64000000D01*
X35990393Y-63902455D01*
X35961940Y-63808658D01*
X35915735Y-63722215D01*
X35853553Y-63646447D01*
X35777785Y-63584265D01*
X35691342Y-63538060D01*
X35597545Y-63509607D01*
X35500000Y-63500000D01*
X30700000Y-63500000D01*
X30700000Y-51500000D01*
X35500000Y-51500000D01*
X35597545Y-51490393D01*
X35691342Y-51461940D01*
X35777785Y-51415735D01*
X35853553Y-51353553D01*
X35915735Y-51277785D01*
X35961940Y-51191342D01*
X35990393Y-51097545D01*
X36000000Y-51000000D01*
X36000000Y-49450000D01*
X59550000Y-49450000D01*
X59550000Y-50550000D01*
X59559607Y-50647545D01*
X59588060Y-50741342D01*
X59634265Y-50827785D01*
X59696447Y-50903553D01*
X59772215Y-50965735D01*
X59858658Y-51011940D01*
X59952455Y-51040393D01*
X60050000Y-51050000D01*
X61950000Y-51050000D01*
X62047545Y-51040393D01*
X62141342Y-51011940D01*
X62227785Y-50965735D01*
X62303553Y-50903553D01*
X62365735Y-50827785D01*
X62411940Y-50741342D01*
X62440393Y-50647545D01*
X62450000Y-50550000D01*
X62450000Y-49450000D01*
X62440393Y-49352455D01*
X62411940Y-49258658D01*
X62365735Y-49172215D01*
X62303553Y-49096447D01*
X62227785Y-49034265D01*
X62141342Y-48988060D01*
X62047545Y-48959607D01*
X61950000Y-48950000D01*
X60050000Y-48950000D01*
X59952455Y-48959607D01*
X59858658Y-48988060D01*
X59772215Y-49034265D01*
X59696447Y-49096447D01*
X59634265Y-49172215D01*
X59588060Y-49258658D01*
X59559607Y-49352455D01*
X59550000Y-49450000D01*
X36000000Y-49450000D01*
X36000000Y-49000000D01*
X35990393Y-48902455D01*
X35961940Y-48808658D01*
X35915735Y-48722215D01*
X35853553Y-48646447D01*
X35777785Y-48584265D01*
X35691342Y-48538060D01*
X35597545Y-48509607D01*
X35500000Y-48500000D01*
X30700000Y-48500000D01*
X30700000Y-36500000D01*
X35500000Y-36500000D01*
X35597545Y-36490393D01*
X35691342Y-36461940D01*
X35777785Y-36415735D01*
X35853553Y-36353553D01*
X35915735Y-36277785D01*
X35961940Y-36191342D01*
X35990393Y-36097545D01*
X36000000Y-36000000D01*
X36000000Y-34450000D01*
X45550000Y-34450000D01*
X45550000Y-35550000D01*
X45559607Y-35647545D01*
X45588060Y-35741342D01*
X45634265Y-35827785D01*
X45696447Y-35903553D01*
X45772215Y-35965735D01*
X45858658Y-36011940D01*
X45952455Y-36040393D01*
X46050000Y-36050000D01*
X47950000Y-36050000D01*
X48047545Y-36040393D01*
X48141342Y-36011940D01*
X48227785Y-35965735D01*
X48303553Y-35903553D01*
X48365735Y-35827785D01*
X48411940Y-35741342D01*
X48440393Y-35647545D01*
X48450000Y-35550000D01*
X48450000Y-34450000D01*
X57050000Y-34450000D01*
X57050000Y-35550000D01*
X57059607Y-35647545D01*
X57088060Y-35741342D01*
X57134265Y-35827785D01*
X57196447Y-35903553D01*
X57272215Y-35965735D01*
X57358658Y-36011940D01*
X57452455Y-36040393D01*
X57550000Y-36050000D01*
X59450000Y-36050000D01*
X59547545Y-36040393D01*
X59641342Y-36011940D01*
X59727785Y-35965735D01*
X59803553Y-35903553D01*
X59865735Y-35827785D01*
X59911940Y-35741342D01*
X59940393Y-35647545D01*
X59950000Y-35550000D01*
X59950000Y-34450000D01*
X59940393Y-34352455D01*
X59911940Y-34258658D01*
X59865735Y-34172215D01*
X59803553Y-34096447D01*
X59727785Y-34034265D01*
X59641342Y-33988060D01*
X59547545Y-33959607D01*
X59450000Y-33950000D01*
X57550000Y-33950000D01*
X57452455Y-33959607D01*
X57358658Y-33988060D01*
X57272215Y-34034265D01*
X57196447Y-34096447D01*
X57134265Y-34172215D01*
X57088060Y-34258658D01*
X57059607Y-34352455D01*
X57050000Y-34450000D01*
X48450000Y-34450000D01*
X48440393Y-34352455D01*
X48411940Y-34258658D01*
X48365735Y-34172215D01*
X48303553Y-34096447D01*
X48227785Y-34034265D01*
X48141342Y-33988060D01*
X48047545Y-33959607D01*
X47950000Y-33950000D01*
X46050000Y-33950000D01*
X45952455Y-33959607D01*
X45858658Y-33988060D01*
X45772215Y-34034265D01*
X45696447Y-34096447D01*
X45634265Y-34172215D01*
X45588060Y-34258658D01*
X45559607Y-34352455D01*
X45550000Y-34450000D01*
X36000000Y-34450000D01*
X36000000Y-34000000D01*
X35990393Y-33902455D01*
X35961940Y-33808658D01*
X35915735Y-33722215D01*
X35853553Y-33646447D01*
X35777785Y-33584265D01*
X35691342Y-33538060D01*
X35597545Y-33509607D01*
X35500000Y-33500000D01*
X30700000Y-33500000D01*
X30700000Y-24700000D01*
X75300000Y-24700000D01*
X75300000Y-33500000D01*
G37*
%TD.AperFunction*%
%TD*%
M02*
