%TF.GenerationSoftware,KiCad,Pcbnew,(5.1.8-44-gfd79c7ae46)*%
%TF.CreationDate,2021-01-02T19:49:22-07:00*%
%TF.ProjectId,egg,6567672e-6b69-4636-9164-5f7063625858,rev?*%
%TF.SameCoordinates,Original*%
%TF.FileFunction,Legend,Top*%
%TF.FilePolarity,Positive*%
%FSLAX46Y46*%
G04 Gerber Fmt 4.6, Leading zero omitted, Abs format (unit mm)*
G04 Created by KiCad (PCBNEW (5.1.8-44-gfd79c7ae46)) date 2021-01-02 19:49:22*
%MOMM*%
%LPD*%
G01*
G04 APERTURE LIST*
%ADD10C,0.120000*%
%ADD11C,0.200000*%
%ADD12C,0.100000*%
%ADD13C,0.250000*%
%ADD14C,0.150000*%
%ADD15C,0.500000*%
G04 APERTURE END LIST*
D10*
%TO.C,FL1*%
X51080800Y-35838200D02*
X51080800Y-35254000D01*
X51398300Y-35838200D02*
X51080800Y-35838200D01*
D11*
%TO.C,REF\u002A\u002A*%
X38716677Y-59615147D02*
X38989167Y-59616503D01*
X38637370Y-59654131D02*
X38716677Y-59615147D01*
X49415307Y-58280232D02*
X49285662Y-58096155D01*
X49285662Y-58096155D02*
X49167371Y-57933043D01*
X49167371Y-57933043D02*
X49047920Y-57860549D01*
X49705286Y-58796258D02*
X49639334Y-58603027D01*
X49639334Y-58603027D02*
X49518996Y-58427963D01*
X49518996Y-58427963D02*
X49415307Y-58280232D01*
X48985627Y-59749866D02*
X49149826Y-59577035D01*
X49149826Y-59577035D02*
X49288581Y-59425136D01*
X49288581Y-59425136D02*
X49429468Y-59260423D01*
X49429468Y-59260423D02*
X49556237Y-59092443D01*
X49556237Y-59092443D02*
X49665216Y-58903289D01*
X49665216Y-58903289D02*
X49705286Y-58796258D01*
X48619392Y-60146632D02*
X48756747Y-59992852D01*
X48756747Y-59992852D02*
X48902672Y-59836693D01*
X48902672Y-59836693D02*
X48985627Y-59749866D01*
X48173172Y-60311047D02*
X48387784Y-60314228D01*
X48387784Y-60314228D02*
X48569450Y-60206902D01*
X48569450Y-60206902D02*
X48619392Y-60146632D01*
X47919187Y-59981335D02*
X47856437Y-60183722D01*
X47856437Y-60183722D02*
X48026447Y-60305673D01*
X48026447Y-60305673D02*
X48173172Y-60311047D01*
X48216418Y-59483005D02*
X48092276Y-59659610D01*
X48092276Y-59659610D02*
X47979788Y-59835234D01*
X47979788Y-59835234D02*
X47919187Y-59981335D01*
X48969155Y-58088764D02*
X48904592Y-58313938D01*
X48904592Y-58313938D02*
X48834661Y-58518556D01*
X48834661Y-58518556D02*
X48743393Y-58706384D01*
X48743393Y-58706384D02*
X48628450Y-58891912D01*
X48628450Y-58891912D02*
X48497999Y-59083479D01*
X48497999Y-59083479D02*
X48371616Y-59263597D01*
X48371616Y-59263597D02*
X48216418Y-59483005D01*
X49047920Y-57860549D02*
X48978152Y-58057469D01*
X48978152Y-58057469D02*
X48969155Y-58088764D01*
X46065237Y-51806207D02*
X46214127Y-51668418D01*
X46214127Y-51668418D02*
X46409569Y-51567424D01*
X46409569Y-51567424D02*
X46626696Y-51495734D01*
X46626696Y-51495734D02*
X46826741Y-51466148D01*
X46826741Y-51466148D02*
X46986823Y-51501920D01*
X46465838Y-52664556D02*
X46334946Y-52503460D01*
X46334946Y-52503460D02*
X46205125Y-52310173D01*
X46205125Y-52310173D02*
X46110453Y-52128538D01*
X46110453Y-52128538D02*
X46048826Y-51925759D01*
X46048826Y-51925759D02*
X46065237Y-51806207D01*
X46207718Y-52704016D02*
X46419259Y-52774037D01*
X46419259Y-52774037D02*
X46465838Y-52664556D01*
X45714524Y-52749577D02*
X45866063Y-52603043D01*
X45866063Y-52603043D02*
X46083593Y-52663070D01*
X46083593Y-52663070D02*
X46207718Y-52704016D01*
X45709034Y-52858600D02*
X45714524Y-52749577D01*
X45872189Y-53161191D02*
X45712559Y-53040459D01*
X45712559Y-53040459D02*
X45709034Y-52858600D01*
X46058797Y-53323708D02*
X45912280Y-53182953D01*
X45912280Y-53182953D02*
X45872189Y-53161191D01*
X46461161Y-53659386D02*
X46288626Y-53552359D01*
X46288626Y-53552359D02*
X46136697Y-53412019D01*
X46136697Y-53412019D02*
X46058797Y-53323708D01*
X46871184Y-53947604D02*
X46711027Y-53822827D01*
X46711027Y-53822827D02*
X46542480Y-53705888D01*
X46542480Y-53705888D02*
X46461161Y-53659386D01*
X47273073Y-54262400D02*
X47112369Y-54138388D01*
X47112369Y-54138388D02*
X46941670Y-54003814D01*
X46941670Y-54003814D02*
X46871184Y-53947604D01*
X47491065Y-54449664D02*
X47340116Y-54315026D01*
X47340116Y-54315026D02*
X47273073Y-54262400D01*
X47784840Y-54585332D02*
X47585138Y-54528871D01*
X47585138Y-54528871D02*
X47491065Y-54449664D01*
X47894039Y-54738085D02*
X47784840Y-54585332D01*
X47939657Y-54899517D02*
X47894039Y-54738085D01*
X48026556Y-55000065D02*
X47939657Y-54899517D01*
X48111150Y-55118579D02*
X48026556Y-55000065D01*
X48241159Y-55290113D02*
X48118735Y-55127310D01*
X48118735Y-55127310D02*
X48111150Y-55118579D01*
X48519750Y-55397237D02*
X48318852Y-55388813D01*
X48318852Y-55388813D02*
X48241159Y-55290113D01*
X48682973Y-55405848D02*
X48519750Y-55397237D01*
X48775023Y-55912653D02*
X48815185Y-55706329D01*
X48815185Y-55706329D02*
X48762612Y-55512123D01*
X48762612Y-55512123D02*
X48682973Y-55405848D01*
X48710086Y-56042558D02*
X48775023Y-55912653D01*
X48546795Y-56261553D02*
X48676286Y-56107058D01*
X48676286Y-56107058D02*
X48710086Y-56042558D01*
X48440443Y-56584416D02*
X48443797Y-56378982D01*
X48443797Y-56378982D02*
X48546795Y-56261553D01*
X48412516Y-56718932D02*
X48440443Y-56584416D01*
X48300266Y-56547533D02*
X48404799Y-56718558D01*
X48404799Y-56718558D02*
X48412516Y-56718932D01*
X48059024Y-56079238D02*
X48174167Y-56258230D01*
X48174167Y-56258230D02*
X48265129Y-56455468D01*
X48265129Y-56455468D02*
X48300266Y-56547533D01*
X48001747Y-55766205D02*
X47986646Y-55970672D01*
X47986646Y-55970672D02*
X48059024Y-56079238D01*
X47656457Y-55055457D02*
X47826849Y-55191751D01*
X47826849Y-55191751D02*
X47940457Y-55375870D01*
X47940457Y-55375870D02*
X48002293Y-55586029D01*
X48002293Y-55586029D02*
X48001747Y-55766205D01*
X47339162Y-55125969D02*
X47525587Y-55033536D01*
X47525587Y-55033536D02*
X47656457Y-55055457D01*
X47202917Y-55201295D02*
X47339162Y-55125969D01*
X46854374Y-55532092D02*
X46979005Y-55375618D01*
X46979005Y-55375618D02*
X47135414Y-55238290D01*
X47135414Y-55238290D02*
X47202917Y-55201295D01*
X46854984Y-55890483D02*
X46821705Y-55685994D01*
X46821705Y-55685994D02*
X46854374Y-55532092D01*
X47525160Y-56297351D02*
X47313133Y-56240366D01*
X47313133Y-56240366D02*
X47117069Y-56145250D01*
X47117069Y-56145250D02*
X46957506Y-56024467D01*
X46957506Y-56024467D02*
X46854984Y-55890483D01*
X47899394Y-57196176D02*
X47869407Y-56988709D01*
X47869407Y-56988709D02*
X47834307Y-56767388D01*
X47834307Y-56767388D02*
X47793244Y-56567543D01*
X47793244Y-56567543D02*
X47706079Y-56372166D01*
X47706079Y-56372166D02*
X47525160Y-56297351D01*
X48240413Y-58013844D02*
X48080267Y-57891781D01*
X48080267Y-57891781D02*
X47992603Y-57691779D01*
X47992603Y-57691779D02*
X47945095Y-57482625D01*
X47945095Y-57482625D02*
X47907138Y-57249890D01*
X47907138Y-57249890D02*
X47899394Y-57196176D01*
X48225365Y-58424713D02*
X48330980Y-58248441D01*
X48330980Y-58248441D02*
X48297056Y-58049549D01*
X48297056Y-58049549D02*
X48240413Y-58013844D01*
X47719157Y-59213771D02*
X47816943Y-59035908D01*
X47816943Y-59035908D02*
X47920114Y-58857001D01*
X47920114Y-58857001D02*
X48026890Y-58686609D01*
X48026890Y-58686609D02*
X48154173Y-58510250D01*
X48154173Y-58510250D02*
X48225365Y-58424713D01*
X47361666Y-59793393D02*
X47488165Y-59622532D01*
X47488165Y-59622532D02*
X47590664Y-59447876D01*
X47590664Y-59447876D02*
X47700640Y-59247953D01*
X47700640Y-59247953D02*
X47719157Y-59213771D01*
X47149639Y-60051983D02*
X47280756Y-59888316D01*
X47280756Y-59888316D02*
X47361666Y-59793393D01*
X46992788Y-60235789D02*
X47129251Y-60078045D01*
X47129251Y-60078045D02*
X47149639Y-60051983D01*
X43744257Y-59996658D02*
X44134667Y-60032741D01*
X44134667Y-60032741D02*
X44498961Y-60065923D01*
X44498961Y-60065923D02*
X44837381Y-60096221D01*
X44837381Y-60096221D02*
X45150171Y-60123654D01*
X45150171Y-60123654D02*
X45437572Y-60148238D01*
X45437572Y-60148238D02*
X45699827Y-60169993D01*
X45699827Y-60169993D02*
X45937180Y-60188935D01*
X45937180Y-60188935D02*
X46149872Y-60205083D01*
X46149872Y-60205083D02*
X46423205Y-60224103D01*
X46423205Y-60224103D02*
X46642418Y-60236935D01*
X46642418Y-60236935D02*
X46851933Y-60244523D01*
X46851933Y-60244523D02*
X46992788Y-60235789D01*
X41455271Y-59792646D02*
X41697309Y-59812058D01*
X41697309Y-59812058D02*
X41903693Y-59829569D01*
X41903693Y-59829569D02*
X42147604Y-59850867D01*
X42147604Y-59850867D02*
X42355942Y-59869396D01*
X42355942Y-59869396D02*
X42586661Y-59890168D01*
X42586661Y-59890168D02*
X42840307Y-59913232D01*
X42840307Y-59913232D02*
X43117425Y-59938636D01*
X43117425Y-59938636D02*
X43418560Y-59966428D01*
X43418560Y-59966428D02*
X43632928Y-59986307D01*
X43632928Y-59986307D02*
X43744257Y-59996658D01*
X41053111Y-59716847D02*
X41261892Y-59776207D01*
X41261892Y-59776207D02*
X41455271Y-59792646D01*
X40924661Y-59718405D02*
X41053111Y-59716847D01*
X40550631Y-59707830D02*
X40756647Y-59738898D01*
X40756647Y-59738898D02*
X40924661Y-59718405D01*
X40339485Y-59694336D02*
X40544162Y-59706487D01*
X40544162Y-59706487D02*
X40550631Y-59707830D01*
X39745361Y-59660030D02*
X39962395Y-59677852D01*
X39962395Y-59677852D02*
X40170551Y-59691530D01*
X40170551Y-59691530D02*
X40339485Y-59694336D01*
X38989167Y-59616503D02*
X39201452Y-59622273D01*
X39201452Y-59622273D02*
X39412736Y-59634184D01*
X39412736Y-59634184D02*
X39628136Y-59650156D01*
X39628136Y-59650156D02*
X39745361Y-59660030D01*
X40896667Y-61060576D02*
X40892261Y-61114477D01*
X40956791Y-61124851D02*
X40896667Y-61060576D01*
X38749010Y-60359524D02*
X38608897Y-60197149D01*
X38608897Y-60197149D02*
X38489891Y-60007482D01*
X38489891Y-60007482D02*
X38474186Y-59801154D01*
X38474186Y-59801154D02*
X38637370Y-59654131D01*
X39650532Y-60554313D02*
X39442697Y-60540623D01*
X39442697Y-60540623D02*
X39228392Y-60525898D01*
X39228392Y-60525898D02*
X39015763Y-60505800D01*
X39015763Y-60505800D02*
X38825328Y-60438828D01*
X38825328Y-60438828D02*
X38749010Y-60359524D01*
X40389442Y-60610655D02*
X40187412Y-60592375D01*
X40187412Y-60592375D02*
X39962440Y-60575762D01*
X39962440Y-60575762D02*
X39759431Y-60561635D01*
X39759431Y-60561635D02*
X39650532Y-60554313D01*
X40440144Y-60814937D02*
X40400647Y-60618187D01*
X40400647Y-60618187D02*
X40389442Y-60610655D01*
X40762319Y-61251366D02*
X40564972Y-61209254D01*
X40564972Y-61209254D02*
X40472372Y-61028175D01*
X40472372Y-61028175D02*
X40440144Y-60814937D01*
X40835797Y-61202821D02*
X40762319Y-61251366D01*
X40892261Y-61114477D02*
X40835797Y-61202821D01*
X60107701Y-63466936D02*
X60055643Y-63459885D01*
X60049611Y-63412899D02*
X60107701Y-63466936D01*
X41224333Y-61017117D02*
X41095145Y-61175113D01*
X41095145Y-61175113D02*
X40956791Y-61124851D01*
X41799002Y-61004099D02*
X41595858Y-60946779D01*
X41595858Y-60946779D02*
X41397931Y-60899896D01*
X41397931Y-60899896D02*
X41224333Y-61017117D01*
X43022158Y-61338624D02*
X42805650Y-61280207D01*
X42805650Y-61280207D02*
X42584169Y-61220139D01*
X42584169Y-61220139D02*
X42367518Y-61161098D01*
X42367518Y-61161098D02*
X42165498Y-61105761D01*
X42165498Y-61105761D02*
X41956189Y-61048019D01*
X41956189Y-61048019D02*
X41799002Y-61004099D01*
X44300964Y-61688405D02*
X44092958Y-61630449D01*
X44092958Y-61630449D02*
X43862449Y-61566960D01*
X43862449Y-61566960D02*
X43647063Y-61508014D01*
X43647063Y-61508014D02*
X43421427Y-61446569D01*
X43421427Y-61446569D02*
X43195787Y-61385430D01*
X43195787Y-61385430D02*
X43022158Y-61338624D01*
X44884988Y-61625283D02*
X44786820Y-61801537D01*
X44786820Y-61801537D02*
X44561062Y-61761233D01*
X44561062Y-61761233D02*
X44352366Y-61702908D01*
X44352366Y-61702908D02*
X44300964Y-61688405D01*
X44452732Y-61264180D02*
X44666066Y-61329420D01*
X44666066Y-61329420D02*
X44858350Y-61396330D01*
X44858350Y-61396330D02*
X44889974Y-61603509D01*
X44889974Y-61603509D02*
X44884988Y-61625283D01*
X43968214Y-61039965D02*
X44142950Y-61164941D01*
X44142950Y-61164941D02*
X44343061Y-61230041D01*
X44343061Y-61230041D02*
X44452732Y-61264180D01*
X43893788Y-60951757D02*
X43968214Y-61039965D01*
X44514889Y-60936706D02*
X44302979Y-60921465D01*
X44302979Y-60921465D02*
X44072359Y-60907408D01*
X44072359Y-60907408D02*
X43870072Y-60912315D01*
X43870072Y-60912315D02*
X43893788Y-60951757D01*
X45433764Y-60998200D02*
X45217936Y-60984768D01*
X45217936Y-60984768D02*
X45003973Y-60970782D01*
X45003973Y-60970782D02*
X44787729Y-60956127D01*
X44787729Y-60956127D02*
X44563706Y-60940290D01*
X44563706Y-60940290D02*
X44514889Y-60936706D01*
X46834377Y-61094070D02*
X46624267Y-61073693D01*
X46624267Y-61073693D02*
X46393751Y-61057607D01*
X46393751Y-61057607D02*
X46184094Y-61044052D01*
X46184094Y-61044052D02*
X45924812Y-61027903D01*
X45924812Y-61027903D02*
X45695288Y-61013920D01*
X45695288Y-61013920D02*
X45433764Y-60998200D01*
X46943577Y-61107426D02*
X46834377Y-61094070D01*
X47038203Y-61134682D02*
X46943577Y-61107426D01*
X47197359Y-61146547D02*
X47038203Y-61134682D01*
X47295848Y-61149055D02*
X47197359Y-61146547D01*
X47407014Y-61151835D02*
X47295848Y-61149055D01*
X47761183Y-61267841D02*
X47581453Y-61163457D01*
X47581453Y-61163457D02*
X47407014Y-61151835D01*
X47838117Y-61521820D02*
X47824753Y-61320825D01*
X47824753Y-61320825D02*
X47761183Y-61267841D01*
X49531014Y-61999268D02*
X49266064Y-62037387D01*
X49266064Y-62037387D02*
X49026748Y-62067690D01*
X49026748Y-62067690D02*
X48812120Y-62089910D01*
X48812120Y-62089910D02*
X48534399Y-62107500D01*
X48534399Y-62107500D02*
X48306904Y-62105402D01*
X48306904Y-62105402D02*
X48076190Y-62070424D01*
X48076190Y-62070424D02*
X47893851Y-61971980D01*
X47893851Y-61971980D02*
X47811078Y-61768087D01*
X47811078Y-61768087D02*
X47838117Y-61521820D01*
X50429350Y-61974657D02*
X50231218Y-61908475D01*
X50231218Y-61908475D02*
X50023675Y-61927865D01*
X50023675Y-61927865D02*
X49787469Y-61960910D01*
X49787469Y-61960910D02*
X49531014Y-61999268D01*
X50761083Y-62039338D02*
X50561731Y-62062208D01*
X50561731Y-62062208D02*
X50429350Y-61974657D01*
X50921256Y-62286876D02*
X50923887Y-62086590D01*
X50923887Y-62086590D02*
X50761083Y-62039338D01*
X51279222Y-63396966D02*
X51094841Y-63306180D01*
X51094841Y-63306180D02*
X50995792Y-63112900D01*
X50995792Y-63112900D02*
X50949460Y-62911141D01*
X50949460Y-62911141D02*
X50923917Y-62657654D01*
X50923917Y-62657654D02*
X50918713Y-62418425D01*
X50918713Y-62418425D02*
X50921256Y-62286876D01*
X51606616Y-62807784D02*
X51549181Y-63010346D01*
X51549181Y-63010346D02*
X51470402Y-63213154D01*
X51470402Y-63213154D02*
X51345547Y-63376790D01*
X51345547Y-63376790D02*
X51279222Y-63396966D01*
X51744692Y-62674692D02*
X51606616Y-62807784D01*
X51882631Y-62960876D02*
X51792923Y-62774453D01*
X51792923Y-62774453D02*
X51744692Y-62674692D01*
X52492684Y-63440291D02*
X52286705Y-63482416D01*
X52286705Y-63482416D02*
X52122458Y-63361288D01*
X52122458Y-63361288D02*
X52007316Y-63196622D01*
X52007316Y-63196622D02*
X51904257Y-63005247D01*
X51904257Y-63005247D02*
X51882631Y-62960876D01*
X52559315Y-62259010D02*
X52617689Y-62454935D01*
X52617689Y-62454935D02*
X52675218Y-62680031D01*
X52675218Y-62680031D02*
X52714117Y-62910052D01*
X52714117Y-62910052D02*
X52711680Y-63123102D01*
X52711680Y-63123102D02*
X52623580Y-63326823D01*
X52623580Y-63326823D02*
X52492684Y-63440291D01*
X52770733Y-61606028D02*
X52549765Y-61625435D01*
X52549765Y-61625435D02*
X52426019Y-61795488D01*
X52426019Y-61795488D02*
X52478152Y-61998204D01*
X52478152Y-61998204D02*
X52540644Y-62199225D01*
X52540644Y-62199225D02*
X52559315Y-62259010D01*
X53205632Y-61562568D02*
X53004424Y-61585393D01*
X53004424Y-61585393D02*
X52801311Y-61603609D01*
X52801311Y-61603609D02*
X52770733Y-61606028D01*
X53523402Y-61660268D02*
X53349547Y-61549444D01*
X53349547Y-61549444D02*
X53205632Y-61562568D01*
X56176928Y-62545127D02*
X55884767Y-62495161D01*
X55884767Y-62495161D02*
X55616024Y-62446677D01*
X55616024Y-62446677D02*
X55369291Y-62399204D01*
X55369291Y-62399204D02*
X55143158Y-62352273D01*
X55143158Y-62352273D02*
X54936216Y-62305413D01*
X54936216Y-62305413D02*
X54658703Y-62234230D01*
X54658703Y-62234230D02*
X54416443Y-62160564D01*
X54416443Y-62160564D02*
X54204678Y-62082829D01*
X54204678Y-62082829D02*
X54018653Y-61999440D01*
X54018653Y-61999440D02*
X53802439Y-61876715D01*
X53802439Y-61876715D02*
X53612255Y-61737358D01*
X53612255Y-61737358D02*
X53523402Y-61660268D01*
X58660046Y-63185634D02*
X58472933Y-63105641D01*
X58472933Y-63105641D02*
X58234417Y-63012026D01*
X58234417Y-63012026D02*
X57995527Y-62929985D01*
X57995527Y-62929985D02*
X57742182Y-62855885D01*
X57742182Y-62855885D02*
X57534217Y-62803336D01*
X57534217Y-62803336D02*
X57304260Y-62751679D01*
X57304260Y-62751679D02*
X57046370Y-62699380D01*
X57046370Y-62699380D02*
X56754607Y-62644907D01*
X56754607Y-62644907D02*
X56538347Y-62606628D01*
X56538347Y-62606628D02*
X56302631Y-62566247D01*
X56302631Y-62566247D02*
X56176928Y-62545127D01*
X58605548Y-63047525D02*
X58765275Y-63185295D01*
X58765275Y-63185295D02*
X58660046Y-63185634D01*
X58916675Y-63084069D02*
X58724459Y-63000827D01*
X58724459Y-63000827D02*
X58534960Y-62928236D01*
X58534960Y-62928236D02*
X58605548Y-63047525D01*
X59354625Y-63282927D02*
X59173082Y-63198698D01*
X59173082Y-63198698D02*
X58988111Y-63115714D01*
X58988111Y-63115714D02*
X58916675Y-63084069D01*
X59521847Y-63301572D02*
X59354625Y-63282927D01*
X59795422Y-63363609D02*
X59607819Y-63287251D01*
X59607819Y-63287251D02*
X59521847Y-63301572D01*
X60055643Y-63459885D02*
X59859492Y-63390390D01*
X59859492Y-63390390D02*
X59795422Y-63363609D01*
X60230322Y-62817751D02*
X60124715Y-62821751D01*
X60230322Y-62719644D02*
X60230322Y-62817751D01*
X59836906Y-63262316D02*
X60003264Y-63375507D01*
X60003264Y-63375507D02*
X60049611Y-63412899D01*
X59652737Y-63119529D02*
X59811273Y-63246205D01*
X59811273Y-63246205D02*
X59836906Y-63262316D01*
X59705744Y-63102375D02*
X59652737Y-63119529D01*
X59760310Y-63048949D02*
X59705744Y-63102375D01*
X60058490Y-63075798D02*
X59865268Y-63016858D01*
X59865268Y-63016858D02*
X59760310Y-63048949D01*
X60179213Y-62984200D02*
X60334325Y-63112745D01*
X60334325Y-63112745D02*
X60120516Y-63095891D01*
X60120516Y-63095891D02*
X60058490Y-63075798D01*
X60124715Y-62821751D02*
X60179213Y-62984200D01*
X50849609Y-56593434D02*
X50849609Y-56669777D01*
X50893872Y-56602451D02*
X50849609Y-56593434D01*
X60383174Y-62624453D02*
X60230322Y-62719644D01*
X60574527Y-62550686D02*
X60383174Y-62624453D01*
X60581915Y-62404441D02*
X60392095Y-62338732D01*
X60392095Y-62338732D02*
X60520557Y-62510843D01*
X60520557Y-62510843D02*
X60574527Y-62550686D01*
X61204644Y-62559161D02*
X60998401Y-62570404D01*
X60998401Y-62570404D02*
X60781828Y-62485924D01*
X60781828Y-62485924D02*
X60581915Y-62404441D01*
X61335466Y-62529126D02*
X61204644Y-62559161D01*
X61517872Y-62573060D02*
X61335466Y-62529126D01*
X61189257Y-62343354D02*
X61371650Y-62457596D01*
X61371650Y-62457596D02*
X61517872Y-62573060D01*
X61355733Y-62313861D02*
X61162137Y-62253768D01*
X61162137Y-62253768D02*
X61189257Y-62343354D01*
X61651541Y-62345252D02*
X61439191Y-62341444D01*
X61439191Y-62341444D02*
X61355733Y-62313861D01*
X61484048Y-62083747D02*
X61630298Y-62221163D01*
X61630298Y-62221163D02*
X61651541Y-62345252D01*
X61482082Y-62031134D02*
X61484048Y-62083747D01*
X61395455Y-61885771D02*
X61560704Y-61998525D01*
X61560704Y-61998525D02*
X61482082Y-62031134D01*
X61540241Y-61797495D02*
X61336385Y-61781062D01*
X61336385Y-61781062D02*
X61395455Y-61885771D01*
X61649304Y-61673014D02*
X61540241Y-61797495D01*
X61600297Y-61524532D02*
X61649304Y-61673014D01*
X61531496Y-61403713D02*
X61600297Y-61524532D01*
X61317775Y-61222619D02*
X61473390Y-61369394D01*
X61473390Y-61369394D02*
X61531496Y-61403713D01*
X61275071Y-61136106D02*
X61317775Y-61222619D01*
X61454901Y-60997929D02*
X61263848Y-61063241D01*
X61263848Y-61063241D02*
X61275071Y-61136106D01*
X61463374Y-60875753D02*
X61668856Y-60885520D01*
X61668856Y-60885520D02*
X61484548Y-60989324D01*
X61484548Y-60989324D02*
X61454901Y-60997929D01*
X61272902Y-60813920D02*
X61463374Y-60875753D01*
X61180038Y-60732763D02*
X61272902Y-60813920D01*
X61095512Y-60637233D02*
X61180038Y-60732763D01*
X60919139Y-60591875D02*
X61118780Y-60607947D01*
X61118780Y-60607947D02*
X61095512Y-60637233D01*
X60776251Y-60521702D02*
X60919139Y-60591875D01*
X60856304Y-60374914D02*
X60776251Y-60521702D01*
X60637634Y-60324064D02*
X60837233Y-60375703D01*
X60837233Y-60375703D02*
X60856304Y-60374914D01*
X60421065Y-60147715D02*
X60612071Y-60209420D01*
X60612071Y-60209420D02*
X60637634Y-60324064D01*
X60227814Y-60060865D02*
X60421065Y-60147715D01*
X60181111Y-59978080D02*
X60227814Y-60060865D01*
X60203073Y-59879093D02*
X60181111Y-59978080D01*
X60196972Y-59792646D02*
X60203073Y-59879093D01*
X60130070Y-59730610D02*
X60196972Y-59792646D01*
X59910180Y-59662404D02*
X60107989Y-59697772D01*
X60107989Y-59697772D02*
X60130070Y-59730610D01*
X59898792Y-59527278D02*
X59910180Y-59662404D01*
X59897233Y-59343336D02*
X59898792Y-59527278D01*
X59440981Y-59226653D02*
X59641911Y-59252175D01*
X59641911Y-59252175D02*
X59835084Y-59309103D01*
X59835084Y-59309103D02*
X59897233Y-59343336D01*
X55999809Y-59431272D02*
X56288468Y-59384284D01*
X56288468Y-59384284D02*
X56560760Y-59342246D01*
X56560760Y-59342246D02*
X56818089Y-59305074D01*
X56818089Y-59305074D02*
X57061861Y-59272684D01*
X57061861Y-59272684D02*
X57293479Y-59244993D01*
X57293479Y-59244993D02*
X57514349Y-59221917D01*
X57514349Y-59221917D02*
X57725876Y-59203373D01*
X57725876Y-59203373D02*
X57929465Y-59189278D01*
X57929465Y-59189278D02*
X58223037Y-59176293D01*
X58223037Y-59176293D02*
X58506650Y-59172849D01*
X58506650Y-59172849D02*
X58785045Y-59178663D01*
X58785045Y-59178663D02*
X59062965Y-59193454D01*
X59062965Y-59193454D02*
X59345151Y-59216940D01*
X59345151Y-59216940D02*
X59440981Y-59226653D01*
X55007660Y-59466733D02*
X55199560Y-59559497D01*
X55199560Y-59559497D02*
X55439786Y-59523929D01*
X55439786Y-59523929D02*
X55644462Y-59490462D01*
X55644462Y-59490462D02*
X55901505Y-59447653D01*
X55901505Y-59447653D02*
X55999809Y-59431272D01*
X54603263Y-59366388D02*
X54819890Y-59351153D01*
X54819890Y-59351153D02*
X55016030Y-59393122D01*
X55016030Y-59393122D02*
X55007660Y-59466733D01*
X52872883Y-59226042D02*
X53108125Y-59293654D01*
X53108125Y-59293654D02*
X53345980Y-59343500D01*
X53345980Y-59343500D02*
X53593536Y-59376157D01*
X53593536Y-59376157D02*
X53803332Y-59390294D01*
X53803332Y-59390294D02*
X54027505Y-59394095D01*
X54027505Y-59394095D02*
X54269685Y-59387856D01*
X54269685Y-59387856D02*
X54533502Y-59371872D01*
X54533502Y-59371872D02*
X54603263Y-59366388D01*
X52082661Y-58836869D02*
X52278195Y-58948025D01*
X52278195Y-58948025D02*
X52456137Y-59046223D01*
X52456137Y-59046223D02*
X52648897Y-59142139D01*
X52648897Y-59142139D02*
X52852251Y-59219291D01*
X52852251Y-59219291D02*
X52872883Y-59226042D01*
X52509223Y-58932400D02*
X52301349Y-58831721D01*
X52301349Y-58831721D02*
X52087904Y-58738010D01*
X52087904Y-58738010D02*
X51896078Y-58671369D01*
X51896078Y-58671369D02*
X52040516Y-58812449D01*
X52040516Y-58812449D02*
X52082661Y-58836869D01*
X52962018Y-58912196D02*
X52793488Y-59028571D01*
X52793488Y-59028571D02*
X52580115Y-58966378D01*
X52580115Y-58966378D02*
X52509223Y-58932400D01*
X54123965Y-59048338D02*
X53922313Y-59009534D01*
X53922313Y-59009534D02*
X53667449Y-58960704D01*
X53667449Y-58960704D02*
X53464262Y-58922483D01*
X53464262Y-58922483D02*
X53263116Y-58886779D01*
X53263116Y-58886779D02*
X53062099Y-58861463D01*
X53062099Y-58861463D02*
X52962018Y-58912196D01*
X55343257Y-59119121D02*
X55168604Y-59238684D01*
X55168604Y-59238684D02*
X54967438Y-59209200D01*
X54967438Y-59209200D02*
X54711290Y-59161776D01*
X54711290Y-59161776D02*
X54451202Y-59111582D01*
X54451202Y-59111582D02*
X54240998Y-59070898D01*
X54240998Y-59070898D02*
X54123965Y-59048338D01*
X55320007Y-58923654D02*
X55343257Y-59119121D01*
X55488992Y-58861820D02*
X55286863Y-58872048D01*
X55286863Y-58872048D02*
X55320007Y-58923654D01*
X55754568Y-58801545D02*
X55550106Y-58860642D01*
X55550106Y-58860642D02*
X55488992Y-58861820D01*
X55565588Y-58450883D02*
X55678775Y-58633182D01*
X55678775Y-58633182D02*
X55754568Y-58801545D01*
X54480236Y-58423696D02*
X54694111Y-58426941D01*
X54694111Y-58426941D02*
X54894548Y-58430451D01*
X54894548Y-58430451D02*
X55119412Y-58435043D01*
X55119412Y-58435043D02*
X55340102Y-58440567D01*
X55340102Y-58440567D02*
X55549808Y-58448841D01*
X55549808Y-58448841D02*
X55565588Y-58450883D01*
X53158116Y-58352981D02*
X53358077Y-58402881D01*
X53358077Y-58402881D02*
X53605770Y-58410616D01*
X53605770Y-58410616D02*
X53874483Y-58415186D01*
X53874483Y-58415186D02*
X54143852Y-58419027D01*
X54143852Y-58419027D02*
X54360169Y-58422021D01*
X54360169Y-58422021D02*
X54480236Y-58423696D01*
X53079013Y-58084764D02*
X53075829Y-58287945D01*
X53075829Y-58287945D02*
X53158116Y-58352981D01*
X53040579Y-57021862D02*
X53086901Y-57246220D01*
X53086901Y-57246220D02*
X53103149Y-57450531D01*
X53103149Y-57450531D02*
X53106893Y-57676585D01*
X53106893Y-57676585D02*
X53097449Y-57905481D01*
X53097449Y-57905481D02*
X53079013Y-58084764D01*
X52639232Y-56854328D02*
X52853094Y-56839431D01*
X52853094Y-56839431D02*
X53014843Y-56960614D01*
X53014843Y-56960614D02*
X53040579Y-57021862D01*
X51499857Y-57596875D02*
X51599178Y-57404162D01*
X51599178Y-57404162D02*
X51746504Y-57217143D01*
X51746504Y-57217143D02*
X51933657Y-57072424D01*
X51933657Y-57072424D02*
X52127017Y-56979592D01*
X52127017Y-56979592D02*
X52360344Y-56908109D01*
X52360344Y-56908109D02*
X52579541Y-56863843D01*
X52579541Y-56863843D02*
X52639232Y-56854328D01*
X51343480Y-57751798D02*
X51493472Y-57611716D01*
X51493472Y-57611716D02*
X51499857Y-57596875D01*
X51060755Y-57310758D02*
X51133032Y-57508970D01*
X51133032Y-57508970D02*
X51218888Y-57697144D01*
X51218888Y-57697144D02*
X51343480Y-57751798D01*
X50886687Y-56838260D02*
X50959099Y-57031323D01*
X50959099Y-57031323D02*
X51032471Y-57232460D01*
X51032471Y-57232460D02*
X51060755Y-57310758D01*
X50849609Y-56669777D02*
X50886687Y-56838260D01*
X47909833Y-52807885D02*
X47959315Y-52755272D01*
X47716446Y-52807885D02*
X47909833Y-52807885D01*
X51064415Y-56571195D02*
X50893872Y-56602451D01*
X51094986Y-56481021D02*
X51064415Y-56571195D01*
X51276917Y-56451528D02*
X51094986Y-56481021D01*
X51541070Y-56474038D02*
X51335823Y-56459292D01*
X51335823Y-56459292D02*
X51276917Y-56451528D01*
X51571708Y-56378440D02*
X51541070Y-56474038D01*
X51667079Y-56323793D02*
X51571708Y-56378440D01*
X51926013Y-56359320D02*
X51721934Y-56336851D01*
X51721934Y-56336851D02*
X51667079Y-56323793D01*
X51903712Y-56316199D02*
X51926013Y-56359320D01*
X52071951Y-56294707D02*
X51903712Y-56316199D01*
X52422935Y-56215584D02*
X52238381Y-56321018D01*
X52238381Y-56321018D02*
X52071951Y-56294707D01*
X52534439Y-56024117D02*
X52401530Y-56179169D01*
X52401530Y-56179169D02*
X52422935Y-56215584D01*
X52648112Y-55942350D02*
X52534439Y-56024117D01*
X52880949Y-55860108D02*
X52667130Y-55876164D01*
X52667130Y-55876164D02*
X52648112Y-55942350D01*
X53383226Y-55737526D02*
X53207742Y-55840166D01*
X53207742Y-55840166D02*
X52991072Y-55853738D01*
X52991072Y-55853738D02*
X52880949Y-55860108D01*
X53390750Y-55637453D02*
X53383226Y-55737526D01*
X53848221Y-55532905D02*
X53645855Y-55584875D01*
X53645855Y-55584875D02*
X53434357Y-55629440D01*
X53434357Y-55629440D02*
X53390750Y-55637453D01*
X53520081Y-55287740D02*
X53707314Y-55363949D01*
X53707314Y-55363949D02*
X53866981Y-55487866D01*
X53866981Y-55487866D02*
X53848221Y-55532905D01*
X53607793Y-55104612D02*
X53401918Y-55152659D01*
X53401918Y-55152659D02*
X53520081Y-55287740D01*
X53598913Y-55002641D02*
X53607793Y-55104612D01*
X53428573Y-54922637D02*
X53598913Y-55002641D01*
X53370211Y-54859244D02*
X53428573Y-54922637D01*
X53095213Y-54885347D02*
X53294096Y-54863856D01*
X53294096Y-54863856D02*
X53370211Y-54859244D01*
X52801439Y-54869346D02*
X53009349Y-54895287D01*
X53009349Y-54895287D02*
X53095213Y-54885347D01*
X52921890Y-54779986D02*
X52801439Y-54869346D01*
X52700848Y-54714830D02*
X52901036Y-54730749D01*
X52901036Y-54730749D02*
X52921890Y-54779986D01*
X52200469Y-54549737D02*
X52366259Y-54676834D01*
X52366259Y-54676834D02*
X52585368Y-54708528D01*
X52585368Y-54708528D02*
X52700848Y-54714830D01*
X50854150Y-53892212D02*
X51098986Y-53957239D01*
X51098986Y-53957239D02*
X51310716Y-54021684D01*
X51310716Y-54021684D02*
X51537380Y-54105601D01*
X51537380Y-54105601D02*
X51732066Y-54198252D01*
X51732066Y-54198252D02*
X51905747Y-54304994D01*
X51905747Y-54304994D02*
X52069397Y-54431183D01*
X52069397Y-54431183D02*
X52200469Y-54549737D01*
X50352755Y-53564263D02*
X50399138Y-53759261D01*
X50399138Y-53759261D02*
X50601969Y-53828002D01*
X50601969Y-53828002D02*
X50804445Y-53879720D01*
X50804445Y-53879720D02*
X50854150Y-53892212D01*
X50393222Y-53203092D02*
X50372149Y-53407577D01*
X50372149Y-53407577D02*
X50352755Y-53564263D01*
X50706585Y-52863617D02*
X50496082Y-52885964D01*
X50496082Y-52885964D02*
X50407131Y-53072320D01*
X50407131Y-53072320D02*
X50393222Y-53203092D01*
X51261801Y-52983826D02*
X51058547Y-52919660D01*
X51058547Y-52919660D02*
X50853096Y-52871090D01*
X50853096Y-52871090D02*
X50706585Y-52863617D01*
X52308313Y-53027625D02*
X52105523Y-53094368D01*
X52105523Y-53094368D02*
X51899929Y-53110449D01*
X51899929Y-53110449D02*
X51699100Y-53092641D01*
X51699100Y-53092641D02*
X51472472Y-53045541D01*
X51472472Y-53045541D02*
X51261801Y-52983826D01*
X52085643Y-52814462D02*
X52276970Y-52880806D01*
X52276970Y-52880806D02*
X52308313Y-53027625D01*
X51203846Y-52392813D02*
X51371128Y-52514528D01*
X51371128Y-52514528D02*
X51566477Y-52621629D01*
X51566477Y-52621629D02*
X51764894Y-52702814D01*
X51764894Y-52702814D02*
X51993663Y-52783519D01*
X51993663Y-52783519D02*
X52085643Y-52814462D01*
X49916364Y-51852854D02*
X50143170Y-51883781D01*
X50143170Y-51883781D02*
X50351072Y-51930557D01*
X50351072Y-51930557D02*
X50546485Y-51995871D01*
X50546485Y-51995871D02*
X50735824Y-52082412D01*
X50735824Y-52082412D02*
X50925505Y-52192871D01*
X50925505Y-52192871D02*
X51121942Y-52329935D01*
X51121942Y-52329935D02*
X51203846Y-52392813D01*
X48090544Y-52582721D02*
X48245235Y-52386860D01*
X48245235Y-52386860D02*
X48422211Y-52220384D01*
X48422211Y-52220384D02*
X48620834Y-52083548D01*
X48620834Y-52083548D02*
X48840468Y-51976605D01*
X48840468Y-51976605D02*
X49080474Y-51899810D01*
X49080474Y-51899810D02*
X49340217Y-51853417D01*
X49340217Y-51853417D02*
X49547593Y-51838726D01*
X49547593Y-51838726D02*
X49765443Y-51841387D01*
X49765443Y-51841387D02*
X49916364Y-51852854D01*
X47959315Y-52755272D02*
X48081963Y-52595201D01*
X48081963Y-52595201D02*
X48090544Y-52582721D01*
X47394474Y-52823072D02*
X47597649Y-52810094D01*
X47597649Y-52810094D02*
X47716446Y-52807885D01*
X47419486Y-52392203D02*
X47301998Y-52567437D01*
X47301998Y-52567437D02*
X47222464Y-52752483D01*
X47222464Y-52752483D02*
X47394474Y-52823072D01*
X47282834Y-51809733D02*
X47498942Y-51849660D01*
X47498942Y-51849660D02*
X47621872Y-52011050D01*
X47621872Y-52011050D02*
X47537296Y-52214534D01*
X47537296Y-52214534D02*
X47419486Y-52392203D01*
X47075213Y-51693795D02*
X47250750Y-51806442D01*
X47250750Y-51806442D02*
X47282834Y-51809733D01*
X46986823Y-51501920D02*
X47075064Y-51687498D01*
X47075064Y-51687498D02*
X47075213Y-51693795D01*
X47909833Y-52807885D02*
X47716446Y-52807885D01*
X47959315Y-52755272D02*
X47909833Y-52807885D01*
X48969155Y-58088764D02*
X49032861Y-57890425D01*
X49032861Y-57890425D02*
X49121601Y-57874176D01*
X48216418Y-59483005D02*
X48371616Y-59263597D01*
X48371616Y-59263597D02*
X48497999Y-59083479D01*
X48497999Y-59083479D02*
X48628450Y-58891912D01*
X48628450Y-58891912D02*
X48743393Y-58706384D01*
X48743393Y-58706384D02*
X48834661Y-58518556D01*
X48834661Y-58518556D02*
X48904592Y-58313938D01*
X48904592Y-58313938D02*
X48969155Y-58088764D01*
X47919187Y-59981335D02*
X48006976Y-59788210D01*
X48006976Y-59788210D02*
X48122244Y-59616572D01*
X48122244Y-59616572D02*
X48216418Y-59483005D01*
X48173172Y-60311047D02*
X47962071Y-60300260D01*
X47962071Y-60300260D02*
X47875701Y-60110005D01*
X47875701Y-60110005D02*
X47919187Y-59981335D01*
X48619392Y-60146632D02*
X48477841Y-60293002D01*
X48477841Y-60293002D02*
X48278028Y-60314290D01*
X48278028Y-60314290D02*
X48173172Y-60311047D01*
X48985627Y-59749866D02*
X48847592Y-59895117D01*
X48847592Y-59895117D02*
X48710585Y-60043330D01*
X48710585Y-60043330D02*
X48619392Y-60146632D01*
X49698033Y-58694693D02*
X49667337Y-58909832D01*
X49667337Y-58909832D02*
X49558307Y-59088957D01*
X49558307Y-59088957D02*
X49415873Y-59274218D01*
X49415873Y-59274218D02*
X49267358Y-59447178D01*
X49267358Y-59447178D02*
X49087494Y-59643062D01*
X49087494Y-59643062D02*
X48985627Y-59749866D01*
X49121601Y-57874176D02*
X49247360Y-58043687D01*
X49247360Y-58043687D02*
X49365056Y-58209163D01*
X49365056Y-58209163D02*
X49490125Y-58387428D01*
X49490125Y-58387428D02*
X49620160Y-58575832D01*
X49620160Y-58575832D02*
X49698033Y-58694693D01*
X47075213Y-51693795D02*
X46993201Y-51508125D01*
X46993201Y-51508125D02*
X46788414Y-51481317D01*
X46788414Y-51481317D02*
X46659292Y-51498666D01*
X47282834Y-51809733D02*
X47087236Y-51754117D01*
X47087236Y-51754117D02*
X47075213Y-51693795D01*
X47419486Y-52392203D02*
X47537296Y-52214534D01*
X47537296Y-52214534D02*
X47618434Y-52031644D01*
X47618434Y-52031644D02*
X47498942Y-51849660D01*
X47498942Y-51849660D02*
X47282834Y-51809733D01*
X47394474Y-52823072D02*
X47236902Y-52693376D01*
X47236902Y-52693376D02*
X47335325Y-52514757D01*
X47335325Y-52514757D02*
X47419486Y-52392203D01*
X47716446Y-52807885D02*
X47509804Y-52814006D01*
X47509804Y-52814006D02*
X47394474Y-52823072D01*
X50849609Y-56593434D02*
X50893872Y-56602451D01*
X50849609Y-56669777D02*
X50849609Y-56593434D01*
X48090544Y-52582721D02*
X47967779Y-52745894D01*
X47967779Y-52745894D02*
X47959315Y-52755272D01*
X49916364Y-51852854D02*
X49691679Y-51838565D01*
X49691679Y-51838565D02*
X49477291Y-51841700D01*
X49477291Y-51841700D02*
X49273466Y-51862151D01*
X49273466Y-51862151D02*
X49018598Y-51916168D01*
X49018598Y-51916168D02*
X48783624Y-52000524D01*
X48783624Y-52000524D02*
X48569184Y-52114964D01*
X48569184Y-52114964D02*
X48375913Y-52259234D01*
X48375913Y-52259234D02*
X48204448Y-52433080D01*
X48204448Y-52433080D02*
X48090544Y-52582721D01*
X51203846Y-52392813D02*
X51042146Y-52271744D01*
X51042146Y-52271744D02*
X50849181Y-52145645D01*
X50849181Y-52145645D02*
X50660407Y-52045076D01*
X50660407Y-52045076D02*
X50469408Y-51967349D01*
X50469408Y-51967349D02*
X50269769Y-51909772D01*
X50269769Y-51909772D02*
X50055075Y-51869659D01*
X50055075Y-51869659D02*
X49916364Y-51852854D01*
X52085643Y-52814462D02*
X51871125Y-52741223D01*
X51871125Y-52741223D02*
X51672485Y-52667102D01*
X51672485Y-52667102D02*
X51474731Y-52576020D01*
X51474731Y-52576020D02*
X51289930Y-52458316D01*
X51289930Y-52458316D02*
X51203846Y-52392813D01*
X52308313Y-53027625D02*
X52179326Y-52846072D01*
X52179326Y-52846072D02*
X52085643Y-52814462D01*
X51261801Y-52983826D02*
X51472472Y-53045541D01*
X51472472Y-53045541D02*
X51699100Y-53092641D01*
X51699100Y-53092641D02*
X51899929Y-53110449D01*
X51899929Y-53110449D02*
X52105523Y-53094368D01*
X52105523Y-53094368D02*
X52308313Y-53027625D01*
X50706585Y-52863617D02*
X50906615Y-52880156D01*
X50906615Y-52880156D02*
X51101883Y-52932821D01*
X51101883Y-52932821D02*
X51261801Y-52983826D01*
X50393222Y-53203092D02*
X50420551Y-52996072D01*
X50420551Y-52996072D02*
X50579409Y-52867686D01*
X50579409Y-52867686D02*
X50706585Y-52863617D01*
X50352755Y-53564263D02*
X50377671Y-53357234D01*
X50377671Y-53357234D02*
X50393222Y-53203092D01*
X50854150Y-53892212D02*
X50636661Y-53837133D01*
X50636661Y-53837133D02*
X50429076Y-53773678D01*
X50429076Y-53773678D02*
X50350015Y-53582487D01*
X50350015Y-53582487D02*
X50352755Y-53564263D01*
X52200469Y-54549737D02*
X52036943Y-54404132D01*
X52036943Y-54404132D02*
X51872164Y-54282261D01*
X51872164Y-54282261D02*
X51695160Y-54178766D01*
X51695160Y-54178766D02*
X51494956Y-54088291D01*
X51494956Y-54088291D02*
X51260580Y-54005477D01*
X51260580Y-54005477D02*
X51041100Y-53941143D01*
X51041100Y-53941143D02*
X50854150Y-53892212D01*
X52700848Y-54714830D02*
X52497002Y-54702086D01*
X52497002Y-54702086D02*
X52304771Y-54642918D01*
X52304771Y-54642918D02*
X52200469Y-54549737D01*
X52921890Y-54779986D02*
X52723966Y-54716078D01*
X52723966Y-54716078D02*
X52700848Y-54714830D01*
X52801439Y-54869346D02*
X52921890Y-54779986D01*
X53095213Y-54885347D02*
X52886355Y-54901578D01*
X52886355Y-54901578D02*
X52801439Y-54869346D01*
X53370211Y-54859244D02*
X53168376Y-54876493D01*
X53168376Y-54876493D02*
X53095213Y-54885347D01*
X53428573Y-54922637D02*
X53370211Y-54859244D01*
X53598913Y-55002641D02*
X53428573Y-54922637D01*
X53607793Y-55104612D02*
X53598913Y-55002641D01*
X53520081Y-55287740D02*
X53340535Y-55197819D01*
X53340535Y-55197819D02*
X53549291Y-55116091D01*
X53549291Y-55116091D02*
X53607793Y-55104612D01*
X53848221Y-55532905D02*
X53724503Y-55372793D01*
X53724503Y-55372793D02*
X53520081Y-55287740D01*
X53390750Y-55637453D02*
X53591503Y-55596960D01*
X53591503Y-55596960D02*
X53786244Y-55551376D01*
X53786244Y-55551376D02*
X53848221Y-55532905D01*
X53383226Y-55737526D02*
X53390750Y-55637453D01*
X52880949Y-55860108D02*
X53087444Y-55847991D01*
X53087444Y-55847991D02*
X53301022Y-55832783D01*
X53301022Y-55832783D02*
X53383226Y-55737526D01*
X52648112Y-55942350D02*
X52852520Y-55861769D01*
X52852520Y-55861769D02*
X52880949Y-55860108D01*
X52534439Y-56024117D02*
X52648112Y-55942350D01*
X52422935Y-56215584D02*
X52490985Y-56025572D01*
X52490985Y-56025572D02*
X52534439Y-56024117D01*
X52071951Y-56294707D02*
X52290522Y-56328175D01*
X52290522Y-56328175D02*
X52422935Y-56215584D01*
X51903712Y-56316199D02*
X52071951Y-56294707D01*
X51926013Y-56359320D02*
X51903712Y-56316199D01*
X51667079Y-56323793D02*
X51865889Y-56361185D01*
X51865889Y-56361185D02*
X51926013Y-56359320D01*
X51571708Y-56378440D02*
X51667079Y-56323793D01*
X51541070Y-56474038D02*
X51571708Y-56378440D01*
X51276917Y-56451528D02*
X51477436Y-56471855D01*
X51477436Y-56471855D02*
X51541070Y-56474038D01*
X51094986Y-56481021D02*
X51276917Y-56451528D01*
X51064415Y-56571195D02*
X51094986Y-56481021D01*
X50893872Y-56602451D02*
X51064415Y-56571195D01*
X60230322Y-62817751D02*
X60230322Y-62719644D01*
X60124715Y-62821751D02*
X60230322Y-62817751D01*
X50886687Y-56838260D02*
X50849609Y-56669777D01*
X51060755Y-57310758D02*
X50991091Y-57118656D01*
X50991091Y-57118656D02*
X50920917Y-56928147D01*
X50920917Y-56928147D02*
X50886687Y-56838260D01*
X51343480Y-57751798D02*
X51176771Y-57618291D01*
X51176771Y-57618291D02*
X51100197Y-57419947D01*
X51100197Y-57419947D02*
X51060755Y-57310758D01*
X51499857Y-57596875D02*
X51372402Y-57753925D01*
X51372402Y-57753925D02*
X51343480Y-57751798D01*
X52639232Y-56854328D02*
X52412298Y-56896053D01*
X52412298Y-56896053D02*
X52215239Y-56948641D01*
X52215239Y-56948641D02*
X52006563Y-57032496D01*
X52006563Y-57032496D02*
X51834498Y-57139890D01*
X51834498Y-57139890D02*
X51668466Y-57304971D01*
X51668466Y-57304971D02*
X51557249Y-57476992D01*
X51557249Y-57476992D02*
X51499857Y-57596875D01*
X53040579Y-57021862D02*
X52915705Y-56854294D01*
X52915705Y-56854294D02*
X52709964Y-56844620D01*
X52709964Y-56844620D02*
X52639232Y-56854328D01*
X53079013Y-58084764D02*
X53099968Y-57867936D01*
X53099968Y-57867936D02*
X53107166Y-57638202D01*
X53107166Y-57638202D02*
X53101291Y-57414459D01*
X53101291Y-57414459D02*
X53078824Y-57186214D01*
X53078824Y-57186214D02*
X53040579Y-57021862D01*
X53158116Y-58352981D02*
X53068395Y-58165718D01*
X53068395Y-58165718D02*
X53079013Y-58084764D01*
X54480236Y-58423696D02*
X54248140Y-58420470D01*
X54248140Y-58420470D02*
X54047010Y-58417676D01*
X54047010Y-58417676D02*
X53798205Y-58414016D01*
X53798205Y-58414016D02*
X53552772Y-58409466D01*
X53552772Y-58409466D02*
X53331128Y-58401287D01*
X53331128Y-58401287D02*
X53158116Y-58352981D01*
X55565588Y-58450883D02*
X55340102Y-58440567D01*
X55340102Y-58440567D02*
X55119412Y-58435043D01*
X55119412Y-58435043D02*
X54894548Y-58430451D01*
X54894548Y-58430451D02*
X54694111Y-58426941D01*
X54694111Y-58426941D02*
X54480236Y-58423696D01*
X55754568Y-58801545D02*
X55670626Y-58617952D01*
X55670626Y-58617952D02*
X55565588Y-58450883D01*
X55488992Y-58861820D02*
X55695084Y-58851801D01*
X55695084Y-58851801D02*
X55754568Y-58801545D01*
X55320007Y-58923654D02*
X55488992Y-58861820D01*
X55343257Y-59119121D02*
X55320007Y-58923654D01*
X54123965Y-59048338D02*
X54349979Y-59091974D01*
X54349979Y-59091974D02*
X54631562Y-59146466D01*
X54631562Y-59146466D02*
X54851325Y-59188217D01*
X54851325Y-59188217D02*
X55061997Y-59224863D01*
X55061997Y-59224863D02*
X55272071Y-59237065D01*
X55272071Y-59237065D02*
X55343257Y-59119121D01*
X52962018Y-58912196D02*
X53188348Y-58874986D01*
X53188348Y-58874986D02*
X53406955Y-58911975D01*
X53406955Y-58911975D02*
X53667449Y-58960704D01*
X53667449Y-58960704D02*
X53922313Y-59009534D01*
X53922313Y-59009534D02*
X54123965Y-59048338D01*
X52509223Y-58932400D02*
X52699639Y-59012271D01*
X52699639Y-59012271D02*
X52905902Y-58989401D01*
X52905902Y-58989401D02*
X52962018Y-58912196D01*
X51846774Y-58661132D02*
X52049223Y-58723134D01*
X52049223Y-58723134D02*
X52253495Y-58810723D01*
X52253495Y-58810723D02*
X52452345Y-58904195D01*
X52452345Y-58904195D02*
X52509223Y-58932400D01*
X52355151Y-58991861D02*
X52177651Y-58890959D01*
X52177651Y-58890959D02*
X52000450Y-58787021D01*
X52000450Y-58787021D02*
X51846774Y-58661132D01*
X54603263Y-59366388D02*
X54330038Y-59384677D01*
X54330038Y-59384677D02*
X54075660Y-59392903D01*
X54075660Y-59392903D02*
X53838078Y-59390725D01*
X53838078Y-59390725D02*
X53615242Y-59377803D01*
X53615242Y-59377803D02*
X53405102Y-59353794D01*
X53405102Y-59353794D02*
X53205607Y-59318357D01*
X53205607Y-59318357D02*
X52952631Y-59252742D01*
X52952631Y-59252742D02*
X52710075Y-59165395D01*
X52710075Y-59165395D02*
X52473081Y-59055509D01*
X52473081Y-59055509D02*
X52355151Y-58991861D01*
X55007660Y-59466733D02*
X54843146Y-59350222D01*
X54843146Y-59350222D02*
X54640378Y-59363376D01*
X54640378Y-59363376D02*
X54603263Y-59366388D01*
X55999809Y-59431272D02*
X55724043Y-59477241D01*
X55724043Y-59477241D02*
X55502544Y-59513799D01*
X55502544Y-59513799D02*
X55281781Y-59548256D01*
X55281781Y-59548256D02*
X55062606Y-59570619D01*
X55062606Y-59570619D02*
X55007660Y-59466733D01*
X59440981Y-59226653D02*
X59156319Y-59200330D01*
X59156319Y-59200330D02*
X58877504Y-59182610D01*
X58877504Y-59182610D02*
X58599794Y-59173772D01*
X58599794Y-59173772D02*
X58318447Y-59174099D01*
X58318447Y-59174099D02*
X58028721Y-59183872D01*
X58028721Y-59183872D02*
X57828575Y-59195774D01*
X57828575Y-59195774D02*
X57621193Y-59212083D01*
X57621193Y-59212083D02*
X57405170Y-59232883D01*
X57405170Y-59232883D02*
X57179101Y-59258256D01*
X57179101Y-59258256D02*
X56941582Y-59288286D01*
X56941582Y-59288286D02*
X56691207Y-59323057D01*
X56691207Y-59323057D02*
X56426572Y-59362652D01*
X56426572Y-59362652D02*
X56146272Y-59407154D01*
X56146272Y-59407154D02*
X55999809Y-59431272D01*
X59897233Y-59343336D02*
X59700169Y-59263312D01*
X59700169Y-59263312D02*
X59488868Y-59231845D01*
X59488868Y-59231845D02*
X59440981Y-59226653D01*
X59898792Y-59527278D02*
X59897233Y-59343336D01*
X59910180Y-59662404D02*
X59898792Y-59527278D01*
X60130070Y-59730610D02*
X59927669Y-59664338D01*
X59927669Y-59664338D02*
X59910180Y-59662404D01*
X60196972Y-59792646D02*
X60130070Y-59730610D01*
X60203073Y-59879093D02*
X60196972Y-59792646D01*
X60181111Y-59978080D02*
X60203073Y-59879093D01*
X60227814Y-60060865D02*
X60181111Y-59978080D01*
X60421065Y-60147715D02*
X60234378Y-60074965D01*
X60234378Y-60074965D02*
X60227814Y-60060865D01*
X60637634Y-60324064D02*
X60500865Y-60163025D01*
X60500865Y-60163025D02*
X60421065Y-60147715D01*
X60856304Y-60374914D02*
X60650725Y-60370071D01*
X60650725Y-60370071D02*
X60637634Y-60324064D01*
X60776251Y-60521702D02*
X60965991Y-60433452D01*
X60965991Y-60433452D02*
X60856304Y-60374914D01*
X60919139Y-60591875D02*
X60716766Y-60587016D01*
X60716766Y-60587016D02*
X60776251Y-60521702D01*
X61095512Y-60637233D02*
X60919139Y-60591875D01*
X61180038Y-60732763D02*
X61095512Y-60637233D01*
X61272902Y-60813920D02*
X61180038Y-60732763D01*
X61463374Y-60875753D02*
X61264717Y-60852050D01*
X61264717Y-60852050D02*
X61272902Y-60813920D01*
X61454901Y-60997929D02*
X61653343Y-60933598D01*
X61653343Y-60933598D02*
X61463374Y-60875753D01*
X61275071Y-61136106D02*
X61433993Y-61003968D01*
X61433993Y-61003968D02*
X61454901Y-60997929D01*
X61317775Y-61222619D02*
X61275071Y-61136106D01*
X61531496Y-61403713D02*
X61354002Y-61295666D01*
X61354002Y-61295666D02*
X61317775Y-61222619D01*
X61600297Y-61524532D02*
X61531496Y-61403713D01*
X61649304Y-61673014D02*
X61600297Y-61524532D01*
X61540241Y-61797495D02*
X61744070Y-61808848D01*
X61744070Y-61808848D02*
X61649304Y-61673014D01*
X61395455Y-61885771D02*
X61540241Y-61797495D01*
X61482082Y-62031134D02*
X61395455Y-61885771D01*
X61484048Y-62083747D02*
X61482082Y-62031134D01*
X61651541Y-62345252D02*
X61583967Y-62154725D01*
X61583967Y-62154725D02*
X61484048Y-62083747D01*
X61355733Y-62313861D02*
X61556308Y-62375266D01*
X61556308Y-62375266D02*
X61651541Y-62345252D01*
X61189257Y-62343354D02*
X61355733Y-62313861D01*
X61517872Y-62573060D02*
X61357061Y-62448180D01*
X61357061Y-62448180D02*
X61189257Y-62343354D01*
X61335466Y-62529126D02*
X61517872Y-62573060D01*
X61204644Y-62559161D02*
X61335466Y-62529126D01*
X60581915Y-62404441D02*
X60781828Y-62485924D01*
X60781828Y-62485924D02*
X60968637Y-62559318D01*
X60968637Y-62559318D02*
X61170627Y-62620852D01*
X61170627Y-62620852D02*
X61204644Y-62559161D01*
X60574527Y-62550686D02*
X60402207Y-62415634D01*
X60402207Y-62415634D02*
X60581915Y-62404441D01*
X60383174Y-62624453D02*
X60583163Y-62676597D01*
X60583163Y-62676597D02*
X60574527Y-62550686D01*
X60230322Y-62719644D02*
X60383174Y-62624453D01*
X60107701Y-63466936D02*
X60049611Y-63412899D01*
X60055643Y-63459885D02*
X60107701Y-63466936D01*
X60179213Y-62984200D02*
X60025962Y-62850803D01*
X60025962Y-62850803D02*
X60124715Y-62821751D01*
X60058490Y-63075798D02*
X60261198Y-63136893D01*
X60261198Y-63136893D02*
X60179213Y-62984200D01*
X59760310Y-63048949D02*
X59972305Y-63047892D01*
X59972305Y-63047892D02*
X60058490Y-63075798D01*
X59705744Y-63102375D02*
X59760310Y-63048949D01*
X59652737Y-63119529D02*
X59705744Y-63102375D01*
X59836906Y-63262316D02*
X59671547Y-63149619D01*
X59671547Y-63149619D02*
X59652737Y-63119529D01*
X60049611Y-63412899D02*
X59885388Y-63293381D01*
X59885388Y-63293381D02*
X59836906Y-63262316D01*
X40896667Y-61060576D02*
X40956791Y-61124851D01*
X40892261Y-61114477D02*
X40896667Y-61060576D01*
X59795422Y-63363609D02*
X59983034Y-63437896D01*
X59983034Y-63437896D02*
X60055643Y-63459885D01*
X59521847Y-63301572D02*
X59736199Y-63338268D01*
X59736199Y-63338268D02*
X59795422Y-63363609D01*
X59354625Y-63282927D02*
X59521847Y-63301572D01*
X58916675Y-63084069D02*
X59109207Y-63169862D01*
X59109207Y-63169862D02*
X59291704Y-63253008D01*
X59291704Y-63253008D02*
X59354625Y-63282927D01*
X58605548Y-63047525D02*
X58832730Y-63047247D01*
X58832730Y-63047247D02*
X58916675Y-63084069D01*
X58660046Y-63185634D02*
X58605548Y-63047525D01*
X56176928Y-62545127D02*
X56423031Y-62586728D01*
X56423031Y-62586728D02*
X56648799Y-62626002D01*
X56648799Y-62626002D02*
X56855992Y-62663401D01*
X56855992Y-62663401D02*
X57135804Y-62716979D01*
X57135804Y-62716979D02*
X57383723Y-62768894D01*
X57383723Y-62768894D02*
X57605689Y-62820678D01*
X57605689Y-62820678D02*
X57807644Y-62873864D01*
X57807644Y-62873864D02*
X58056054Y-62949609D01*
X58056054Y-62949609D02*
X58293531Y-63034203D01*
X58293531Y-63034203D02*
X58534154Y-63131279D01*
X58534154Y-63131279D02*
X58660046Y-63185634D01*
X53523402Y-61660268D02*
X53704798Y-61809351D01*
X53704798Y-61809351D02*
X53906588Y-61939922D01*
X53906588Y-61939922D02*
X54140045Y-62055739D01*
X54140045Y-62055739D02*
X54342701Y-62135183D01*
X54342701Y-62135183D02*
X54574268Y-62210029D01*
X54574268Y-62210029D02*
X54839501Y-62281864D01*
X54839501Y-62281864D02*
X55037376Y-62328864D01*
X55037376Y-62328864D02*
X55253738Y-62375700D01*
X55253738Y-62375700D02*
X55489995Y-62422843D01*
X55489995Y-62422843D02*
X55747556Y-62470763D01*
X55747556Y-62470763D02*
X56027832Y-62519929D01*
X56027832Y-62519929D02*
X56176928Y-62545127D01*
X53205632Y-61562568D02*
X53410942Y-61568323D01*
X53410942Y-61568323D02*
X53523402Y-61660268D01*
X52770733Y-61606028D02*
X52974012Y-61588346D01*
X52974012Y-61588346D02*
X53180694Y-61565990D01*
X53180694Y-61565990D02*
X53205632Y-61562568D01*
X52559315Y-62259010D02*
X52491855Y-62043024D01*
X52491855Y-62043024D02*
X52430897Y-61822098D01*
X52430897Y-61822098D02*
X52507760Y-61633930D01*
X52507760Y-61633930D02*
X52731757Y-61608946D01*
X52731757Y-61608946D02*
X52770733Y-61606028D01*
X52492684Y-63440291D02*
X52654798Y-63282707D01*
X52654798Y-63282707D02*
X52715842Y-63091742D01*
X52715842Y-63091742D02*
X52709294Y-62868213D01*
X52709294Y-62868213D02*
X52663024Y-62627405D01*
X52663024Y-62627405D02*
X52599674Y-62392332D01*
X52599674Y-62392332D02*
X52559315Y-62259010D01*
X51882631Y-62960876D02*
X51987315Y-63162359D01*
X51987315Y-63162359D02*
X52103748Y-63338636D01*
X52103748Y-63338636D02*
X52268585Y-63476124D01*
X52268585Y-63476124D02*
X52473088Y-63452268D01*
X52473088Y-63452268D02*
X52492684Y-63440291D01*
X51744692Y-62674692D02*
X51832932Y-62857540D01*
X51832932Y-62857540D02*
X51882631Y-62960876D01*
X51606616Y-62807784D02*
X51675882Y-62614647D01*
X51675882Y-62614647D02*
X51744692Y-62674692D01*
X51279222Y-63396966D02*
X51440035Y-63269707D01*
X51440035Y-63269707D02*
X51529752Y-63068201D01*
X51529752Y-63068201D02*
X51597121Y-62844585D01*
X51597121Y-62844585D02*
X51606616Y-62807784D01*
X50921256Y-62286876D02*
X50919608Y-62542044D01*
X50919608Y-62542044D02*
X50931615Y-62765179D01*
X50931615Y-62765179D02*
X50965520Y-62998119D01*
X50965520Y-62998119D02*
X51033408Y-63208628D01*
X51033408Y-63208628D02*
X51168981Y-63368786D01*
X51168981Y-63368786D02*
X51279222Y-63396966D01*
X50761083Y-62039338D02*
X50924664Y-62158868D01*
X50924664Y-62158868D02*
X50921256Y-62286876D01*
X50429350Y-61974657D02*
X50609064Y-62072686D01*
X50609064Y-62072686D02*
X50761083Y-62039338D01*
X49531014Y-61999268D02*
X49729439Y-61969494D01*
X49729439Y-61969494D02*
X49939368Y-61939126D01*
X49939368Y-61939126D02*
X50157104Y-61913022D01*
X50157104Y-61913022D02*
X50364209Y-61927492D01*
X50364209Y-61927492D02*
X50429350Y-61974657D01*
X47838117Y-61521820D02*
X47810054Y-61724543D01*
X47810054Y-61724543D02*
X47870341Y-61944662D01*
X47870341Y-61944662D02*
X48076190Y-62070424D01*
X48076190Y-62070424D02*
X48306904Y-62105402D01*
X48306904Y-62105402D02*
X48534399Y-62107500D01*
X48534399Y-62107500D02*
X48812120Y-62089910D01*
X48812120Y-62089910D02*
X49026748Y-62067690D01*
X49026748Y-62067690D02*
X49266064Y-62037387D01*
X49266064Y-62037387D02*
X49531014Y-61999268D01*
X47761183Y-61267841D02*
X47854011Y-61446841D01*
X47854011Y-61446841D02*
X47838117Y-61521820D01*
X47407014Y-61151835D02*
X47615133Y-61177165D01*
X47615133Y-61177165D02*
X47761183Y-61267841D01*
X47295848Y-61149055D02*
X47407014Y-61151835D01*
X47197359Y-61146547D02*
X47295848Y-61149055D01*
X47038203Y-61134682D02*
X47197359Y-61146547D01*
X46943577Y-61107426D02*
X47038203Y-61134682D01*
X46834377Y-61094070D02*
X46943577Y-61107426D01*
X45433764Y-60998200D02*
X45695288Y-61013920D01*
X45695288Y-61013920D02*
X45924812Y-61027903D01*
X45924812Y-61027903D02*
X46184094Y-61044052D01*
X46184094Y-61044052D02*
X46393751Y-61057607D01*
X46393751Y-61057607D02*
X46624267Y-61073693D01*
X46624267Y-61073693D02*
X46827625Y-61092835D01*
X46827625Y-61092835D02*
X46834377Y-61094070D01*
X44514889Y-60936706D02*
X44728352Y-60952006D01*
X44728352Y-60952006D02*
X44941539Y-60966604D01*
X44941539Y-60966604D02*
X45158214Y-60980919D01*
X45158214Y-60980919D02*
X45358182Y-60993600D01*
X45358182Y-60993600D02*
X45433764Y-60998200D01*
X43893788Y-60951757D02*
X44104047Y-60909005D01*
X44104047Y-60909005D02*
X44351351Y-60924841D01*
X44351351Y-60924841D02*
X44514889Y-60936706D01*
X43968214Y-61039965D02*
X43893788Y-60951757D01*
X44452732Y-61264180D02*
X44253611Y-61201824D01*
X44253611Y-61201824D02*
X44059874Y-61131086D01*
X44059874Y-61131086D02*
X43968214Y-61039965D01*
X44884988Y-61625283D02*
X44900869Y-61425160D01*
X44900869Y-61425160D02*
X44699353Y-61339654D01*
X44699353Y-61339654D02*
X44502023Y-61279414D01*
X44502023Y-61279414D02*
X44452732Y-61264180D01*
X44300964Y-61688405D02*
X44525349Y-61751505D01*
X44525349Y-61751505D02*
X44721683Y-61798225D01*
X44721683Y-61798225D02*
X44876434Y-61665030D01*
X44876434Y-61665030D02*
X44884988Y-61625283D01*
X43022158Y-61338624D02*
X43240423Y-61397499D01*
X43240423Y-61397499D02*
X43466882Y-61458923D01*
X43466882Y-61458923D02*
X43691288Y-61520093D01*
X43691288Y-61520093D02*
X43903395Y-61578203D01*
X43903395Y-61578203D02*
X44127264Y-61639948D01*
X44127264Y-61639948D02*
X44300964Y-61688405D01*
X41799002Y-61004099D02*
X42021004Y-61065960D01*
X42021004Y-61065960D02*
X42243923Y-61127280D01*
X42243923Y-61127280D02*
X42452971Y-61184419D01*
X42452971Y-61184419D02*
X42672731Y-61244193D01*
X42672731Y-61244193D02*
X42893398Y-61303922D01*
X42893398Y-61303922D02*
X43022158Y-61338624D01*
X41224333Y-61017117D02*
X41397931Y-60899896D01*
X41397931Y-60899896D02*
X41595858Y-60946779D01*
X41595858Y-60946779D02*
X41799002Y-61004099D01*
X40956791Y-61124851D02*
X41160273Y-61115643D01*
X41160273Y-61115643D02*
X41224333Y-61017117D01*
X38716677Y-59615147D02*
X38637370Y-59654131D01*
X38989167Y-59616503D02*
X38716677Y-59615147D01*
X40835797Y-61202821D02*
X40892261Y-61114477D01*
X40762319Y-61251366D02*
X40835797Y-61202821D01*
X40440144Y-60814937D02*
X40472372Y-61028175D01*
X40472372Y-61028175D02*
X40564972Y-61209254D01*
X40564972Y-61209254D02*
X40762319Y-61251366D01*
X40389442Y-60610655D02*
X40440081Y-60804280D01*
X40440081Y-60804280D02*
X40440144Y-60814937D01*
X39650532Y-60554313D02*
X39863827Y-60568818D01*
X39863827Y-60568818D02*
X40082719Y-60584483D01*
X40082719Y-60584483D02*
X40291742Y-60600725D01*
X40291742Y-60600725D02*
X40389442Y-60610655D01*
X38749010Y-60359524D02*
X38911081Y-60484984D01*
X38911081Y-60484984D02*
X39144591Y-60519276D01*
X39144591Y-60519276D02*
X39382787Y-60536649D01*
X39382787Y-60536649D02*
X39650532Y-60554313D01*
X38637370Y-59654131D02*
X38482503Y-59784090D01*
X38482503Y-59784090D02*
X38489891Y-60007482D01*
X38489891Y-60007482D02*
X38608897Y-60197149D01*
X38608897Y-60197149D02*
X38749010Y-60359524D01*
X39745361Y-59660030D02*
X39544362Y-59643575D01*
X39544362Y-59643575D02*
X39338614Y-59629499D01*
X39338614Y-59629499D02*
X39138482Y-59619737D01*
X39138482Y-59619737D02*
X38989167Y-59616503D01*
X40339485Y-59694336D02*
X40134642Y-59689565D01*
X40134642Y-59689565D02*
X39912284Y-59673966D01*
X39912284Y-59673966D02*
X39745361Y-59660030D01*
X40550631Y-59707830D02*
X40346550Y-59693862D01*
X40346550Y-59693862D02*
X40339485Y-59694336D01*
X40924661Y-59718405D02*
X40718658Y-59735720D01*
X40718658Y-59735720D02*
X40550631Y-59707830D01*
X41053111Y-59716847D02*
X40924661Y-59718405D01*
X41455271Y-59792646D02*
X41243389Y-59774282D01*
X41243389Y-59774282D02*
X41053111Y-59716847D01*
X43744257Y-59996658D02*
X43524369Y-59976232D01*
X43524369Y-59976232D02*
X43315479Y-59956896D01*
X43315479Y-59956896D02*
X43022411Y-59929905D01*
X43022411Y-59929905D02*
X42753177Y-59905286D01*
X42753177Y-59905286D02*
X42507234Y-59882992D01*
X42507234Y-59882992D02*
X42284036Y-59862973D01*
X42284036Y-59862973D02*
X42083037Y-59845181D01*
X42083037Y-59845181D02*
X41848629Y-59824840D01*
X41848629Y-59824840D02*
X41607786Y-59804688D01*
X41607786Y-59804688D02*
X41455271Y-59792646D01*
X46992788Y-60235789D02*
X46758899Y-60242082D01*
X46758899Y-60242082D02*
X46502249Y-60229065D01*
X46502249Y-60229065D02*
X46247047Y-60212114D01*
X46247047Y-60212114D02*
X46046593Y-60197357D01*
X46046593Y-60197357D02*
X45821601Y-60179814D01*
X45821601Y-60179814D02*
X45571827Y-60159468D01*
X45571827Y-60159468D02*
X45297029Y-60136301D01*
X45297029Y-60136301D02*
X44996965Y-60110294D01*
X44996965Y-60110294D02*
X44671390Y-60081431D01*
X44671390Y-60081431D02*
X44320064Y-60049693D01*
X44320064Y-60049693D02*
X43942742Y-60015063D01*
X43942742Y-60015063D02*
X43744257Y-59996658D01*
X47149639Y-60051983D02*
X47020437Y-60208886D01*
X47020437Y-60208886D02*
X46992788Y-60235789D01*
X47361666Y-59793393D02*
X47229721Y-59950863D01*
X47229721Y-59950863D02*
X47149639Y-60051983D01*
X47719157Y-59213771D02*
X47618863Y-59397322D01*
X47618863Y-59397322D02*
X47518579Y-59572814D01*
X47518579Y-59572814D02*
X47402179Y-59745840D01*
X47402179Y-59745840D02*
X47361666Y-59793393D01*
X48225365Y-58424713D02*
X48098119Y-58584058D01*
X48098119Y-58584058D02*
X47982485Y-58755259D01*
X47982485Y-58755259D02*
X47870200Y-58942154D01*
X47870200Y-58942154D02*
X47759756Y-59139181D01*
X47759756Y-59139181D02*
X47719157Y-59213771D01*
X48240413Y-58013844D02*
X48343435Y-58189656D01*
X48343435Y-58189656D02*
X48264509Y-58375582D01*
X48264509Y-58375582D02*
X48225365Y-58424713D01*
X47899394Y-57196176D02*
X47929955Y-57396435D01*
X47929955Y-57396435D02*
X47968251Y-57595972D01*
X47968251Y-57595972D02*
X48028216Y-57795316D01*
X48028216Y-57795316D02*
X48143905Y-57959330D01*
X48143905Y-57959330D02*
X48240413Y-58013844D01*
X47525160Y-56297351D02*
X47717574Y-56385765D01*
X47717574Y-56385765D02*
X47801505Y-56601400D01*
X47801505Y-56601400D02*
X47842727Y-56817196D01*
X47842727Y-56817196D02*
X47878961Y-57053690D01*
X47878961Y-57053690D02*
X47899394Y-57196176D01*
X46854374Y-55532092D02*
X46818349Y-55743174D01*
X46818349Y-55743174D02*
X46901071Y-55948515D01*
X46901071Y-55948515D02*
X47051984Y-56103396D01*
X47051984Y-56103396D02*
X47224956Y-56207061D01*
X47224956Y-56207061D02*
X47433407Y-56279144D01*
X47433407Y-56279144D02*
X47525160Y-56297351D01*
X47202917Y-55201295D02*
X47032107Y-55323976D01*
X47032107Y-55323976D02*
X46888885Y-55478473D01*
X46888885Y-55478473D02*
X46854374Y-55532092D01*
X47339162Y-55125969D02*
X47202917Y-55201295D01*
X47656457Y-55055457D02*
X47449070Y-55060138D01*
X47449070Y-55060138D02*
X47339162Y-55125969D01*
X48001747Y-55766205D02*
X47997924Y-55559425D01*
X47997924Y-55559425D02*
X47928769Y-55350777D01*
X47928769Y-55350777D02*
X47809780Y-55172155D01*
X47809780Y-55172155D02*
X47656457Y-55055457D01*
X48059024Y-56079238D02*
X47980973Y-55893247D01*
X47980973Y-55893247D02*
X48001747Y-55766205D01*
X48300266Y-56547533D02*
X48223757Y-56358196D01*
X48223757Y-56358196D02*
X48128345Y-56179887D01*
X48128345Y-56179887D02*
X48059024Y-56079238D01*
X48412516Y-56718932D02*
X48300266Y-56547533D01*
X48440443Y-56584416D02*
X48412516Y-56718932D01*
X48546795Y-56261553D02*
X48420061Y-56419972D01*
X48420061Y-56419972D02*
X48440443Y-56584416D01*
X48710086Y-56042558D02*
X48590241Y-56214070D01*
X48590241Y-56214070D02*
X48546795Y-56261553D01*
X48775023Y-55912653D02*
X48710086Y-56042558D01*
X48682973Y-55405848D02*
X48789939Y-55579498D01*
X48789939Y-55579498D02*
X48813962Y-55794745D01*
X48813962Y-55794745D02*
X48775023Y-55912653D01*
X48519750Y-55397237D02*
X48682973Y-55405848D01*
X48241159Y-55290113D02*
X48395558Y-55424559D01*
X48395558Y-55424559D02*
X48519750Y-55397237D01*
X48111150Y-55118579D02*
X48234824Y-55280475D01*
X48234824Y-55280475D02*
X48241159Y-55290113D01*
X48026556Y-55000065D02*
X48111150Y-55118579D01*
X47939657Y-54899517D02*
X48026556Y-55000065D01*
X47894039Y-54738085D02*
X47939657Y-54899517D01*
X47784840Y-54585332D02*
X47894039Y-54738085D01*
X47491065Y-54449664D02*
X47661236Y-54557631D01*
X47661236Y-54557631D02*
X47784840Y-54585332D01*
X47273073Y-54262400D02*
X47428979Y-54390791D01*
X47428979Y-54390791D02*
X47491065Y-54449664D01*
X46871184Y-53947604D02*
X47028452Y-54072490D01*
X47028452Y-54072490D02*
X47187851Y-54197153D01*
X47187851Y-54197153D02*
X47273073Y-54262400D01*
X46461161Y-53659386D02*
X46632772Y-53765815D01*
X46632772Y-53765815D02*
X46801937Y-53892722D01*
X46801937Y-53892722D02*
X46871184Y-53947604D01*
X46058797Y-53323708D02*
X46196084Y-53472771D01*
X46196084Y-53472771D02*
X46362474Y-53603204D01*
X46362474Y-53603204D02*
X46461161Y-53659386D01*
X45872189Y-53161191D02*
X46029579Y-53289853D01*
X46029579Y-53289853D02*
X46058797Y-53323708D01*
X45709034Y-52858600D02*
X45731958Y-53066116D01*
X45731958Y-53066116D02*
X45872189Y-53161191D01*
X45714524Y-52749577D02*
X45709034Y-52858600D01*
X46207718Y-52704016D02*
X46011448Y-52640818D01*
X46011448Y-52640818D02*
X45801347Y-52592756D01*
X45801347Y-52592756D02*
X45714524Y-52749577D01*
X46465838Y-52664556D02*
X46244586Y-52716511D01*
X46244586Y-52716511D02*
X46207718Y-52704016D01*
X46065237Y-51806207D02*
X46069702Y-52020000D01*
X46069702Y-52020000D02*
X46153036Y-52217129D01*
X46153036Y-52217129D02*
X46266001Y-52406129D01*
X46266001Y-52406129D02*
X46385038Y-52568352D01*
X46385038Y-52568352D02*
X46465838Y-52664556D01*
X46659292Y-51498666D02*
X46450532Y-51547949D01*
X46450532Y-51547949D02*
X46264516Y-51624946D01*
X46264516Y-51624946D02*
X46105161Y-51751232D01*
X46105161Y-51751232D02*
X46065237Y-51806207D01*
D12*
%TO.C,G\u002A\u002A\u002A*%
G36*
X54655333Y-45073295D02*
G01*
X54614175Y-45076182D01*
X54495402Y-45078910D01*
X54306064Y-45081438D01*
X54053213Y-45083721D01*
X53743900Y-45085718D01*
X53385176Y-45087384D01*
X52984093Y-45088677D01*
X52547702Y-45089553D01*
X52083053Y-45089970D01*
X51939935Y-45089996D01*
X51939935Y-44412496D01*
X51894203Y-44338496D01*
X51878951Y-44325055D01*
X51797924Y-44295428D01*
X51706592Y-44339097D01*
X51597434Y-44459730D01*
X51594407Y-44463769D01*
X51543590Y-44573096D01*
X51545892Y-44673030D01*
X51596613Y-44738710D01*
X51648756Y-44751333D01*
X51724588Y-44720757D01*
X51815040Y-44644908D01*
X51836403Y-44621085D01*
X51921494Y-44500953D01*
X51939935Y-44412496D01*
X51939935Y-45089996D01*
X51920304Y-45090000D01*
X51371189Y-45089893D01*
X50900771Y-45089467D01*
X50503081Y-45088562D01*
X50172149Y-45087018D01*
X49902005Y-45084674D01*
X49686681Y-45081372D01*
X49520207Y-45076951D01*
X49396613Y-45071251D01*
X49309929Y-45064113D01*
X49254187Y-45055376D01*
X49223417Y-45044881D01*
X49211650Y-45032468D01*
X49212915Y-45017977D01*
X49213097Y-45017497D01*
X49239364Y-44966746D01*
X49301590Y-44853999D01*
X49393323Y-44690541D01*
X49508111Y-44487654D01*
X49639503Y-44256623D01*
X49781046Y-44008730D01*
X49926288Y-43755259D01*
X50068778Y-43507493D01*
X50202064Y-43276716D01*
X50319693Y-43074211D01*
X50415214Y-42911262D01*
X50471282Y-42817122D01*
X50552767Y-42682077D01*
X50699050Y-42768387D01*
X50791141Y-42827668D01*
X50841890Y-42869947D01*
X50845333Y-42876727D01*
X50824959Y-42921380D01*
X50771562Y-43017199D01*
X50697167Y-43142666D01*
X50614213Y-43292324D01*
X50568304Y-43421624D01*
X50557260Y-43555797D01*
X50578897Y-43720073D01*
X50628942Y-43931641D01*
X50678430Y-44114881D01*
X50717622Y-44230915D01*
X50755563Y-44294965D01*
X50801298Y-44322253D01*
X50863874Y-44327999D01*
X50864469Y-44328000D01*
X50951813Y-44353572D01*
X50988971Y-44394962D01*
X51012345Y-44474047D01*
X51002352Y-44489943D01*
X50968942Y-44444416D01*
X50896568Y-44382527D01*
X50845432Y-44370333D01*
X50792915Y-44380744D01*
X50787911Y-44427933D01*
X50807911Y-44493223D01*
X50867143Y-44609424D01*
X50932708Y-44690284D01*
X50992680Y-44738402D01*
X51013749Y-44720716D01*
X51017350Y-44662644D01*
X51020033Y-44560833D01*
X51061137Y-44663700D01*
X51096800Y-44733107D01*
X51134885Y-44730768D01*
X51167534Y-44701275D01*
X51231877Y-44586895D01*
X51259167Y-44432759D01*
X51246642Y-44276520D01*
X51206092Y-44175305D01*
X51152818Y-44035938D01*
X51125963Y-43819430D01*
X51123558Y-43761661D01*
X51123063Y-43589053D01*
X51138418Y-43469556D01*
X51176016Y-43372143D01*
X51218378Y-43301416D01*
X51286979Y-43205780D01*
X51339186Y-43149230D01*
X51351903Y-43142666D01*
X51406285Y-43166382D01*
X51393986Y-43231353D01*
X51328300Y-43316035D01*
X51266318Y-43393312D01*
X51230595Y-43481193D01*
X51212713Y-43607737D01*
X51206774Y-43721137D01*
X51206944Y-43880065D01*
X51217775Y-44013088D01*
X51235769Y-44088095D01*
X51269308Y-44140103D01*
X51307941Y-44133251D01*
X51360198Y-44088953D01*
X51407022Y-44032100D01*
X51426132Y-43958500D01*
X51418013Y-43848412D01*
X51383147Y-43682094D01*
X51371356Y-43633653D01*
X51368867Y-43537210D01*
X51394260Y-43425920D01*
X51437085Y-43325034D01*
X51486889Y-43259800D01*
X51529132Y-43252495D01*
X51535422Y-43298898D01*
X51501954Y-43366531D01*
X51456068Y-43477178D01*
X51439998Y-43612602D01*
X51454164Y-43737814D01*
X51496556Y-43815896D01*
X51553954Y-43834019D01*
X51585493Y-43779526D01*
X51587801Y-43661430D01*
X51579235Y-43594989D01*
X51574048Y-43491098D01*
X51592375Y-43427964D01*
X51596552Y-43424496D01*
X51622352Y-43437932D01*
X51621382Y-43493197D01*
X51624568Y-43594270D01*
X51643931Y-43645506D01*
X51697444Y-43683956D01*
X51742172Y-43656935D01*
X51757897Y-43582861D01*
X51752225Y-43546857D01*
X51750339Y-43450985D01*
X51799902Y-43419414D01*
X51885624Y-43457216D01*
X51925452Y-43493409D01*
X51928549Y-43533066D01*
X51887658Y-43595149D01*
X51795517Y-43698618D01*
X51791546Y-43702927D01*
X51648790Y-43866070D01*
X51556344Y-43998108D01*
X51500930Y-44123840D01*
X51469271Y-44268066D01*
X51462573Y-44317416D01*
X51451538Y-44461649D01*
X51465411Y-44525676D01*
X51506106Y-44510775D01*
X51575533Y-44418223D01*
X51586833Y-44400452D01*
X51690638Y-44289134D01*
X51807961Y-44250189D01*
X51922735Y-44287885D01*
X51944484Y-44305461D01*
X51987665Y-44336557D01*
X52029803Y-44334558D01*
X52087071Y-44289817D01*
X52175641Y-44192687D01*
X52219871Y-44141204D01*
X52329653Y-44021885D01*
X52429262Y-43929424D01*
X52497877Y-43883061D01*
X52499929Y-43882358D01*
X52556390Y-43890986D01*
X52668529Y-43936906D01*
X52839716Y-44021846D01*
X53073319Y-44147539D01*
X53372705Y-44315712D01*
X53618051Y-44456646D01*
X53885438Y-44611864D01*
X54127271Y-44753335D01*
X54334305Y-44875564D01*
X54497299Y-44973056D01*
X54607010Y-45040316D01*
X54654193Y-45071851D01*
X54655333Y-45073295D01*
G37*
X54655333Y-45073295D02*
X54614175Y-45076182D01*
X54495402Y-45078910D01*
X54306064Y-45081438D01*
X54053213Y-45083721D01*
X53743900Y-45085718D01*
X53385176Y-45087384D01*
X52984093Y-45088677D01*
X52547702Y-45089553D01*
X52083053Y-45089970D01*
X51939935Y-45089996D01*
X51939935Y-44412496D01*
X51894203Y-44338496D01*
X51878951Y-44325055D01*
X51797924Y-44295428D01*
X51706592Y-44339097D01*
X51597434Y-44459730D01*
X51594407Y-44463769D01*
X51543590Y-44573096D01*
X51545892Y-44673030D01*
X51596613Y-44738710D01*
X51648756Y-44751333D01*
X51724588Y-44720757D01*
X51815040Y-44644908D01*
X51836403Y-44621085D01*
X51921494Y-44500953D01*
X51939935Y-44412496D01*
X51939935Y-45089996D01*
X51920304Y-45090000D01*
X51371189Y-45089893D01*
X50900771Y-45089467D01*
X50503081Y-45088562D01*
X50172149Y-45087018D01*
X49902005Y-45084674D01*
X49686681Y-45081372D01*
X49520207Y-45076951D01*
X49396613Y-45071251D01*
X49309929Y-45064113D01*
X49254187Y-45055376D01*
X49223417Y-45044881D01*
X49211650Y-45032468D01*
X49212915Y-45017977D01*
X49213097Y-45017497D01*
X49239364Y-44966746D01*
X49301590Y-44853999D01*
X49393323Y-44690541D01*
X49508111Y-44487654D01*
X49639503Y-44256623D01*
X49781046Y-44008730D01*
X49926288Y-43755259D01*
X50068778Y-43507493D01*
X50202064Y-43276716D01*
X50319693Y-43074211D01*
X50415214Y-42911262D01*
X50471282Y-42817122D01*
X50552767Y-42682077D01*
X50699050Y-42768387D01*
X50791141Y-42827668D01*
X50841890Y-42869947D01*
X50845333Y-42876727D01*
X50824959Y-42921380D01*
X50771562Y-43017199D01*
X50697167Y-43142666D01*
X50614213Y-43292324D01*
X50568304Y-43421624D01*
X50557260Y-43555797D01*
X50578897Y-43720073D01*
X50628942Y-43931641D01*
X50678430Y-44114881D01*
X50717622Y-44230915D01*
X50755563Y-44294965D01*
X50801298Y-44322253D01*
X50863874Y-44327999D01*
X50864469Y-44328000D01*
X50951813Y-44353572D01*
X50988971Y-44394962D01*
X51012345Y-44474047D01*
X51002352Y-44489943D01*
X50968942Y-44444416D01*
X50896568Y-44382527D01*
X50845432Y-44370333D01*
X50792915Y-44380744D01*
X50787911Y-44427933D01*
X50807911Y-44493223D01*
X50867143Y-44609424D01*
X50932708Y-44690284D01*
X50992680Y-44738402D01*
X51013749Y-44720716D01*
X51017350Y-44662644D01*
X51020033Y-44560833D01*
X51061137Y-44663700D01*
X51096800Y-44733107D01*
X51134885Y-44730768D01*
X51167534Y-44701275D01*
X51231877Y-44586895D01*
X51259167Y-44432759D01*
X51246642Y-44276520D01*
X51206092Y-44175305D01*
X51152818Y-44035938D01*
X51125963Y-43819430D01*
X51123558Y-43761661D01*
X51123063Y-43589053D01*
X51138418Y-43469556D01*
X51176016Y-43372143D01*
X51218378Y-43301416D01*
X51286979Y-43205780D01*
X51339186Y-43149230D01*
X51351903Y-43142666D01*
X51406285Y-43166382D01*
X51393986Y-43231353D01*
X51328300Y-43316035D01*
X51266318Y-43393312D01*
X51230595Y-43481193D01*
X51212713Y-43607737D01*
X51206774Y-43721137D01*
X51206944Y-43880065D01*
X51217775Y-44013088D01*
X51235769Y-44088095D01*
X51269308Y-44140103D01*
X51307941Y-44133251D01*
X51360198Y-44088953D01*
X51407022Y-44032100D01*
X51426132Y-43958500D01*
X51418013Y-43848412D01*
X51383147Y-43682094D01*
X51371356Y-43633653D01*
X51368867Y-43537210D01*
X51394260Y-43425920D01*
X51437085Y-43325034D01*
X51486889Y-43259800D01*
X51529132Y-43252495D01*
X51535422Y-43298898D01*
X51501954Y-43366531D01*
X51456068Y-43477178D01*
X51439998Y-43612602D01*
X51454164Y-43737814D01*
X51496556Y-43815896D01*
X51553954Y-43834019D01*
X51585493Y-43779526D01*
X51587801Y-43661430D01*
X51579235Y-43594989D01*
X51574048Y-43491098D01*
X51592375Y-43427964D01*
X51596552Y-43424496D01*
X51622352Y-43437932D01*
X51621382Y-43493197D01*
X51624568Y-43594270D01*
X51643931Y-43645506D01*
X51697444Y-43683956D01*
X51742172Y-43656935D01*
X51757897Y-43582861D01*
X51752225Y-43546857D01*
X51750339Y-43450985D01*
X51799902Y-43419414D01*
X51885624Y-43457216D01*
X51925452Y-43493409D01*
X51928549Y-43533066D01*
X51887658Y-43595149D01*
X51795517Y-43698618D01*
X51791546Y-43702927D01*
X51648790Y-43866070D01*
X51556344Y-43998108D01*
X51500930Y-44123840D01*
X51469271Y-44268066D01*
X51462573Y-44317416D01*
X51451538Y-44461649D01*
X51465411Y-44525676D01*
X51506106Y-44510775D01*
X51575533Y-44418223D01*
X51586833Y-44400452D01*
X51690638Y-44289134D01*
X51807961Y-44250189D01*
X51922735Y-44287885D01*
X51944484Y-44305461D01*
X51987665Y-44336557D01*
X52029803Y-44334558D01*
X52087071Y-44289817D01*
X52175641Y-44192687D01*
X52219871Y-44141204D01*
X52329653Y-44021885D01*
X52429262Y-43929424D01*
X52497877Y-43883061D01*
X52499929Y-43882358D01*
X52556390Y-43890986D01*
X52668529Y-43936906D01*
X52839716Y-44021846D01*
X53073319Y-44147539D01*
X53372705Y-44315712D01*
X53618051Y-44456646D01*
X53885438Y-44611864D01*
X54127271Y-44753335D01*
X54334305Y-44875564D01*
X54497299Y-44973056D01*
X54607010Y-45040316D01*
X54654193Y-45071851D01*
X54655333Y-45073295D01*
G36*
X54898113Y-44522664D02*
G01*
X54859838Y-44505633D01*
X54758427Y-44451501D01*
X54603868Y-44365851D01*
X54406147Y-44254261D01*
X54175252Y-44122313D01*
X53977049Y-44007983D01*
X53727218Y-43861960D01*
X53503629Y-43728695D01*
X53316179Y-43614301D01*
X53174770Y-43524889D01*
X53089299Y-43466571D01*
X53067833Y-43446623D01*
X53094453Y-43404233D01*
X53165664Y-43317652D01*
X53268493Y-43200775D01*
X53389970Y-43067501D01*
X53517122Y-42931726D01*
X53636976Y-42807348D01*
X53736560Y-42708264D01*
X53802903Y-42648371D01*
X53823053Y-42637544D01*
X53853482Y-42684703D01*
X53917261Y-42791449D01*
X54007610Y-42945896D01*
X54117751Y-43136158D01*
X54240905Y-43350346D01*
X54370292Y-43576573D01*
X54499134Y-43802954D01*
X54620650Y-44017599D01*
X54728064Y-44208623D01*
X54814594Y-44364139D01*
X54873462Y-44472258D01*
X54897889Y-44521094D01*
X54898113Y-44522664D01*
G37*
X54898113Y-44522664D02*
X54859838Y-44505633D01*
X54758427Y-44451501D01*
X54603868Y-44365851D01*
X54406147Y-44254261D01*
X54175252Y-44122313D01*
X53977049Y-44007983D01*
X53727218Y-43861960D01*
X53503629Y-43728695D01*
X53316179Y-43614301D01*
X53174770Y-43524889D01*
X53089299Y-43466571D01*
X53067833Y-43446623D01*
X53094453Y-43404233D01*
X53165664Y-43317652D01*
X53268493Y-43200775D01*
X53389970Y-43067501D01*
X53517122Y-42931726D01*
X53636976Y-42807348D01*
X53736560Y-42708264D01*
X53802903Y-42648371D01*
X53823053Y-42637544D01*
X53853482Y-42684703D01*
X53917261Y-42791449D01*
X54007610Y-42945896D01*
X54117751Y-43136158D01*
X54240905Y-43350346D01*
X54370292Y-43576573D01*
X54499134Y-43802954D01*
X54620650Y-44017599D01*
X54728064Y-44208623D01*
X54814594Y-44364139D01*
X54873462Y-44472258D01*
X54897889Y-44521094D01*
X54898113Y-44522664D01*
G36*
X51692000Y-43333166D02*
G01*
X51670833Y-43354333D01*
X51649667Y-43333166D01*
X51670833Y-43312000D01*
X51692000Y-43333166D01*
G37*
X51692000Y-43333166D02*
X51670833Y-43354333D01*
X51649667Y-43333166D01*
X51670833Y-43312000D01*
X51692000Y-43333166D01*
G36*
X53202318Y-41638055D02*
G01*
X53194146Y-41669662D01*
X53172310Y-41691920D01*
X53163955Y-41697967D01*
X52979357Y-41794157D01*
X52712536Y-41881504D01*
X52362689Y-41960245D01*
X52140482Y-41999027D01*
X51871059Y-42044366D01*
X51670540Y-42084452D01*
X51523759Y-42124071D01*
X51415550Y-42168006D01*
X51330748Y-42221044D01*
X51268667Y-42274092D01*
X51162833Y-42373798D01*
X51001358Y-42290156D01*
X50905655Y-42231101D01*
X50855474Y-42181252D01*
X50853192Y-42168017D01*
X50879409Y-42115816D01*
X50941096Y-42003482D01*
X51032068Y-41841692D01*
X51146143Y-41641121D01*
X51277137Y-41412446D01*
X51418867Y-41166342D01*
X51565149Y-40913487D01*
X51709800Y-40664556D01*
X51846636Y-40430226D01*
X51969474Y-40221171D01*
X52072131Y-40048070D01*
X52148422Y-39921597D01*
X52192165Y-39852429D01*
X52200000Y-39842653D01*
X52225979Y-39877676D01*
X52287779Y-39976370D01*
X52379449Y-40128758D01*
X52495041Y-40324865D01*
X52628605Y-40554714D01*
X52735239Y-40740178D01*
X52894985Y-41019845D01*
X53016516Y-41235316D01*
X53103923Y-41395731D01*
X53161298Y-41510231D01*
X53192732Y-41587959D01*
X53202318Y-41638055D01*
G37*
X53202318Y-41638055D02*
X53194146Y-41669662D01*
X53172310Y-41691920D01*
X53163955Y-41697967D01*
X52979357Y-41794157D01*
X52712536Y-41881504D01*
X52362689Y-41960245D01*
X52140482Y-41999027D01*
X51871059Y-42044366D01*
X51670540Y-42084452D01*
X51523759Y-42124071D01*
X51415550Y-42168006D01*
X51330748Y-42221044D01*
X51268667Y-42274092D01*
X51162833Y-42373798D01*
X51001358Y-42290156D01*
X50905655Y-42231101D01*
X50855474Y-42181252D01*
X50853192Y-42168017D01*
X50879409Y-42115816D01*
X50941096Y-42003482D01*
X51032068Y-41841692D01*
X51146143Y-41641121D01*
X51277137Y-41412446D01*
X51418867Y-41166342D01*
X51565149Y-40913487D01*
X51709800Y-40664556D01*
X51846636Y-40430226D01*
X51969474Y-40221171D01*
X52072131Y-40048070D01*
X52148422Y-39921597D01*
X52192165Y-39852429D01*
X52200000Y-39842653D01*
X52225979Y-39877676D01*
X52287779Y-39976370D01*
X52379449Y-40128758D01*
X52495041Y-40324865D01*
X52628605Y-40554714D01*
X52735239Y-40740178D01*
X52894985Y-41019845D01*
X53016516Y-41235316D01*
X53103923Y-41395731D01*
X53161298Y-41510231D01*
X53192732Y-41587959D01*
X53202318Y-41638055D01*
D13*
%TO.C,LOGO_PB_FREE_8MM*%
X67300000Y-57450000D02*
X70050000Y-60200000D01*
X67300000Y-57450000D02*
X64550000Y-54700000D01*
X71300000Y-57450000D02*
G75*
G03*
X71300000Y-57450000I-4000000J0D01*
G01*
%TO.C,FL1*%
D14*
X51561904Y-37392371D02*
X51228571Y-37392371D01*
X51228571Y-37916180D02*
X51228571Y-36916180D01*
X51704761Y-36916180D01*
X52561904Y-37916180D02*
X52085714Y-37916180D01*
X52085714Y-36916180D01*
X53419047Y-37916180D02*
X52847619Y-37916180D01*
X53133333Y-37916180D02*
X53133333Y-36916180D01*
X53038095Y-37059038D01*
X52942857Y-37154276D01*
X52847619Y-37201895D01*
%TO.C,LOGO_PB_FREE_8MM*%
D15*
X65157142Y-58807142D02*
X65157142Y-55807142D01*
X66300000Y-55807142D01*
X66585714Y-55950000D01*
X66728571Y-56092857D01*
X66871428Y-56378571D01*
X66871428Y-56807142D01*
X66728571Y-57092857D01*
X66585714Y-57235714D01*
X66300000Y-57378571D01*
X65157142Y-57378571D01*
X68157142Y-58807142D02*
X68157142Y-55807142D01*
X68157142Y-56950000D02*
X68442857Y-56807142D01*
X69014285Y-56807142D01*
X69300000Y-56950000D01*
X69442857Y-57092857D01*
X69585714Y-57378571D01*
X69585714Y-58235714D01*
X69442857Y-58521428D01*
X69300000Y-58664285D01*
X69014285Y-58807142D01*
X68442857Y-58807142D01*
X68157142Y-58664285D01*
%TO.C,D3*%
D14*
X42142380Y-47178095D02*
X41142380Y-47178095D01*
X41142380Y-46940000D01*
X41190000Y-46797142D01*
X41285238Y-46701904D01*
X41380476Y-46654285D01*
X41570952Y-46606666D01*
X41713809Y-46606666D01*
X41904285Y-46654285D01*
X41999523Y-46701904D01*
X42094761Y-46797142D01*
X42142380Y-46940000D01*
X42142380Y-47178095D01*
X41142380Y-46273333D02*
X41142380Y-45654285D01*
X41523333Y-45987619D01*
X41523333Y-45844761D01*
X41570952Y-45749523D01*
X41618571Y-45701904D01*
X41713809Y-45654285D01*
X41951904Y-45654285D01*
X42047142Y-45701904D01*
X42094761Y-45749523D01*
X42142380Y-45844761D01*
X42142380Y-46130476D01*
X42094761Y-46225714D01*
X42047142Y-46273333D01*
%TO.C,D2*%
X62642380Y-32198095D02*
X61642380Y-32198095D01*
X61642380Y-31960000D01*
X61690000Y-31817142D01*
X61785238Y-31721904D01*
X61880476Y-31674285D01*
X62070952Y-31626666D01*
X62213809Y-31626666D01*
X62404285Y-31674285D01*
X62499523Y-31721904D01*
X62594761Y-31817142D01*
X62642380Y-31960000D01*
X62642380Y-32198095D01*
X61737619Y-31245714D02*
X61690000Y-31198095D01*
X61642380Y-31102857D01*
X61642380Y-30864761D01*
X61690000Y-30769523D01*
X61737619Y-30721904D01*
X61832857Y-30674285D01*
X61928095Y-30674285D01*
X62070952Y-30721904D01*
X62642380Y-31293333D01*
X62642380Y-30674285D01*
%TO.C,D1*%
X38652380Y-32178095D02*
X37652380Y-32178095D01*
X37652380Y-31940000D01*
X37700000Y-31797142D01*
X37795238Y-31701904D01*
X37890476Y-31654285D01*
X38080952Y-31606666D01*
X38223809Y-31606666D01*
X38414285Y-31654285D01*
X38509523Y-31701904D01*
X38604761Y-31797142D01*
X38652380Y-31940000D01*
X38652380Y-32178095D01*
X38652380Y-30654285D02*
X38652380Y-31225714D01*
X38652380Y-30940000D02*
X37652380Y-30940000D01*
X37795238Y-31035238D01*
X37890476Y-31130476D01*
X37938095Y-31225714D01*
%TO.C,J6*%
X26478571Y-65500000D02*
X27550000Y-65500000D01*
X27764285Y-65571428D01*
X27907142Y-65714285D01*
X27978571Y-65928571D01*
X27978571Y-66071428D01*
X26478571Y-64142857D02*
X26478571Y-64428571D01*
X26550000Y-64571428D01*
X26621428Y-64642857D01*
X26835714Y-64785714D01*
X27121428Y-64857142D01*
X27692857Y-64857142D01*
X27835714Y-64785714D01*
X27907142Y-64714285D01*
X27978571Y-64571428D01*
X27978571Y-64285714D01*
X27907142Y-64142857D01*
X27835714Y-64071428D01*
X27692857Y-64000000D01*
X27335714Y-64000000D01*
X27192857Y-64071428D01*
X27121428Y-64142857D01*
X27050000Y-64285714D01*
X27050000Y-64571428D01*
X27121428Y-64714285D01*
X27192857Y-64785714D01*
X27335714Y-64857142D01*
%TO.C,J5*%
X77878571Y-65500000D02*
X78950000Y-65500000D01*
X79164285Y-65571428D01*
X79307142Y-65714285D01*
X79378571Y-65928571D01*
X79378571Y-66071428D01*
X77878571Y-64071428D02*
X77878571Y-64785714D01*
X78592857Y-64857142D01*
X78521428Y-64785714D01*
X78450000Y-64642857D01*
X78450000Y-64285714D01*
X78521428Y-64142857D01*
X78592857Y-64071428D01*
X78735714Y-64000000D01*
X79092857Y-64000000D01*
X79235714Y-64071428D01*
X79307142Y-64142857D01*
X79378571Y-64285714D01*
X79378571Y-64642857D01*
X79307142Y-64785714D01*
X79235714Y-64857142D01*
%TO.C,J4*%
X77878571Y-50500000D02*
X78950000Y-50500000D01*
X79164285Y-50571428D01*
X79307142Y-50714285D01*
X79378571Y-50928571D01*
X79378571Y-51071428D01*
X78378571Y-49142857D02*
X79378571Y-49142857D01*
X77807142Y-49500000D02*
X78878571Y-49857142D01*
X78878571Y-48928571D01*
%TO.C,J3*%
X26578571Y-50500000D02*
X27650000Y-50500000D01*
X27864285Y-50571428D01*
X28007142Y-50714285D01*
X28078571Y-50928571D01*
X28078571Y-51071428D01*
X26578571Y-49928571D02*
X26578571Y-49000000D01*
X27150000Y-49500000D01*
X27150000Y-49285714D01*
X27221428Y-49142857D01*
X27292857Y-49071428D01*
X27435714Y-49000000D01*
X27792857Y-49000000D01*
X27935714Y-49071428D01*
X28007142Y-49142857D01*
X28078571Y-49285714D01*
X28078571Y-49714285D01*
X28007142Y-49857142D01*
X27935714Y-49928571D01*
%TO.C,C3*%
X60783333Y-48957142D02*
X60735714Y-49004761D01*
X60592857Y-49052380D01*
X60497619Y-49052380D01*
X60354761Y-49004761D01*
X60259523Y-48909523D01*
X60211904Y-48814285D01*
X60164285Y-48623809D01*
X60164285Y-48480952D01*
X60211904Y-48290476D01*
X60259523Y-48195238D01*
X60354761Y-48100000D01*
X60497619Y-48052380D01*
X60592857Y-48052380D01*
X60735714Y-48100000D01*
X60783333Y-48147619D01*
X61116666Y-48052380D02*
X61735714Y-48052380D01*
X61402380Y-48433333D01*
X61545238Y-48433333D01*
X61640476Y-48480952D01*
X61688095Y-48528571D01*
X61735714Y-48623809D01*
X61735714Y-48861904D01*
X61688095Y-48957142D01*
X61640476Y-49004761D01*
X61545238Y-49052380D01*
X61259523Y-49052380D01*
X61164285Y-49004761D01*
X61116666Y-48957142D01*
%TO.C,J2*%
X77878571Y-35500000D02*
X78950000Y-35500000D01*
X79164285Y-35571428D01*
X79307142Y-35714285D01*
X79378571Y-35928571D01*
X79378571Y-36071428D01*
X78021428Y-34857142D02*
X77950000Y-34785714D01*
X77878571Y-34642857D01*
X77878571Y-34285714D01*
X77950000Y-34142857D01*
X78021428Y-34071428D01*
X78164285Y-34000000D01*
X78307142Y-34000000D01*
X78521428Y-34071428D01*
X79378571Y-34928571D01*
X79378571Y-34000000D01*
%TO.C,J1*%
X26578571Y-35500000D02*
X27650000Y-35500000D01*
X27864285Y-35571428D01*
X28007142Y-35714285D01*
X28078571Y-35928571D01*
X28078571Y-36071428D01*
X28078571Y-34000000D02*
X28078571Y-34857142D01*
X28078571Y-34428571D02*
X26578571Y-34428571D01*
X26792857Y-34571428D01*
X26935714Y-34714285D01*
X27007142Y-34857142D01*
%TO.C,C2*%
X58283333Y-33957142D02*
X58235714Y-34004761D01*
X58092857Y-34052380D01*
X57997619Y-34052380D01*
X57854761Y-34004761D01*
X57759523Y-33909523D01*
X57711904Y-33814285D01*
X57664285Y-33623809D01*
X57664285Y-33480952D01*
X57711904Y-33290476D01*
X57759523Y-33195238D01*
X57854761Y-33100000D01*
X57997619Y-33052380D01*
X58092857Y-33052380D01*
X58235714Y-33100000D01*
X58283333Y-33147619D01*
X58664285Y-33147619D02*
X58711904Y-33100000D01*
X58807142Y-33052380D01*
X59045238Y-33052380D01*
X59140476Y-33100000D01*
X59188095Y-33147619D01*
X59235714Y-33242857D01*
X59235714Y-33338095D01*
X59188095Y-33480952D01*
X58616666Y-34052380D01*
X59235714Y-34052380D01*
%TO.C,C1*%
X46783333Y-33957142D02*
X46735714Y-34004761D01*
X46592857Y-34052380D01*
X46497619Y-34052380D01*
X46354761Y-34004761D01*
X46259523Y-33909523D01*
X46211904Y-33814285D01*
X46164285Y-33623809D01*
X46164285Y-33480952D01*
X46211904Y-33290476D01*
X46259523Y-33195238D01*
X46354761Y-33100000D01*
X46497619Y-33052380D01*
X46592857Y-33052380D01*
X46735714Y-33100000D01*
X46783333Y-33147619D01*
X47735714Y-34052380D02*
X47164285Y-34052380D01*
X47450000Y-34052380D02*
X47450000Y-33052380D01*
X47354761Y-33195238D01*
X47259523Y-33290476D01*
X47164285Y-33338095D01*
%TD*%
M02*
