%TF.GenerationSoftware,KiCad,Pcbnew,(5.1.8-44-gfd79c7ae46)*%
%TF.CreationDate,2021-01-02T19:49:23-07:00*%
%TF.ProjectId,egg,6567672e-6b69-4636-9164-5f7063625858,rev?*%
%TF.SameCoordinates,Original*%
%TF.FileFunction,Legend,Bot*%
%TF.FilePolarity,Positive*%
%FSLAX46Y46*%
G04 Gerber Fmt 4.6, Leading zero omitted, Abs format (unit mm)*
G04 Created by KiCad (PCBNEW (5.1.8-44-gfd79c7ae46)) date 2021-01-02 19:49:23*
%MOMM*%
%LPD*%
G01*
G04 APERTURE LIST*
%ADD10C,0.200000*%
G04 APERTURE END LIST*
D10*
%TO.C,REF\u002A\u002A*%
X56740708Y-51398666D02*
X56949467Y-51447949D01*
X56949467Y-51447949D02*
X57135483Y-51524946D01*
X57135483Y-51524946D02*
X57294838Y-51651232D01*
X57294838Y-51651232D02*
X57334763Y-51706207D01*
X57334763Y-51706207D02*
X57330297Y-51920000D01*
X57330297Y-51920000D02*
X57246963Y-52117129D01*
X57246963Y-52117129D02*
X57133998Y-52306129D01*
X57133998Y-52306129D02*
X57014961Y-52468352D01*
X57014961Y-52468352D02*
X56934162Y-52564556D01*
X56934162Y-52564556D02*
X57155413Y-52616511D01*
X57155413Y-52616511D02*
X57192282Y-52604016D01*
X57192282Y-52604016D02*
X57388551Y-52540818D01*
X57388551Y-52540818D02*
X57598652Y-52492756D01*
X57598652Y-52492756D02*
X57685476Y-52649577D01*
X57685476Y-52649577D02*
X57690966Y-52758600D01*
X57690966Y-52758600D02*
X57668041Y-52966116D01*
X57668041Y-52966116D02*
X57527811Y-53061191D01*
X57527811Y-53061191D02*
X57370420Y-53189853D01*
X57370420Y-53189853D02*
X57341203Y-53223708D01*
X57341203Y-53223708D02*
X57203915Y-53372771D01*
X57203915Y-53372771D02*
X57037525Y-53503204D01*
X57037525Y-53503204D02*
X56938839Y-53559386D01*
X56938839Y-53559386D02*
X56767228Y-53665815D01*
X56767228Y-53665815D02*
X56598062Y-53792722D01*
X56598062Y-53792722D02*
X56528816Y-53847604D01*
X56528816Y-53847604D02*
X56371547Y-53972490D01*
X56371547Y-53972490D02*
X56212148Y-54097153D01*
X56212148Y-54097153D02*
X56126927Y-54162400D01*
X56126927Y-54162400D02*
X55971020Y-54290791D01*
X55971020Y-54290791D02*
X55908935Y-54349664D01*
X55908935Y-54349664D02*
X55738763Y-54457631D01*
X55738763Y-54457631D02*
X55615160Y-54485332D01*
X55615160Y-54485332D02*
X55505961Y-54638085D01*
X55505961Y-54638085D02*
X55460343Y-54799517D01*
X55460343Y-54799517D02*
X55373444Y-54900065D01*
X55373444Y-54900065D02*
X55288850Y-55018579D01*
X55288850Y-55018579D02*
X55165175Y-55180475D01*
X55165175Y-55180475D02*
X55158841Y-55190113D01*
X55158841Y-55190113D02*
X55004441Y-55324559D01*
X55004441Y-55324559D02*
X54880250Y-55297237D01*
X54880250Y-55297237D02*
X54717027Y-55305848D01*
X54717027Y-55305848D02*
X54610060Y-55479498D01*
X54610060Y-55479498D02*
X54586037Y-55694745D01*
X54586037Y-55694745D02*
X54624977Y-55812653D01*
X54624977Y-55812653D02*
X54689914Y-55942558D01*
X54689914Y-55942558D02*
X54809758Y-56114070D01*
X54809758Y-56114070D02*
X54853205Y-56161553D01*
X54853205Y-56161553D02*
X54979938Y-56319972D01*
X54979938Y-56319972D02*
X54959557Y-56484416D01*
X54959557Y-56484416D02*
X54987484Y-56618932D01*
X54987484Y-56618932D02*
X55099734Y-56447533D01*
X55099734Y-56447533D02*
X55176242Y-56258196D01*
X55176242Y-56258196D02*
X55271654Y-56079887D01*
X55271654Y-56079887D02*
X55340976Y-55979238D01*
X55340976Y-55979238D02*
X55419026Y-55793247D01*
X55419026Y-55793247D02*
X55398253Y-55666205D01*
X55398253Y-55666205D02*
X55402075Y-55459425D01*
X55402075Y-55459425D02*
X55471230Y-55250777D01*
X55471230Y-55250777D02*
X55590219Y-55072155D01*
X55590219Y-55072155D02*
X55743543Y-54955457D01*
X55743543Y-54955457D02*
X55950929Y-54960138D01*
X55950929Y-54960138D02*
X56060838Y-55025969D01*
X56060838Y-55025969D02*
X56197083Y-55101295D01*
X56197083Y-55101295D02*
X56367892Y-55223976D01*
X56367892Y-55223976D02*
X56511114Y-55378473D01*
X56511114Y-55378473D02*
X56545626Y-55432092D01*
X56545626Y-55432092D02*
X56581650Y-55643174D01*
X56581650Y-55643174D02*
X56498928Y-55848515D01*
X56498928Y-55848515D02*
X56348015Y-56003396D01*
X56348015Y-56003396D02*
X56175043Y-56107061D01*
X56175043Y-56107061D02*
X55966592Y-56179144D01*
X55966592Y-56179144D02*
X55874840Y-56197351D01*
X55874840Y-56197351D02*
X55682425Y-56285765D01*
X55682425Y-56285765D02*
X55598494Y-56501400D01*
X55598494Y-56501400D02*
X55557272Y-56717196D01*
X55557272Y-56717196D02*
X55521038Y-56953690D01*
X55521038Y-56953690D02*
X55500606Y-57096176D01*
X55500606Y-57096176D02*
X55470044Y-57296435D01*
X55470044Y-57296435D02*
X55431748Y-57495972D01*
X55431748Y-57495972D02*
X55371783Y-57695316D01*
X55371783Y-57695316D02*
X55256094Y-57859330D01*
X55256094Y-57859330D02*
X55159587Y-57913844D01*
X55159587Y-57913844D02*
X55056564Y-58089656D01*
X55056564Y-58089656D02*
X55135490Y-58275582D01*
X55135490Y-58275582D02*
X55174635Y-58324713D01*
X55174635Y-58324713D02*
X55301880Y-58484058D01*
X55301880Y-58484058D02*
X55417514Y-58655259D01*
X55417514Y-58655259D02*
X55529799Y-58842154D01*
X55529799Y-58842154D02*
X55640243Y-59039181D01*
X55640243Y-59039181D02*
X55680843Y-59113771D01*
X55680843Y-59113771D02*
X55781136Y-59297322D01*
X55781136Y-59297322D02*
X55881420Y-59472814D01*
X55881420Y-59472814D02*
X55997820Y-59645840D01*
X55997820Y-59645840D02*
X56038334Y-59693393D01*
X56038334Y-59693393D02*
X56170278Y-59850863D01*
X56170278Y-59850863D02*
X56250361Y-59951983D01*
X56250361Y-59951983D02*
X56379562Y-60108886D01*
X56379562Y-60108886D02*
X56407212Y-60135789D01*
X56407212Y-60135789D02*
X56641100Y-60142082D01*
X56641100Y-60142082D02*
X56897750Y-60129065D01*
X56897750Y-60129065D02*
X57152952Y-60112114D01*
X57152952Y-60112114D02*
X57353406Y-60097357D01*
X57353406Y-60097357D02*
X57578398Y-60079814D01*
X57578398Y-60079814D02*
X57828172Y-60059468D01*
X57828172Y-60059468D02*
X58102970Y-60036301D01*
X58102970Y-60036301D02*
X58403034Y-60010294D01*
X58403034Y-60010294D02*
X58728609Y-59981431D01*
X58728609Y-59981431D02*
X59079935Y-59949693D01*
X59079935Y-59949693D02*
X59457257Y-59915063D01*
X59457257Y-59915063D02*
X59655743Y-59896658D01*
X59655743Y-59896658D02*
X59875630Y-59876232D01*
X59875630Y-59876232D02*
X60084520Y-59856896D01*
X60084520Y-59856896D02*
X60377588Y-59829905D01*
X60377588Y-59829905D02*
X60646822Y-59805286D01*
X60646822Y-59805286D02*
X60892765Y-59782992D01*
X60892765Y-59782992D02*
X61115963Y-59762973D01*
X61115963Y-59762973D02*
X61316962Y-59745181D01*
X61316962Y-59745181D02*
X61551370Y-59724840D01*
X61551370Y-59724840D02*
X61792213Y-59704688D01*
X61792213Y-59704688D02*
X61944729Y-59692646D01*
X61944729Y-59692646D02*
X62156610Y-59674282D01*
X62156610Y-59674282D02*
X62346889Y-59616847D01*
X62346889Y-59616847D02*
X62475339Y-59618405D01*
X62475339Y-59618405D02*
X62681341Y-59635720D01*
X62681341Y-59635720D02*
X62849369Y-59607830D01*
X62849369Y-59607830D02*
X63053449Y-59593862D01*
X63053449Y-59593862D02*
X63060515Y-59594336D01*
X63060515Y-59594336D02*
X63265357Y-59589565D01*
X63265357Y-59589565D02*
X63487715Y-59573966D01*
X63487715Y-59573966D02*
X63654639Y-59560030D01*
X63654639Y-59560030D02*
X63855637Y-59543575D01*
X63855637Y-59543575D02*
X64061385Y-59529499D01*
X64061385Y-59529499D02*
X64261517Y-59519737D01*
X64261517Y-59519737D02*
X64410833Y-59516503D01*
X64762630Y-59554131D02*
X64917496Y-59684090D01*
X64917496Y-59684090D02*
X64910108Y-59907482D01*
X64910108Y-59907482D02*
X64791102Y-60097149D01*
X64791102Y-60097149D02*
X64650990Y-60259524D01*
X64650990Y-60259524D02*
X64488918Y-60384984D01*
X64488918Y-60384984D02*
X64255408Y-60419276D01*
X64255408Y-60419276D02*
X64017212Y-60436649D01*
X64017212Y-60436649D02*
X63749468Y-60454313D01*
X63749468Y-60454313D02*
X63536172Y-60468818D01*
X63536172Y-60468818D02*
X63317280Y-60484483D01*
X63317280Y-60484483D02*
X63108257Y-60500725D01*
X63108257Y-60500725D02*
X63010558Y-60510655D01*
X63010558Y-60510655D02*
X62959918Y-60704280D01*
X62959918Y-60704280D02*
X62959856Y-60714937D01*
X62959856Y-60714937D02*
X62927627Y-60928175D01*
X62927627Y-60928175D02*
X62835027Y-61109254D01*
X62835027Y-61109254D02*
X62637681Y-61151366D01*
X62637681Y-61151366D02*
X62564203Y-61102821D01*
X62564203Y-61102821D02*
X62507739Y-61014477D01*
X64410833Y-59516503D02*
X64683323Y-59515147D01*
X64683323Y-59515147D02*
X64762630Y-59554131D01*
X62443209Y-61024851D02*
X62239726Y-61015643D01*
X62239726Y-61015643D02*
X62175667Y-60917117D01*
X62175667Y-60917117D02*
X62002068Y-60799896D01*
X62002068Y-60799896D02*
X61804141Y-60846779D01*
X61804141Y-60846779D02*
X61600998Y-60904099D01*
X61600998Y-60904099D02*
X61378995Y-60965960D01*
X61378995Y-60965960D02*
X61156076Y-61027280D01*
X61156076Y-61027280D02*
X60947028Y-61084419D01*
X60947028Y-61084419D02*
X60727268Y-61144193D01*
X60727268Y-61144193D02*
X60506601Y-61203922D01*
X60506601Y-61203922D02*
X60377842Y-61238624D01*
X60377842Y-61238624D02*
X60159576Y-61297499D01*
X60159576Y-61297499D02*
X59933117Y-61358923D01*
X59933117Y-61358923D02*
X59708711Y-61420093D01*
X59708711Y-61420093D02*
X59496604Y-61478203D01*
X59496604Y-61478203D02*
X59272735Y-61539948D01*
X59272735Y-61539948D02*
X59099036Y-61588405D01*
X59099036Y-61588405D02*
X58874650Y-61651505D01*
X58874650Y-61651505D02*
X58678316Y-61698225D01*
X58678316Y-61698225D02*
X58523565Y-61565030D01*
X58523565Y-61565030D02*
X58515012Y-61525283D01*
X58515012Y-61525283D02*
X58499130Y-61325160D01*
X58499130Y-61325160D02*
X58700646Y-61239654D01*
X58700646Y-61239654D02*
X58897976Y-61179414D01*
X58897976Y-61179414D02*
X58947268Y-61164180D01*
X58947268Y-61164180D02*
X59146388Y-61101824D01*
X59146388Y-61101824D02*
X59340125Y-61031086D01*
X59340125Y-61031086D02*
X59431786Y-60939965D01*
X59431786Y-60939965D02*
X59506212Y-60851757D01*
X59506212Y-60851757D02*
X59295952Y-60809005D01*
X59295952Y-60809005D02*
X59048648Y-60824841D01*
X59048648Y-60824841D02*
X58885111Y-60836706D01*
X58885111Y-60836706D02*
X58671647Y-60852006D01*
X58671647Y-60852006D02*
X58458460Y-60866604D01*
X58458460Y-60866604D02*
X58241785Y-60880919D01*
X58241785Y-60880919D02*
X58041817Y-60893600D01*
X58041817Y-60893600D02*
X57966236Y-60898200D01*
X57966236Y-60898200D02*
X57704711Y-60913920D01*
X57704711Y-60913920D02*
X57475187Y-60927903D01*
X57475187Y-60927903D02*
X57215905Y-60944052D01*
X57215905Y-60944052D02*
X57006248Y-60957607D01*
X57006248Y-60957607D02*
X56775732Y-60973693D01*
X56775732Y-60973693D02*
X56572374Y-60992835D01*
X56572374Y-60992835D02*
X56565623Y-60994070D01*
X56565623Y-60994070D02*
X56456423Y-61007426D01*
X56456423Y-61007426D02*
X56361797Y-61034682D01*
X56361797Y-61034682D02*
X56202641Y-61046547D01*
X56202641Y-61046547D02*
X56104152Y-61049055D01*
X56104152Y-61049055D02*
X55992986Y-61051835D01*
X55992986Y-61051835D02*
X55784866Y-61077165D01*
X55784866Y-61077165D02*
X55638817Y-61167841D01*
X55638817Y-61167841D02*
X55545988Y-61346841D01*
X55545988Y-61346841D02*
X55561883Y-61421820D01*
X55561883Y-61421820D02*
X55589945Y-61624543D01*
X55589945Y-61624543D02*
X55529658Y-61844662D01*
X55529658Y-61844662D02*
X55323809Y-61970424D01*
X55323809Y-61970424D02*
X55093095Y-62005402D01*
X55093095Y-62005402D02*
X54865600Y-62007500D01*
X54865600Y-62007500D02*
X54587879Y-61989910D01*
X54587879Y-61989910D02*
X54373251Y-61967690D01*
X54373251Y-61967690D02*
X54133935Y-61937387D01*
X54133935Y-61937387D02*
X53868986Y-61899268D01*
X53868986Y-61899268D02*
X53670560Y-61869494D01*
X53670560Y-61869494D02*
X53460631Y-61839126D01*
X53460631Y-61839126D02*
X53242895Y-61813022D01*
X53242895Y-61813022D02*
X53035790Y-61827492D01*
X53035790Y-61827492D02*
X52970650Y-61874657D01*
X52970650Y-61874657D02*
X52790935Y-61972686D01*
X52790935Y-61972686D02*
X52638917Y-61939338D01*
X52638917Y-61939338D02*
X52475335Y-62058868D01*
X52475335Y-62058868D02*
X52478744Y-62186876D01*
X52478744Y-62186876D02*
X52480391Y-62442044D01*
X52480391Y-62442044D02*
X52468384Y-62665179D01*
X52468384Y-62665179D02*
X52434479Y-62898119D01*
X52434479Y-62898119D02*
X52366591Y-63108628D01*
X52366591Y-63108628D02*
X52231018Y-63268786D01*
X52231018Y-63268786D02*
X52120778Y-63296966D01*
X52120778Y-63296966D02*
X51959964Y-63169707D01*
X51959964Y-63169707D02*
X51870247Y-62968201D01*
X51870247Y-62968201D02*
X51802878Y-62744585D01*
X51802878Y-62744585D02*
X51793384Y-62707784D01*
X51793384Y-62707784D02*
X51724117Y-62514647D01*
X51724117Y-62514647D02*
X51655308Y-62574692D01*
X51655308Y-62574692D02*
X51567067Y-62757540D01*
X51567067Y-62757540D02*
X51517369Y-62860876D01*
X51517369Y-62860876D02*
X51412684Y-63062359D01*
X51412684Y-63062359D02*
X51296251Y-63238636D01*
X51296251Y-63238636D02*
X51131414Y-63376124D01*
X51131414Y-63376124D02*
X50926911Y-63352268D01*
X50926911Y-63352268D02*
X50907316Y-63340291D01*
X50907316Y-63340291D02*
X50745201Y-63182707D01*
X50745201Y-63182707D02*
X50684157Y-62991742D01*
X50684157Y-62991742D02*
X50690705Y-62768213D01*
X50690705Y-62768213D02*
X50736975Y-62527405D01*
X50736975Y-62527405D02*
X50800325Y-62292332D01*
X50800325Y-62292332D02*
X50840685Y-62159010D01*
X50840685Y-62159010D02*
X50908144Y-61943024D01*
X50908144Y-61943024D02*
X50969102Y-61722098D01*
X50969102Y-61722098D02*
X50892239Y-61533930D01*
X50892239Y-61533930D02*
X50668242Y-61508946D01*
X50668242Y-61508946D02*
X50629267Y-61506028D01*
X50629267Y-61506028D02*
X50425987Y-61488346D01*
X50425987Y-61488346D02*
X50219305Y-61465990D01*
X50219305Y-61465990D02*
X50194368Y-61462568D01*
X50194368Y-61462568D02*
X49989057Y-61468323D01*
X49989057Y-61468323D02*
X49876598Y-61560268D01*
X49876598Y-61560268D02*
X49695201Y-61709351D01*
X49695201Y-61709351D02*
X49493411Y-61839922D01*
X49493411Y-61839922D02*
X49259954Y-61955739D01*
X49259954Y-61955739D02*
X49057298Y-62035183D01*
X49057298Y-62035183D02*
X48825731Y-62110029D01*
X48825731Y-62110029D02*
X48560498Y-62181864D01*
X48560498Y-62181864D02*
X48362623Y-62228864D01*
X48362623Y-62228864D02*
X48146261Y-62275700D01*
X48146261Y-62275700D02*
X47910004Y-62322843D01*
X47910004Y-62322843D02*
X47652443Y-62370763D01*
X47652443Y-62370763D02*
X47372167Y-62419929D01*
X47372167Y-62419929D02*
X47223072Y-62445127D01*
X47223072Y-62445127D02*
X46976968Y-62486728D01*
X46976968Y-62486728D02*
X46751200Y-62526002D01*
X46751200Y-62526002D02*
X46544007Y-62563401D01*
X46544007Y-62563401D02*
X46264195Y-62616979D01*
X46264195Y-62616979D02*
X46016276Y-62668894D01*
X46016276Y-62668894D02*
X45794310Y-62720678D01*
X45794310Y-62720678D02*
X45592355Y-62773864D01*
X45592355Y-62773864D02*
X45343945Y-62849609D01*
X45343945Y-62849609D02*
X45106468Y-62934203D01*
X45106468Y-62934203D02*
X44865845Y-63031279D01*
X44865845Y-63031279D02*
X44739954Y-63085634D01*
X44739954Y-63085634D02*
X44794452Y-62947525D01*
X44794452Y-62947525D02*
X44567269Y-62947247D01*
X44567269Y-62947247D02*
X44483325Y-62984069D01*
X44483325Y-62984069D02*
X44290792Y-63069862D01*
X44290792Y-63069862D02*
X44108295Y-63153008D01*
X44108295Y-63153008D02*
X44045375Y-63182927D01*
X44045375Y-63182927D02*
X43878153Y-63201572D01*
X43878153Y-63201572D02*
X43663800Y-63238268D01*
X43663800Y-63238268D02*
X43604578Y-63263609D01*
X43604578Y-63263609D02*
X43416965Y-63337896D01*
X43416965Y-63337896D02*
X43344357Y-63359885D01*
X62507739Y-61014477D02*
X62503333Y-60960576D01*
X62503333Y-60960576D02*
X62443209Y-61024851D01*
X43350389Y-63312899D02*
X43514611Y-63193381D01*
X43514611Y-63193381D02*
X43563094Y-63162316D01*
X43563094Y-63162316D02*
X43728452Y-63049619D01*
X43728452Y-63049619D02*
X43747263Y-63019529D01*
X43747263Y-63019529D02*
X43694256Y-63002375D01*
X43694256Y-63002375D02*
X43639690Y-62948949D01*
X43639690Y-62948949D02*
X43427694Y-62947892D01*
X43427694Y-62947892D02*
X43341510Y-62975798D01*
X43341510Y-62975798D02*
X43138801Y-63036893D01*
X43138801Y-63036893D02*
X43220787Y-62884200D01*
X43220787Y-62884200D02*
X43374037Y-62750803D01*
X43374037Y-62750803D02*
X43275285Y-62721751D01*
X43344357Y-63359885D02*
X43292299Y-63366936D01*
X43292299Y-63366936D02*
X43350389Y-63312899D01*
X43169678Y-62619644D02*
X43016826Y-62524453D01*
X43016826Y-62524453D02*
X42816836Y-62576597D01*
X42816836Y-62576597D02*
X42825473Y-62450686D01*
X42825473Y-62450686D02*
X42997792Y-62315634D01*
X42997792Y-62315634D02*
X42818085Y-62304441D01*
X42818085Y-62304441D02*
X42618171Y-62385924D01*
X42618171Y-62385924D02*
X42431362Y-62459318D01*
X42431362Y-62459318D02*
X42229372Y-62520852D01*
X42229372Y-62520852D02*
X42195356Y-62459161D01*
X42195356Y-62459161D02*
X42064534Y-62429126D01*
X42064534Y-62429126D02*
X41882128Y-62473060D01*
X41882128Y-62473060D02*
X42042938Y-62348180D01*
X42042938Y-62348180D02*
X42210743Y-62243354D01*
X42210743Y-62243354D02*
X42044267Y-62213861D01*
X42044267Y-62213861D02*
X41843691Y-62275266D01*
X41843691Y-62275266D02*
X41748459Y-62245252D01*
X41748459Y-62245252D02*
X41816032Y-62054725D01*
X41816032Y-62054725D02*
X41915952Y-61983747D01*
X41915952Y-61983747D02*
X41917918Y-61931134D01*
X41917918Y-61931134D02*
X42004545Y-61785771D01*
X42004545Y-61785771D02*
X41859759Y-61697495D01*
X41859759Y-61697495D02*
X41655929Y-61708848D01*
X41655929Y-61708848D02*
X41750696Y-61573014D01*
X41750696Y-61573014D02*
X41799703Y-61424532D01*
X41799703Y-61424532D02*
X41868504Y-61303713D01*
X41868504Y-61303713D02*
X42045997Y-61195666D01*
X42045997Y-61195666D02*
X42082225Y-61122619D01*
X42082225Y-61122619D02*
X42124929Y-61036106D01*
X42124929Y-61036106D02*
X41966006Y-60903968D01*
X41966006Y-60903968D02*
X41945099Y-60897929D01*
X41945099Y-60897929D02*
X41746656Y-60833598D01*
X41746656Y-60833598D02*
X41936626Y-60775753D01*
X41936626Y-60775753D02*
X42135282Y-60752050D01*
X42135282Y-60752050D02*
X42127098Y-60713920D01*
X42127098Y-60713920D02*
X42219962Y-60632763D01*
X42219962Y-60632763D02*
X42304488Y-60537233D01*
X42304488Y-60537233D02*
X42480861Y-60491875D01*
X42480861Y-60491875D02*
X42683233Y-60487016D01*
X42683233Y-60487016D02*
X42623749Y-60421702D01*
X42623749Y-60421702D02*
X42434008Y-60333452D01*
X42434008Y-60333452D02*
X42543696Y-60274914D01*
X42543696Y-60274914D02*
X42749274Y-60270071D01*
X42749274Y-60270071D02*
X42762366Y-60224064D01*
X42762366Y-60224064D02*
X42899134Y-60063025D01*
X42899134Y-60063025D02*
X42978935Y-60047715D01*
X42978935Y-60047715D02*
X43165621Y-59974965D01*
X43165621Y-59974965D02*
X43172186Y-59960865D01*
X43172186Y-59960865D02*
X43218889Y-59878080D01*
X43218889Y-59878080D02*
X43196927Y-59779093D01*
X43196927Y-59779093D02*
X43203028Y-59692646D01*
X43203028Y-59692646D02*
X43269930Y-59630610D01*
X43269930Y-59630610D02*
X43472330Y-59564338D01*
X43472330Y-59564338D02*
X43489820Y-59562404D01*
X43489820Y-59562404D02*
X43501208Y-59427278D01*
X43501208Y-59427278D02*
X43502767Y-59243336D01*
X43502767Y-59243336D02*
X43699830Y-59163312D01*
X43699830Y-59163312D02*
X43911131Y-59131845D01*
X43911131Y-59131845D02*
X43959019Y-59126653D01*
X43959019Y-59126653D02*
X44243680Y-59100330D01*
X44243680Y-59100330D02*
X44522495Y-59082610D01*
X44522495Y-59082610D02*
X44800205Y-59073772D01*
X44800205Y-59073772D02*
X45081552Y-59074099D01*
X45081552Y-59074099D02*
X45371278Y-59083872D01*
X45371278Y-59083872D02*
X45571424Y-59095774D01*
X45571424Y-59095774D02*
X45778806Y-59112083D01*
X45778806Y-59112083D02*
X45994829Y-59132883D01*
X45994829Y-59132883D02*
X46220898Y-59158256D01*
X46220898Y-59158256D02*
X46458417Y-59188286D01*
X46458417Y-59188286D02*
X46708792Y-59223057D01*
X46708792Y-59223057D02*
X46973427Y-59262652D01*
X46973427Y-59262652D02*
X47253727Y-59307154D01*
X47253727Y-59307154D02*
X47400191Y-59331272D01*
X47400191Y-59331272D02*
X47675956Y-59377241D01*
X47675956Y-59377241D02*
X47897455Y-59413799D01*
X47897455Y-59413799D02*
X48118218Y-59448256D01*
X48118218Y-59448256D02*
X48337393Y-59470619D01*
X48337393Y-59470619D02*
X48392340Y-59366733D01*
X48392340Y-59366733D02*
X48556853Y-59250222D01*
X48556853Y-59250222D02*
X48759621Y-59263376D01*
X48759621Y-59263376D02*
X48796737Y-59266388D01*
X48796737Y-59266388D02*
X49069961Y-59284677D01*
X49069961Y-59284677D02*
X49324339Y-59292903D01*
X49324339Y-59292903D02*
X49561921Y-59290725D01*
X49561921Y-59290725D02*
X49784757Y-59277803D01*
X49784757Y-59277803D02*
X49994897Y-59253794D01*
X49994897Y-59253794D02*
X50194392Y-59218357D01*
X50194392Y-59218357D02*
X50447368Y-59152742D01*
X50447368Y-59152742D02*
X50689924Y-59065395D01*
X50689924Y-59065395D02*
X50926918Y-58955509D01*
X50926918Y-58955509D02*
X51044849Y-58891861D01*
X51044849Y-58891861D02*
X51222348Y-58790959D01*
X51222348Y-58790959D02*
X51399549Y-58687021D01*
X51399549Y-58687021D02*
X51553226Y-58561132D01*
X51553226Y-58561132D02*
X51350776Y-58623134D01*
X51350776Y-58623134D02*
X51146504Y-58710723D01*
X51146504Y-58710723D02*
X50947654Y-58804195D01*
X50947654Y-58804195D02*
X50890777Y-58832400D01*
X50890777Y-58832400D02*
X50700360Y-58912271D01*
X50700360Y-58912271D02*
X50494097Y-58889401D01*
X50494097Y-58889401D02*
X50437982Y-58812196D01*
X50437982Y-58812196D02*
X50211651Y-58774986D01*
X50211651Y-58774986D02*
X49993044Y-58811975D01*
X49993044Y-58811975D02*
X49732550Y-58860704D01*
X49732550Y-58860704D02*
X49477686Y-58909534D01*
X49477686Y-58909534D02*
X49276035Y-58948338D01*
X49276035Y-58948338D02*
X49050020Y-58991974D01*
X49050020Y-58991974D02*
X48768437Y-59046466D01*
X48768437Y-59046466D02*
X48548674Y-59088217D01*
X48548674Y-59088217D02*
X48338002Y-59124863D01*
X48338002Y-59124863D02*
X48127928Y-59137065D01*
X48127928Y-59137065D02*
X48056743Y-59019121D01*
X48056743Y-59019121D02*
X48079993Y-58823654D01*
X48079993Y-58823654D02*
X47911008Y-58761820D01*
X47911008Y-58761820D02*
X47704915Y-58751801D01*
X47704915Y-58751801D02*
X47645432Y-58701545D01*
X47645432Y-58701545D02*
X47729373Y-58517952D01*
X47729373Y-58517952D02*
X47834412Y-58350883D01*
X47834412Y-58350883D02*
X48059897Y-58340567D01*
X48059897Y-58340567D02*
X48280587Y-58335043D01*
X48280587Y-58335043D02*
X48505451Y-58330451D01*
X48505451Y-58330451D02*
X48705888Y-58326941D01*
X48705888Y-58326941D02*
X48919764Y-58323696D01*
X48919764Y-58323696D02*
X49151859Y-58320470D01*
X49151859Y-58320470D02*
X49352989Y-58317676D01*
X49352989Y-58317676D02*
X49601794Y-58314016D01*
X49601794Y-58314016D02*
X49847227Y-58309466D01*
X49847227Y-58309466D02*
X50068871Y-58301287D01*
X50068871Y-58301287D02*
X50241884Y-58252981D01*
X50241884Y-58252981D02*
X50331604Y-58065718D01*
X50331604Y-58065718D02*
X50320987Y-57984764D01*
X50320987Y-57984764D02*
X50300031Y-57767936D01*
X50300031Y-57767936D02*
X50292833Y-57538202D01*
X50292833Y-57538202D02*
X50298708Y-57314459D01*
X50298708Y-57314459D02*
X50321175Y-57086214D01*
X50321175Y-57086214D02*
X50359421Y-56921862D01*
X50359421Y-56921862D02*
X50484295Y-56754294D01*
X50484295Y-56754294D02*
X50690035Y-56744620D01*
X50690035Y-56744620D02*
X50760768Y-56754328D01*
X50760768Y-56754328D02*
X50987701Y-56796053D01*
X50987701Y-56796053D02*
X51184760Y-56848641D01*
X51184760Y-56848641D02*
X51393436Y-56932496D01*
X51393436Y-56932496D02*
X51565501Y-57039890D01*
X51565501Y-57039890D02*
X51731533Y-57204971D01*
X51731533Y-57204971D02*
X51842750Y-57376992D01*
X51842750Y-57376992D02*
X51900143Y-57496875D01*
X51900143Y-57496875D02*
X52027597Y-57653925D01*
X52027597Y-57653925D02*
X52056520Y-57651798D01*
X52056520Y-57651798D02*
X52223228Y-57518291D01*
X52223228Y-57518291D02*
X52299802Y-57319947D01*
X52299802Y-57319947D02*
X52339245Y-57210758D01*
X52339245Y-57210758D02*
X52408908Y-57018656D01*
X52408908Y-57018656D02*
X52479082Y-56828147D01*
X52479082Y-56828147D02*
X52513313Y-56738260D01*
X52513313Y-56738260D02*
X52550391Y-56569777D01*
X43275285Y-62721751D02*
X43169678Y-62717751D01*
X43169678Y-62717751D02*
X43169678Y-62619644D01*
X52506128Y-56502451D02*
X52335585Y-56471195D01*
X52335585Y-56471195D02*
X52305014Y-56381021D01*
X52305014Y-56381021D02*
X52123083Y-56351528D01*
X52123083Y-56351528D02*
X51922563Y-56371855D01*
X51922563Y-56371855D02*
X51858930Y-56374038D01*
X51858930Y-56374038D02*
X51828292Y-56278440D01*
X51828292Y-56278440D02*
X51732921Y-56223793D01*
X51732921Y-56223793D02*
X51534110Y-56261185D01*
X51534110Y-56261185D02*
X51473987Y-56259320D01*
X51473987Y-56259320D02*
X51496288Y-56216199D01*
X51496288Y-56216199D02*
X51328049Y-56194707D01*
X51328049Y-56194707D02*
X51109477Y-56228175D01*
X51109477Y-56228175D02*
X50977065Y-56115584D01*
X50977065Y-56115584D02*
X50909014Y-55925572D01*
X50909014Y-55925572D02*
X50865561Y-55924117D01*
X50865561Y-55924117D02*
X50751888Y-55842350D01*
X50751888Y-55842350D02*
X50547479Y-55761769D01*
X50547479Y-55761769D02*
X50519051Y-55760108D01*
X50519051Y-55760108D02*
X50312555Y-55747991D01*
X50312555Y-55747991D02*
X50098977Y-55732783D01*
X50098977Y-55732783D02*
X50016774Y-55637526D01*
X50016774Y-55637526D02*
X50009250Y-55537453D01*
X50009250Y-55537453D02*
X49808496Y-55496960D01*
X49808496Y-55496960D02*
X49613755Y-55451376D01*
X49613755Y-55451376D02*
X49551779Y-55432905D01*
X49551779Y-55432905D02*
X49675496Y-55272793D01*
X49675496Y-55272793D02*
X49879919Y-55187740D01*
X49879919Y-55187740D02*
X50059464Y-55097819D01*
X50059464Y-55097819D02*
X49850708Y-55016091D01*
X49850708Y-55016091D02*
X49792207Y-55004612D01*
X49792207Y-55004612D02*
X49801087Y-54902641D01*
X49801087Y-54902641D02*
X49971427Y-54822637D01*
X49971427Y-54822637D02*
X50029789Y-54759244D01*
X50029789Y-54759244D02*
X50231623Y-54776493D01*
X50231623Y-54776493D02*
X50304787Y-54785347D01*
X50304787Y-54785347D02*
X50513644Y-54801578D01*
X50513644Y-54801578D02*
X50598561Y-54769346D01*
X50598561Y-54769346D02*
X50478110Y-54679986D01*
X50478110Y-54679986D02*
X50676033Y-54616078D01*
X50676033Y-54616078D02*
X50699152Y-54614830D01*
X50699152Y-54614830D02*
X50902997Y-54602086D01*
X50902997Y-54602086D02*
X51095228Y-54542918D01*
X51095228Y-54542918D02*
X51199531Y-54449737D01*
X51199531Y-54449737D02*
X51363056Y-54304132D01*
X51363056Y-54304132D02*
X51527835Y-54182261D01*
X51527835Y-54182261D02*
X51704839Y-54078766D01*
X51704839Y-54078766D02*
X51905043Y-53988291D01*
X51905043Y-53988291D02*
X52139419Y-53905477D01*
X52139419Y-53905477D02*
X52358899Y-53841143D01*
X52358899Y-53841143D02*
X52545850Y-53792212D01*
X52545850Y-53792212D02*
X52763338Y-53737133D01*
X52763338Y-53737133D02*
X52970923Y-53673678D01*
X52970923Y-53673678D02*
X53049984Y-53482487D01*
X53049984Y-53482487D02*
X53047245Y-53464263D01*
X53047245Y-53464263D02*
X53022328Y-53257234D01*
X53022328Y-53257234D02*
X53006778Y-53103092D01*
X53006778Y-53103092D02*
X52979448Y-52896072D01*
X52979448Y-52896072D02*
X52820590Y-52767686D01*
X52820590Y-52767686D02*
X52693415Y-52763617D01*
X52693415Y-52763617D02*
X52493384Y-52780156D01*
X52493384Y-52780156D02*
X52298116Y-52832821D01*
X52298116Y-52832821D02*
X52138199Y-52883826D01*
X52138199Y-52883826D02*
X51927527Y-52945541D01*
X51927527Y-52945541D02*
X51700899Y-52992641D01*
X51700899Y-52992641D02*
X51500070Y-53010449D01*
X51500070Y-53010449D02*
X51294476Y-52994368D01*
X51294476Y-52994368D02*
X51091687Y-52927625D01*
X51091687Y-52927625D02*
X51220673Y-52746072D01*
X51220673Y-52746072D02*
X51314357Y-52714462D01*
X51314357Y-52714462D02*
X51528874Y-52641223D01*
X51528874Y-52641223D02*
X51727514Y-52567102D01*
X51727514Y-52567102D02*
X51925268Y-52476020D01*
X51925268Y-52476020D02*
X52110069Y-52358316D01*
X52110069Y-52358316D02*
X52196154Y-52292813D01*
X52196154Y-52292813D02*
X52357853Y-52171744D01*
X52357853Y-52171744D02*
X52550818Y-52045645D01*
X52550818Y-52045645D02*
X52739592Y-51945076D01*
X52739592Y-51945076D02*
X52930591Y-51867349D01*
X52930591Y-51867349D02*
X53130230Y-51809772D01*
X53130230Y-51809772D02*
X53344924Y-51769659D01*
X53344924Y-51769659D02*
X53483636Y-51752854D01*
X53483636Y-51752854D02*
X53708320Y-51738565D01*
X53708320Y-51738565D02*
X53922708Y-51741700D01*
X53922708Y-51741700D02*
X54126533Y-51762151D01*
X54126533Y-51762151D02*
X54381401Y-51816168D01*
X54381401Y-51816168D02*
X54616375Y-51900524D01*
X54616375Y-51900524D02*
X54830815Y-52014964D01*
X54830815Y-52014964D02*
X55024086Y-52159234D01*
X55024086Y-52159234D02*
X55195551Y-52333080D01*
X55195551Y-52333080D02*
X55309456Y-52482721D01*
X55309456Y-52482721D02*
X55432220Y-52645894D01*
X55432220Y-52645894D02*
X55440685Y-52655272D01*
X52550391Y-56569777D02*
X52550391Y-56493434D01*
X52550391Y-56493434D02*
X52506128Y-56502451D01*
X55683554Y-52707885D02*
X55890195Y-52714006D01*
X55890195Y-52714006D02*
X56005526Y-52723072D01*
X56005526Y-52723072D02*
X56163097Y-52593376D01*
X56163097Y-52593376D02*
X56064674Y-52414757D01*
X56064674Y-52414757D02*
X55980514Y-52292203D01*
X55980514Y-52292203D02*
X55862703Y-52114534D01*
X55862703Y-52114534D02*
X55781565Y-51931644D01*
X55781565Y-51931644D02*
X55901057Y-51749660D01*
X55901057Y-51749660D02*
X56117166Y-51709733D01*
X56117166Y-51709733D02*
X56312763Y-51654117D01*
X56312763Y-51654117D02*
X56324787Y-51593795D01*
X56324787Y-51593795D02*
X56406798Y-51408125D01*
X56406798Y-51408125D02*
X56611585Y-51381317D01*
X56611585Y-51381317D02*
X56740708Y-51398666D01*
X54278399Y-57774176D02*
X54152639Y-57943687D01*
X54152639Y-57943687D02*
X54034943Y-58109163D01*
X54034943Y-58109163D02*
X53909874Y-58287428D01*
X53909874Y-58287428D02*
X53779839Y-58475832D01*
X53779839Y-58475832D02*
X53701967Y-58594693D01*
X53701967Y-58594693D02*
X53732662Y-58809832D01*
X53732662Y-58809832D02*
X53841692Y-58988957D01*
X53841692Y-58988957D02*
X53984126Y-59174218D01*
X53984126Y-59174218D02*
X54132641Y-59347178D01*
X54132641Y-59347178D02*
X54312505Y-59543062D01*
X54312505Y-59543062D02*
X54414373Y-59649866D01*
X54414373Y-59649866D02*
X54552407Y-59795117D01*
X54552407Y-59795117D02*
X54689414Y-59943330D01*
X54689414Y-59943330D02*
X54780608Y-60046632D01*
X54780608Y-60046632D02*
X54922158Y-60193002D01*
X54922158Y-60193002D02*
X55121971Y-60214290D01*
X55121971Y-60214290D02*
X55226828Y-60211047D01*
X55226828Y-60211047D02*
X55437928Y-60200260D01*
X55437928Y-60200260D02*
X55524298Y-60010005D01*
X55524298Y-60010005D02*
X55480813Y-59881335D01*
X55480813Y-59881335D02*
X55393023Y-59688210D01*
X55393023Y-59688210D02*
X55277755Y-59516572D01*
X55277755Y-59516572D02*
X55183582Y-59383005D01*
X55183582Y-59383005D02*
X55028383Y-59163597D01*
X55028383Y-59163597D02*
X54902000Y-58983479D01*
X54902000Y-58983479D02*
X54771549Y-58791912D01*
X54771549Y-58791912D02*
X54656606Y-58606384D01*
X54656606Y-58606384D02*
X54565338Y-58418556D01*
X54565338Y-58418556D02*
X54495407Y-58213938D01*
X54495407Y-58213938D02*
X54430845Y-57988764D01*
X54430845Y-57988764D02*
X54367138Y-57790425D01*
X54367138Y-57790425D02*
X54278399Y-57774176D01*
X55440685Y-52655272D02*
X55490167Y-52707885D01*
X55490167Y-52707885D02*
X55683554Y-52707885D01*
X56413177Y-51401920D02*
X56324935Y-51587498D01*
X56324935Y-51587498D02*
X56324787Y-51593795D01*
X56324787Y-51593795D02*
X56149249Y-51706442D01*
X56149249Y-51706442D02*
X56117166Y-51709733D01*
X56117166Y-51709733D02*
X55901057Y-51749660D01*
X55901057Y-51749660D02*
X55778127Y-51911050D01*
X55778127Y-51911050D02*
X55862703Y-52114534D01*
X55862703Y-52114534D02*
X55980514Y-52292203D01*
X55980514Y-52292203D02*
X56098001Y-52467437D01*
X56098001Y-52467437D02*
X56177535Y-52652483D01*
X56177535Y-52652483D02*
X56005526Y-52723072D01*
X56005526Y-52723072D02*
X55802350Y-52710094D01*
X55802350Y-52710094D02*
X55683554Y-52707885D01*
X55440685Y-52655272D02*
X55318036Y-52495201D01*
X55318036Y-52495201D02*
X55309456Y-52482721D01*
X55309456Y-52482721D02*
X55154764Y-52286860D01*
X55154764Y-52286860D02*
X54977788Y-52120384D01*
X54977788Y-52120384D02*
X54779165Y-51983548D01*
X54779165Y-51983548D02*
X54559531Y-51876605D01*
X54559531Y-51876605D02*
X54319525Y-51799810D01*
X54319525Y-51799810D02*
X54059782Y-51753417D01*
X54059782Y-51753417D02*
X53852406Y-51738726D01*
X53852406Y-51738726D02*
X53634556Y-51741387D01*
X53634556Y-51741387D02*
X53483636Y-51752854D01*
X53483636Y-51752854D02*
X53256829Y-51783781D01*
X53256829Y-51783781D02*
X53048927Y-51830557D01*
X53048927Y-51830557D02*
X52853514Y-51895871D01*
X52853514Y-51895871D02*
X52664175Y-51982412D01*
X52664175Y-51982412D02*
X52474494Y-52092871D01*
X52474494Y-52092871D02*
X52278057Y-52229935D01*
X52278057Y-52229935D02*
X52196154Y-52292813D01*
X52196154Y-52292813D02*
X52028871Y-52414528D01*
X52028871Y-52414528D02*
X51833522Y-52521629D01*
X51833522Y-52521629D02*
X51635105Y-52602814D01*
X51635105Y-52602814D02*
X51406336Y-52683519D01*
X51406336Y-52683519D02*
X51314357Y-52714462D01*
X51314357Y-52714462D02*
X51123029Y-52780806D01*
X51123029Y-52780806D02*
X51091687Y-52927625D01*
X51091687Y-52927625D02*
X51294476Y-52994368D01*
X51294476Y-52994368D02*
X51500070Y-53010449D01*
X51500070Y-53010449D02*
X51700899Y-52992641D01*
X51700899Y-52992641D02*
X51927527Y-52945541D01*
X51927527Y-52945541D02*
X52138199Y-52883826D01*
X52138199Y-52883826D02*
X52341452Y-52819660D01*
X52341452Y-52819660D02*
X52546903Y-52771090D01*
X52546903Y-52771090D02*
X52693415Y-52763617D01*
X52693415Y-52763617D02*
X52903917Y-52785964D01*
X52903917Y-52785964D02*
X52992868Y-52972320D01*
X52992868Y-52972320D02*
X53006778Y-53103092D01*
X53006778Y-53103092D02*
X53027850Y-53307577D01*
X53027850Y-53307577D02*
X53047245Y-53464263D01*
X53047245Y-53464263D02*
X53000861Y-53659261D01*
X53000861Y-53659261D02*
X52798030Y-53728002D01*
X52798030Y-53728002D02*
X52595554Y-53779720D01*
X52595554Y-53779720D02*
X52545850Y-53792212D01*
X52545850Y-53792212D02*
X52301013Y-53857239D01*
X52301013Y-53857239D02*
X52089283Y-53921684D01*
X52089283Y-53921684D02*
X51862619Y-54005601D01*
X51862619Y-54005601D02*
X51667933Y-54098252D01*
X51667933Y-54098252D02*
X51494252Y-54204994D01*
X51494252Y-54204994D02*
X51330602Y-54331183D01*
X51330602Y-54331183D02*
X51199531Y-54449737D01*
X51199531Y-54449737D02*
X51033740Y-54576834D01*
X51033740Y-54576834D02*
X50814631Y-54608528D01*
X50814631Y-54608528D02*
X50699152Y-54614830D01*
X50699152Y-54614830D02*
X50498963Y-54630749D01*
X50498963Y-54630749D02*
X50478110Y-54679986D01*
X50478110Y-54679986D02*
X50598561Y-54769346D01*
X50598561Y-54769346D02*
X50390650Y-54795287D01*
X50390650Y-54795287D02*
X50304787Y-54785347D01*
X50304787Y-54785347D02*
X50105903Y-54763856D01*
X50105903Y-54763856D02*
X50029789Y-54759244D01*
X50029789Y-54759244D02*
X49971427Y-54822637D01*
X49971427Y-54822637D02*
X49801087Y-54902641D01*
X49801087Y-54902641D02*
X49792207Y-55004612D01*
X49792207Y-55004612D02*
X49998081Y-55052659D01*
X49998081Y-55052659D02*
X49879919Y-55187740D01*
X49879919Y-55187740D02*
X49692685Y-55263949D01*
X49692685Y-55263949D02*
X49533018Y-55387866D01*
X49533018Y-55387866D02*
X49551779Y-55432905D01*
X49551779Y-55432905D02*
X49754144Y-55484875D01*
X49754144Y-55484875D02*
X49965642Y-55529440D01*
X49965642Y-55529440D02*
X50009250Y-55537453D01*
X50009250Y-55537453D02*
X50016774Y-55637526D01*
X50016774Y-55637526D02*
X50192257Y-55740166D01*
X50192257Y-55740166D02*
X50408927Y-55753738D01*
X50408927Y-55753738D02*
X50519051Y-55760108D01*
X50519051Y-55760108D02*
X50732869Y-55776164D01*
X50732869Y-55776164D02*
X50751888Y-55842350D01*
X50751888Y-55842350D02*
X50865561Y-55924117D01*
X50865561Y-55924117D02*
X50998469Y-56079169D01*
X50998469Y-56079169D02*
X50977065Y-56115584D01*
X50977065Y-56115584D02*
X51161618Y-56221018D01*
X51161618Y-56221018D02*
X51328049Y-56194707D01*
X51328049Y-56194707D02*
X51496288Y-56216199D01*
X51496288Y-56216199D02*
X51473987Y-56259320D01*
X51473987Y-56259320D02*
X51678065Y-56236851D01*
X51678065Y-56236851D02*
X51732921Y-56223793D01*
X51732921Y-56223793D02*
X51828292Y-56278440D01*
X51828292Y-56278440D02*
X51858930Y-56374038D01*
X51858930Y-56374038D02*
X52064176Y-56359292D01*
X52064176Y-56359292D02*
X52123083Y-56351528D01*
X52123083Y-56351528D02*
X52305014Y-56381021D01*
X52305014Y-56381021D02*
X52335585Y-56471195D01*
X52335585Y-56471195D02*
X52506128Y-56502451D01*
X55683554Y-52707885D02*
X55490167Y-52707885D01*
X55490167Y-52707885D02*
X55440685Y-52655272D01*
X52550391Y-56569777D02*
X52513313Y-56738260D01*
X52513313Y-56738260D02*
X52440900Y-56931323D01*
X52440900Y-56931323D02*
X52367528Y-57132460D01*
X52367528Y-57132460D02*
X52339245Y-57210758D01*
X52339245Y-57210758D02*
X52266967Y-57408970D01*
X52266967Y-57408970D02*
X52181111Y-57597144D01*
X52181111Y-57597144D02*
X52056520Y-57651798D01*
X52056520Y-57651798D02*
X51906527Y-57511716D01*
X51906527Y-57511716D02*
X51900143Y-57496875D01*
X51900143Y-57496875D02*
X51800821Y-57304162D01*
X51800821Y-57304162D02*
X51653495Y-57117143D01*
X51653495Y-57117143D02*
X51466342Y-56972424D01*
X51466342Y-56972424D02*
X51272982Y-56879592D01*
X51272982Y-56879592D02*
X51039655Y-56808109D01*
X51039655Y-56808109D02*
X50820458Y-56763843D01*
X50820458Y-56763843D02*
X50760768Y-56754328D01*
X50760768Y-56754328D02*
X50546905Y-56739431D01*
X50546905Y-56739431D02*
X50385156Y-56860614D01*
X50385156Y-56860614D02*
X50359421Y-56921862D01*
X50359421Y-56921862D02*
X50313098Y-57146220D01*
X50313098Y-57146220D02*
X50296850Y-57350531D01*
X50296850Y-57350531D02*
X50293106Y-57576585D01*
X50293106Y-57576585D02*
X50302550Y-57805481D01*
X50302550Y-57805481D02*
X50320987Y-57984764D01*
X50320987Y-57984764D02*
X50324170Y-58187945D01*
X50324170Y-58187945D02*
X50241884Y-58252981D01*
X50241884Y-58252981D02*
X50041922Y-58302881D01*
X50041922Y-58302881D02*
X49794229Y-58310616D01*
X49794229Y-58310616D02*
X49525516Y-58315186D01*
X49525516Y-58315186D02*
X49256147Y-58319027D01*
X49256147Y-58319027D02*
X49039830Y-58322021D01*
X49039830Y-58322021D02*
X48919764Y-58323696D01*
X48919764Y-58323696D02*
X48705888Y-58326941D01*
X48705888Y-58326941D02*
X48505451Y-58330451D01*
X48505451Y-58330451D02*
X48280587Y-58335043D01*
X48280587Y-58335043D02*
X48059897Y-58340567D01*
X48059897Y-58340567D02*
X47850191Y-58348841D01*
X47850191Y-58348841D02*
X47834412Y-58350883D01*
X47834412Y-58350883D02*
X47721224Y-58533182D01*
X47721224Y-58533182D02*
X47645432Y-58701545D01*
X47645432Y-58701545D02*
X47849893Y-58760642D01*
X47849893Y-58760642D02*
X47911008Y-58761820D01*
X47911008Y-58761820D02*
X48113136Y-58772048D01*
X48113136Y-58772048D02*
X48079993Y-58823654D01*
X48079993Y-58823654D02*
X48056743Y-59019121D01*
X48056743Y-59019121D02*
X48231395Y-59138684D01*
X48231395Y-59138684D02*
X48432561Y-59109200D01*
X48432561Y-59109200D02*
X48688709Y-59061776D01*
X48688709Y-59061776D02*
X48948797Y-59011582D01*
X48948797Y-59011582D02*
X49159001Y-58970898D01*
X49159001Y-58970898D02*
X49276035Y-58948338D01*
X49276035Y-58948338D02*
X49477686Y-58909534D01*
X49477686Y-58909534D02*
X49732550Y-58860704D01*
X49732550Y-58860704D02*
X49935737Y-58822483D01*
X49935737Y-58822483D02*
X50136883Y-58786779D01*
X50136883Y-58786779D02*
X50337900Y-58761463D01*
X50337900Y-58761463D02*
X50437982Y-58812196D01*
X50437982Y-58812196D02*
X50606511Y-58928571D01*
X50606511Y-58928571D02*
X50819884Y-58866378D01*
X50819884Y-58866378D02*
X50890777Y-58832400D01*
X50890777Y-58832400D02*
X51098650Y-58731721D01*
X51098650Y-58731721D02*
X51312095Y-58638010D01*
X51312095Y-58638010D02*
X51503922Y-58571369D01*
X51503922Y-58571369D02*
X51359483Y-58712449D01*
X51359483Y-58712449D02*
X51317339Y-58736869D01*
X51317339Y-58736869D02*
X51121804Y-58848025D01*
X51121804Y-58848025D02*
X50943862Y-58946223D01*
X50943862Y-58946223D02*
X50751102Y-59042139D01*
X50751102Y-59042139D02*
X50547748Y-59119291D01*
X50547748Y-59119291D02*
X50527117Y-59126042D01*
X50527117Y-59126042D02*
X50291874Y-59193654D01*
X50291874Y-59193654D02*
X50054019Y-59243500D01*
X50054019Y-59243500D02*
X49806463Y-59276157D01*
X49806463Y-59276157D02*
X49596667Y-59290294D01*
X49596667Y-59290294D02*
X49372494Y-59294095D01*
X49372494Y-59294095D02*
X49130314Y-59287856D01*
X49130314Y-59287856D02*
X48866497Y-59271872D01*
X48866497Y-59271872D02*
X48796737Y-59266388D01*
X48796737Y-59266388D02*
X48580109Y-59251153D01*
X48580109Y-59251153D02*
X48383969Y-59293122D01*
X48383969Y-59293122D02*
X48392340Y-59366733D01*
X48392340Y-59366733D02*
X48200439Y-59459497D01*
X48200439Y-59459497D02*
X47960213Y-59423929D01*
X47960213Y-59423929D02*
X47755537Y-59390462D01*
X47755537Y-59390462D02*
X47498494Y-59347653D01*
X47498494Y-59347653D02*
X47400191Y-59331272D01*
X47400191Y-59331272D02*
X47111531Y-59284284D01*
X47111531Y-59284284D02*
X46839239Y-59242246D01*
X46839239Y-59242246D02*
X46581910Y-59205074D01*
X46581910Y-59205074D02*
X46338138Y-59172684D01*
X46338138Y-59172684D02*
X46106520Y-59144993D01*
X46106520Y-59144993D02*
X45885650Y-59121917D01*
X45885650Y-59121917D02*
X45674123Y-59103373D01*
X45674123Y-59103373D02*
X45470534Y-59089278D01*
X45470534Y-59089278D02*
X45176962Y-59076293D01*
X45176962Y-59076293D02*
X44893349Y-59072849D01*
X44893349Y-59072849D02*
X44614954Y-59078663D01*
X44614954Y-59078663D02*
X44337034Y-59093454D01*
X44337034Y-59093454D02*
X44054848Y-59116940D01*
X44054848Y-59116940D02*
X43959019Y-59126653D01*
X43959019Y-59126653D02*
X43758088Y-59152175D01*
X43758088Y-59152175D02*
X43564915Y-59209103D01*
X43564915Y-59209103D02*
X43502767Y-59243336D01*
X43502767Y-59243336D02*
X43501208Y-59427278D01*
X43501208Y-59427278D02*
X43489820Y-59562404D01*
X43489820Y-59562404D02*
X43292010Y-59597772D01*
X43292010Y-59597772D02*
X43269930Y-59630610D01*
X43269930Y-59630610D02*
X43203028Y-59692646D01*
X43203028Y-59692646D02*
X43196927Y-59779093D01*
X43196927Y-59779093D02*
X43218889Y-59878080D01*
X43218889Y-59878080D02*
X43172186Y-59960865D01*
X43172186Y-59960865D02*
X42978935Y-60047715D01*
X42978935Y-60047715D02*
X42787928Y-60109420D01*
X42787928Y-60109420D02*
X42762366Y-60224064D01*
X42762366Y-60224064D02*
X42562766Y-60275703D01*
X42562766Y-60275703D02*
X42543696Y-60274914D01*
X42543696Y-60274914D02*
X42623749Y-60421702D01*
X42623749Y-60421702D02*
X42480861Y-60491875D01*
X42480861Y-60491875D02*
X42281219Y-60507947D01*
X42281219Y-60507947D02*
X42304488Y-60537233D01*
X42304488Y-60537233D02*
X42219962Y-60632763D01*
X42219962Y-60632763D02*
X42127098Y-60713920D01*
X42127098Y-60713920D02*
X41936626Y-60775753D01*
X41936626Y-60775753D02*
X41731143Y-60785520D01*
X41731143Y-60785520D02*
X41915451Y-60889324D01*
X41915451Y-60889324D02*
X41945099Y-60897929D01*
X41945099Y-60897929D02*
X42136151Y-60963241D01*
X42136151Y-60963241D02*
X42124929Y-61036106D01*
X42124929Y-61036106D02*
X42082225Y-61122619D01*
X42082225Y-61122619D02*
X41926609Y-61269394D01*
X41926609Y-61269394D02*
X41868504Y-61303713D01*
X41868504Y-61303713D02*
X41799703Y-61424532D01*
X41799703Y-61424532D02*
X41750696Y-61573014D01*
X41750696Y-61573014D02*
X41859759Y-61697495D01*
X41859759Y-61697495D02*
X42063614Y-61681062D01*
X42063614Y-61681062D02*
X42004545Y-61785771D01*
X42004545Y-61785771D02*
X41839295Y-61898525D01*
X41839295Y-61898525D02*
X41917918Y-61931134D01*
X41917918Y-61931134D02*
X41915952Y-61983747D01*
X41915952Y-61983747D02*
X41769701Y-62121163D01*
X41769701Y-62121163D02*
X41748459Y-62245252D01*
X41748459Y-62245252D02*
X41960808Y-62241444D01*
X41960808Y-62241444D02*
X42044267Y-62213861D01*
X42044267Y-62213861D02*
X42237862Y-62153768D01*
X42237862Y-62153768D02*
X42210743Y-62243354D01*
X42210743Y-62243354D02*
X42028349Y-62357596D01*
X42028349Y-62357596D02*
X41882128Y-62473060D01*
X41882128Y-62473060D02*
X42064534Y-62429126D01*
X42064534Y-62429126D02*
X42195356Y-62459161D01*
X42195356Y-62459161D02*
X42401598Y-62470404D01*
X42401598Y-62470404D02*
X42618171Y-62385924D01*
X42618171Y-62385924D02*
X42818085Y-62304441D01*
X42818085Y-62304441D02*
X43007904Y-62238732D01*
X43007904Y-62238732D02*
X42879442Y-62410843D01*
X42879442Y-62410843D02*
X42825473Y-62450686D01*
X42825473Y-62450686D02*
X43016826Y-62524453D01*
X43016826Y-62524453D02*
X43169678Y-62619644D01*
X52506128Y-56502451D02*
X52550391Y-56493434D01*
X52550391Y-56493434D02*
X52550391Y-56569777D01*
X43275285Y-62721751D02*
X43220787Y-62884200D01*
X43220787Y-62884200D02*
X43065674Y-63012745D01*
X43065674Y-63012745D02*
X43279483Y-62995891D01*
X43279483Y-62995891D02*
X43341510Y-62975798D01*
X43341510Y-62975798D02*
X43534731Y-62916858D01*
X43534731Y-62916858D02*
X43639690Y-62948949D01*
X43639690Y-62948949D02*
X43694256Y-63002375D01*
X43694256Y-63002375D02*
X43747263Y-63019529D01*
X43747263Y-63019529D02*
X43588726Y-63146205D01*
X43588726Y-63146205D02*
X43563094Y-63162316D01*
X43563094Y-63162316D02*
X43396735Y-63275507D01*
X43396735Y-63275507D02*
X43350389Y-63312899D01*
X43169678Y-62619644D02*
X43169678Y-62717751D01*
X43169678Y-62717751D02*
X43275285Y-62721751D01*
X43344357Y-63359885D02*
X43540507Y-63290390D01*
X43540507Y-63290390D02*
X43604578Y-63263609D01*
X43604578Y-63263609D02*
X43792180Y-63187251D01*
X43792180Y-63187251D02*
X43878153Y-63201572D01*
X43878153Y-63201572D02*
X44045375Y-63182927D01*
X44045375Y-63182927D02*
X44226917Y-63098698D01*
X44226917Y-63098698D02*
X44411888Y-63015714D01*
X44411888Y-63015714D02*
X44483325Y-62984069D01*
X44483325Y-62984069D02*
X44675540Y-62900827D01*
X44675540Y-62900827D02*
X44865039Y-62828236D01*
X44865039Y-62828236D02*
X44794452Y-62947525D01*
X44794452Y-62947525D02*
X44634724Y-63085295D01*
X44634724Y-63085295D02*
X44739954Y-63085634D01*
X44739954Y-63085634D02*
X44927066Y-63005641D01*
X44927066Y-63005641D02*
X45165582Y-62912026D01*
X45165582Y-62912026D02*
X45404472Y-62829985D01*
X45404472Y-62829985D02*
X45657817Y-62755885D01*
X45657817Y-62755885D02*
X45865782Y-62703336D01*
X45865782Y-62703336D02*
X46095739Y-62651679D01*
X46095739Y-62651679D02*
X46353629Y-62599380D01*
X46353629Y-62599380D02*
X46645392Y-62544907D01*
X46645392Y-62544907D02*
X46861652Y-62506628D01*
X46861652Y-62506628D02*
X47097368Y-62466247D01*
X47097368Y-62466247D02*
X47223072Y-62445127D01*
X47223072Y-62445127D02*
X47515232Y-62395161D01*
X47515232Y-62395161D02*
X47783975Y-62346677D01*
X47783975Y-62346677D02*
X48030708Y-62299204D01*
X48030708Y-62299204D02*
X48256841Y-62252273D01*
X48256841Y-62252273D02*
X48463783Y-62205413D01*
X48463783Y-62205413D02*
X48741296Y-62134230D01*
X48741296Y-62134230D02*
X48983557Y-62060564D01*
X48983557Y-62060564D02*
X49195321Y-61982829D01*
X49195321Y-61982829D02*
X49381346Y-61899440D01*
X49381346Y-61899440D02*
X49597560Y-61776715D01*
X49597560Y-61776715D02*
X49787744Y-61637358D01*
X49787744Y-61637358D02*
X49876598Y-61560268D01*
X49876598Y-61560268D02*
X50050452Y-61449444D01*
X50050452Y-61449444D02*
X50194368Y-61462568D01*
X50194368Y-61462568D02*
X50395575Y-61485393D01*
X50395575Y-61485393D02*
X50598688Y-61503609D01*
X50598688Y-61503609D02*
X50629267Y-61506028D01*
X50629267Y-61506028D02*
X50850234Y-61525435D01*
X50850234Y-61525435D02*
X50973980Y-61695488D01*
X50973980Y-61695488D02*
X50921847Y-61898204D01*
X50921847Y-61898204D02*
X50859355Y-62099225D01*
X50859355Y-62099225D02*
X50840685Y-62159010D01*
X50840685Y-62159010D02*
X50782310Y-62354935D01*
X50782310Y-62354935D02*
X50724781Y-62580031D01*
X50724781Y-62580031D02*
X50685882Y-62810052D01*
X50685882Y-62810052D02*
X50688319Y-63023102D01*
X50688319Y-63023102D02*
X50776419Y-63226823D01*
X50776419Y-63226823D02*
X50907316Y-63340291D01*
X50907316Y-63340291D02*
X51113294Y-63382416D01*
X51113294Y-63382416D02*
X51277541Y-63261288D01*
X51277541Y-63261288D02*
X51392683Y-63096622D01*
X51392683Y-63096622D02*
X51495742Y-62905247D01*
X51495742Y-62905247D02*
X51517369Y-62860876D01*
X51517369Y-62860876D02*
X51607076Y-62674453D01*
X51607076Y-62674453D02*
X51655308Y-62574692D01*
X51655308Y-62574692D02*
X51793384Y-62707784D01*
X51793384Y-62707784D02*
X51850818Y-62910346D01*
X51850818Y-62910346D02*
X51929597Y-63113154D01*
X51929597Y-63113154D02*
X52054452Y-63276790D01*
X52054452Y-63276790D02*
X52120778Y-63296966D01*
X52120778Y-63296966D02*
X52305158Y-63206180D01*
X52305158Y-63206180D02*
X52404207Y-63012900D01*
X52404207Y-63012900D02*
X52450539Y-62811141D01*
X52450539Y-62811141D02*
X52476082Y-62557654D01*
X52476082Y-62557654D02*
X52481286Y-62318425D01*
X52481286Y-62318425D02*
X52478744Y-62186876D01*
X52478744Y-62186876D02*
X52476112Y-61986590D01*
X52476112Y-61986590D02*
X52638917Y-61939338D01*
X52638917Y-61939338D02*
X52838268Y-61962208D01*
X52838268Y-61962208D02*
X52970650Y-61874657D01*
X52970650Y-61874657D02*
X53168781Y-61808475D01*
X53168781Y-61808475D02*
X53376324Y-61827865D01*
X53376324Y-61827865D02*
X53612530Y-61860910D01*
X53612530Y-61860910D02*
X53868986Y-61899268D01*
X53868986Y-61899268D02*
X54133935Y-61937387D01*
X54133935Y-61937387D02*
X54373251Y-61967690D01*
X54373251Y-61967690D02*
X54587879Y-61989910D01*
X54587879Y-61989910D02*
X54865600Y-62007500D01*
X54865600Y-62007500D02*
X55093095Y-62005402D01*
X55093095Y-62005402D02*
X55323809Y-61970424D01*
X55323809Y-61970424D02*
X55506148Y-61871980D01*
X55506148Y-61871980D02*
X55588921Y-61668087D01*
X55588921Y-61668087D02*
X55561883Y-61421820D01*
X55561883Y-61421820D02*
X55575246Y-61220825D01*
X55575246Y-61220825D02*
X55638817Y-61167841D01*
X55638817Y-61167841D02*
X55818546Y-61063457D01*
X55818546Y-61063457D02*
X55992986Y-61051835D01*
X55992986Y-61051835D02*
X56104152Y-61049055D01*
X56104152Y-61049055D02*
X56202641Y-61046547D01*
X56202641Y-61046547D02*
X56361797Y-61034682D01*
X56361797Y-61034682D02*
X56456423Y-61007426D01*
X56456423Y-61007426D02*
X56565623Y-60994070D01*
X56565623Y-60994070D02*
X56775732Y-60973693D01*
X56775732Y-60973693D02*
X57006248Y-60957607D01*
X57006248Y-60957607D02*
X57215905Y-60944052D01*
X57215905Y-60944052D02*
X57475187Y-60927903D01*
X57475187Y-60927903D02*
X57704711Y-60913920D01*
X57704711Y-60913920D02*
X57966236Y-60898200D01*
X57966236Y-60898200D02*
X58182063Y-60884768D01*
X58182063Y-60884768D02*
X58396026Y-60870782D01*
X58396026Y-60870782D02*
X58612270Y-60856127D01*
X58612270Y-60856127D02*
X58836293Y-60840290D01*
X58836293Y-60840290D02*
X58885111Y-60836706D01*
X58885111Y-60836706D02*
X59097020Y-60821465D01*
X59097020Y-60821465D02*
X59327640Y-60807408D01*
X59327640Y-60807408D02*
X59529927Y-60812315D01*
X59529927Y-60812315D02*
X59506212Y-60851757D01*
X59506212Y-60851757D02*
X59431786Y-60939965D01*
X59431786Y-60939965D02*
X59257049Y-61064941D01*
X59257049Y-61064941D02*
X59056938Y-61130041D01*
X59056938Y-61130041D02*
X58947268Y-61164180D01*
X58947268Y-61164180D02*
X58733933Y-61229420D01*
X58733933Y-61229420D02*
X58541649Y-61296330D01*
X58541649Y-61296330D02*
X58510025Y-61503509D01*
X58510025Y-61503509D02*
X58515012Y-61525283D01*
X58515012Y-61525283D02*
X58613179Y-61701537D01*
X58613179Y-61701537D02*
X58838937Y-61661233D01*
X58838937Y-61661233D02*
X59047633Y-61602908D01*
X59047633Y-61602908D02*
X59099036Y-61588405D01*
X59099036Y-61588405D02*
X59307041Y-61530449D01*
X59307041Y-61530449D02*
X59537550Y-61466960D01*
X59537550Y-61466960D02*
X59752936Y-61408014D01*
X59752936Y-61408014D02*
X59978572Y-61346569D01*
X59978572Y-61346569D02*
X60204212Y-61285430D01*
X60204212Y-61285430D02*
X60377842Y-61238624D01*
X60377842Y-61238624D02*
X60594349Y-61180207D01*
X60594349Y-61180207D02*
X60815830Y-61120139D01*
X60815830Y-61120139D02*
X61032481Y-61061098D01*
X61032481Y-61061098D02*
X61234501Y-61005761D01*
X61234501Y-61005761D02*
X61443810Y-60948019D01*
X61443810Y-60948019D02*
X61600998Y-60904099D01*
X61600998Y-60904099D02*
X61804141Y-60846779D01*
X61804141Y-60846779D02*
X62002068Y-60799896D01*
X62002068Y-60799896D02*
X62175667Y-60917117D01*
X62175667Y-60917117D02*
X62304854Y-61075113D01*
X62304854Y-61075113D02*
X62443209Y-61024851D01*
X43350389Y-63312899D02*
X43292299Y-63366936D01*
X43292299Y-63366936D02*
X43344357Y-63359885D01*
X62507739Y-61014477D02*
X62564203Y-61102821D01*
X62564203Y-61102821D02*
X62637681Y-61151366D01*
X62637681Y-61151366D02*
X62835027Y-61109254D01*
X62835027Y-61109254D02*
X62927627Y-60928175D01*
X62927627Y-60928175D02*
X62959856Y-60714937D01*
X62959856Y-60714937D02*
X62999352Y-60518187D01*
X62999352Y-60518187D02*
X63010558Y-60510655D01*
X63010558Y-60510655D02*
X63212587Y-60492375D01*
X63212587Y-60492375D02*
X63437559Y-60475762D01*
X63437559Y-60475762D02*
X63640568Y-60461635D01*
X63640568Y-60461635D02*
X63749468Y-60454313D01*
X63749468Y-60454313D02*
X63957302Y-60440623D01*
X63957302Y-60440623D02*
X64171607Y-60425898D01*
X64171607Y-60425898D02*
X64384236Y-60405800D01*
X64384236Y-60405800D02*
X64574671Y-60338828D01*
X64574671Y-60338828D02*
X64650990Y-60259524D01*
X64650990Y-60259524D02*
X64791102Y-60097149D01*
X64791102Y-60097149D02*
X64910108Y-59907482D01*
X64910108Y-59907482D02*
X64925813Y-59701154D01*
X64925813Y-59701154D02*
X64762630Y-59554131D01*
X62443209Y-61024851D02*
X62503333Y-60960576D01*
X62503333Y-60960576D02*
X62507739Y-61014477D01*
X64410833Y-59516503D02*
X64198547Y-59522273D01*
X64198547Y-59522273D02*
X63987263Y-59534184D01*
X63987263Y-59534184D02*
X63771863Y-59550156D01*
X63771863Y-59550156D02*
X63654639Y-59560030D01*
X63654639Y-59560030D02*
X63437604Y-59577852D01*
X63437604Y-59577852D02*
X63229448Y-59591530D01*
X63229448Y-59591530D02*
X63060515Y-59594336D01*
X63060515Y-59594336D02*
X62855837Y-59606487D01*
X62855837Y-59606487D02*
X62849369Y-59607830D01*
X62849369Y-59607830D02*
X62643352Y-59638898D01*
X62643352Y-59638898D02*
X62475339Y-59618405D01*
X62475339Y-59618405D02*
X62346889Y-59616847D01*
X62346889Y-59616847D02*
X62138107Y-59676207D01*
X62138107Y-59676207D02*
X61944729Y-59692646D01*
X61944729Y-59692646D02*
X61702690Y-59712058D01*
X61702690Y-59712058D02*
X61496306Y-59729569D01*
X61496306Y-59729569D02*
X61252395Y-59750867D01*
X61252395Y-59750867D02*
X61044057Y-59769396D01*
X61044057Y-59769396D02*
X60813338Y-59790168D01*
X60813338Y-59790168D02*
X60559692Y-59813232D01*
X60559692Y-59813232D02*
X60282574Y-59838636D01*
X60282574Y-59838636D02*
X59981439Y-59866428D01*
X59981439Y-59866428D02*
X59767071Y-59886307D01*
X59767071Y-59886307D02*
X59655743Y-59896658D01*
X59655743Y-59896658D02*
X59265332Y-59932741D01*
X59265332Y-59932741D02*
X58901038Y-59965923D01*
X58901038Y-59965923D02*
X58562618Y-59996221D01*
X58562618Y-59996221D02*
X58249828Y-60023654D01*
X58249828Y-60023654D02*
X57962427Y-60048238D01*
X57962427Y-60048238D02*
X57700172Y-60069993D01*
X57700172Y-60069993D02*
X57462819Y-60088935D01*
X57462819Y-60088935D02*
X57250127Y-60105083D01*
X57250127Y-60105083D02*
X56976794Y-60124103D01*
X56976794Y-60124103D02*
X56757581Y-60136935D01*
X56757581Y-60136935D02*
X56548066Y-60144523D01*
X56548066Y-60144523D02*
X56407212Y-60135789D01*
X56407212Y-60135789D02*
X56270748Y-59978045D01*
X56270748Y-59978045D02*
X56250361Y-59951983D01*
X56250361Y-59951983D02*
X56119243Y-59788316D01*
X56119243Y-59788316D02*
X56038334Y-59693393D01*
X56038334Y-59693393D02*
X55911834Y-59522532D01*
X55911834Y-59522532D02*
X55809335Y-59347876D01*
X55809335Y-59347876D02*
X55699359Y-59147953D01*
X55699359Y-59147953D02*
X55680843Y-59113771D01*
X55680843Y-59113771D02*
X55583056Y-58935908D01*
X55583056Y-58935908D02*
X55479885Y-58757001D01*
X55479885Y-58757001D02*
X55373109Y-58586609D01*
X55373109Y-58586609D02*
X55245826Y-58410250D01*
X55245826Y-58410250D02*
X55174635Y-58324713D01*
X55174635Y-58324713D02*
X55069019Y-58148441D01*
X55069019Y-58148441D02*
X55102943Y-57949549D01*
X55102943Y-57949549D02*
X55159587Y-57913844D01*
X55159587Y-57913844D02*
X55319732Y-57791781D01*
X55319732Y-57791781D02*
X55407396Y-57591779D01*
X55407396Y-57591779D02*
X55454904Y-57382625D01*
X55454904Y-57382625D02*
X55492861Y-57149890D01*
X55492861Y-57149890D02*
X55500606Y-57096176D01*
X55500606Y-57096176D02*
X55530592Y-56888709D01*
X55530592Y-56888709D02*
X55565692Y-56667388D01*
X55565692Y-56667388D02*
X55606755Y-56467543D01*
X55606755Y-56467543D02*
X55693920Y-56272166D01*
X55693920Y-56272166D02*
X55874840Y-56197351D01*
X55874840Y-56197351D02*
X56086866Y-56140366D01*
X56086866Y-56140366D02*
X56282930Y-56045250D01*
X56282930Y-56045250D02*
X56442493Y-55924467D01*
X56442493Y-55924467D02*
X56545016Y-55790483D01*
X56545016Y-55790483D02*
X56578294Y-55585994D01*
X56578294Y-55585994D02*
X56545626Y-55432092D01*
X56545626Y-55432092D02*
X56420994Y-55275618D01*
X56420994Y-55275618D02*
X56264585Y-55138290D01*
X56264585Y-55138290D02*
X56197083Y-55101295D01*
X56197083Y-55101295D02*
X56060838Y-55025969D01*
X56060838Y-55025969D02*
X55874412Y-54933536D01*
X55874412Y-54933536D02*
X55743543Y-54955457D01*
X55743543Y-54955457D02*
X55573150Y-55091751D01*
X55573150Y-55091751D02*
X55459542Y-55275870D01*
X55459542Y-55275870D02*
X55397706Y-55486029D01*
X55397706Y-55486029D02*
X55398253Y-55666205D01*
X55398253Y-55666205D02*
X55413353Y-55870672D01*
X55413353Y-55870672D02*
X55340976Y-55979238D01*
X55340976Y-55979238D02*
X55225832Y-56158230D01*
X55225832Y-56158230D02*
X55134870Y-56355468D01*
X55134870Y-56355468D02*
X55099734Y-56447533D01*
X55099734Y-56447533D02*
X54995200Y-56618558D01*
X54995200Y-56618558D02*
X54987484Y-56618932D01*
X54987484Y-56618932D02*
X54959557Y-56484416D01*
X54959557Y-56484416D02*
X54956202Y-56278982D01*
X54956202Y-56278982D02*
X54853205Y-56161553D01*
X54853205Y-56161553D02*
X54723713Y-56007058D01*
X54723713Y-56007058D02*
X54689914Y-55942558D01*
X54689914Y-55942558D02*
X54624977Y-55812653D01*
X54624977Y-55812653D02*
X54584814Y-55606329D01*
X54584814Y-55606329D02*
X54637387Y-55412123D01*
X54637387Y-55412123D02*
X54717027Y-55305848D01*
X54717027Y-55305848D02*
X54880250Y-55297237D01*
X54880250Y-55297237D02*
X55081147Y-55288813D01*
X55081147Y-55288813D02*
X55158841Y-55190113D01*
X55158841Y-55190113D02*
X55281264Y-55027310D01*
X55281264Y-55027310D02*
X55288850Y-55018579D01*
X55288850Y-55018579D02*
X55373444Y-54900065D01*
X55373444Y-54900065D02*
X55460343Y-54799517D01*
X55460343Y-54799517D02*
X55505961Y-54638085D01*
X55505961Y-54638085D02*
X55615160Y-54485332D01*
X55615160Y-54485332D02*
X55814861Y-54428871D01*
X55814861Y-54428871D02*
X55908935Y-54349664D01*
X55908935Y-54349664D02*
X56059883Y-54215026D01*
X56059883Y-54215026D02*
X56126927Y-54162400D01*
X56126927Y-54162400D02*
X56287630Y-54038388D01*
X56287630Y-54038388D02*
X56458329Y-53903814D01*
X56458329Y-53903814D02*
X56528816Y-53847604D01*
X56528816Y-53847604D02*
X56688972Y-53722827D01*
X56688972Y-53722827D02*
X56857519Y-53605888D01*
X56857519Y-53605888D02*
X56938839Y-53559386D01*
X56938839Y-53559386D02*
X57111373Y-53452359D01*
X57111373Y-53452359D02*
X57263302Y-53312019D01*
X57263302Y-53312019D02*
X57341203Y-53223708D01*
X57341203Y-53223708D02*
X57487719Y-53082953D01*
X57487719Y-53082953D02*
X57527811Y-53061191D01*
X57527811Y-53061191D02*
X57687440Y-52940459D01*
X57687440Y-52940459D02*
X57690966Y-52758600D01*
X57690966Y-52758600D02*
X57685476Y-52649577D01*
X57685476Y-52649577D02*
X57533936Y-52503043D01*
X57533936Y-52503043D02*
X57316406Y-52563070D01*
X57316406Y-52563070D02*
X57192282Y-52604016D01*
X57192282Y-52604016D02*
X56980740Y-52674037D01*
X56980740Y-52674037D02*
X56934162Y-52564556D01*
X56934162Y-52564556D02*
X57065053Y-52403460D01*
X57065053Y-52403460D02*
X57194874Y-52210173D01*
X57194874Y-52210173D02*
X57289546Y-52028538D01*
X57289546Y-52028538D02*
X57351173Y-51825759D01*
X57351173Y-51825759D02*
X57334763Y-51706207D01*
X57334763Y-51706207D02*
X57185872Y-51568418D01*
X57185872Y-51568418D02*
X56990430Y-51467424D01*
X56990430Y-51467424D02*
X56773303Y-51395734D01*
X56773303Y-51395734D02*
X56573258Y-51366148D01*
X56573258Y-51366148D02*
X56413177Y-51401920D01*
X54352080Y-57760549D02*
X54421847Y-57957469D01*
X54421847Y-57957469D02*
X54430845Y-57988764D01*
X54430845Y-57988764D02*
X54495407Y-58213938D01*
X54495407Y-58213938D02*
X54565338Y-58418556D01*
X54565338Y-58418556D02*
X54656606Y-58606384D01*
X54656606Y-58606384D02*
X54771549Y-58791912D01*
X54771549Y-58791912D02*
X54902000Y-58983479D01*
X54902000Y-58983479D02*
X55028383Y-59163597D01*
X55028383Y-59163597D02*
X55183582Y-59383005D01*
X55183582Y-59383005D02*
X55307723Y-59559610D01*
X55307723Y-59559610D02*
X55420211Y-59735234D01*
X55420211Y-59735234D02*
X55480813Y-59881335D01*
X55480813Y-59881335D02*
X55543562Y-60083722D01*
X55543562Y-60083722D02*
X55373552Y-60205673D01*
X55373552Y-60205673D02*
X55226828Y-60211047D01*
X55226828Y-60211047D02*
X55012215Y-60214228D01*
X55012215Y-60214228D02*
X54830549Y-60106902D01*
X54830549Y-60106902D02*
X54780608Y-60046632D01*
X54780608Y-60046632D02*
X54643252Y-59892852D01*
X54643252Y-59892852D02*
X54497327Y-59736693D01*
X54497327Y-59736693D02*
X54414373Y-59649866D01*
X54414373Y-59649866D02*
X54250173Y-59477035D01*
X54250173Y-59477035D02*
X54111418Y-59325136D01*
X54111418Y-59325136D02*
X53970531Y-59160423D01*
X53970531Y-59160423D02*
X53843762Y-58992443D01*
X53843762Y-58992443D02*
X53734783Y-58803289D01*
X53734783Y-58803289D02*
X53694714Y-58696258D01*
X53694714Y-58696258D02*
X53760665Y-58503027D01*
X53760665Y-58503027D02*
X53881003Y-58327963D01*
X53881003Y-58327963D02*
X53984693Y-58180232D01*
X53984693Y-58180232D02*
X54114337Y-57996155D01*
X54114337Y-57996155D02*
X54232628Y-57833043D01*
X54232628Y-57833043D02*
X54352080Y-57760549D01*
X64762630Y-59554131D02*
X64683323Y-59515147D01*
X64683323Y-59515147D02*
X64410833Y-59516503D01*
%TD*%
M02*
