M48
; DRILL file {KiCad (5.1.8-44-gfd79c7ae46)} date Sat Jan  2 19:50:05 2021
; FORMAT={-:-/ absolute / inch / decimal}
; #@! TF.CreationDate,2021-01-02T19:50:05-07:00
; #@! TF.GenerationSoftware,Kicad,Pcbnew,(5.1.8-44-gfd79c7ae46)
FMAT,2
INCH
T1C0.0100
%
G90
G05
T1
X1.2205Y-1.2598
X1.2205Y-1.4961
X1.2205Y-1.8504
X1.2205Y-2.0866
X1.2205Y-2.4409
X1.2205Y-2.6772
X1.2598Y-1.2598
X1.2598Y-1.4961
X1.2598Y-1.8504
X1.2598Y-2.0866
X1.2598Y-2.4409
X1.2598Y-2.6772
X1.2992Y-1.2598
X1.2992Y-1.4961
X1.2992Y-1.8504
X1.2992Y-2.0866
X1.2992Y-2.4409
X1.2992Y-2.6772
X1.3386Y-1.2598
X1.3386Y-1.4961
X1.3386Y-1.8504
X1.3386Y-2.0866
X1.3386Y-2.4409
X1.3386Y-2.6772
X1.378Y-1.2598
X1.378Y-1.4961
X1.378Y-1.8504
X1.378Y-2.0866
X1.378Y-2.4409
X1.378Y-2.6772
X1.4008Y-2.5341
X1.4008Y-2.5841
X1.4023Y-1.9435
X1.4023Y-1.9935
X1.4055Y-1.353
X1.4055Y-1.403
X1.4516Y-2.5341
X1.4516Y-2.5841
X1.4539Y-1.9435
X1.4539Y-1.9935
X1.4587Y-1.353
X1.4587Y-1.403
X1.5024Y-2.5341
X1.5024Y-2.5841
X1.5054Y-1.9435
X1.5054Y-1.9935
X1.5118Y-1.353
X1.5118Y-1.403
X1.5532Y-2.5341
X1.5532Y-2.5841
X1.557Y-1.9435
X1.557Y-1.9935
X1.565Y-1.353
X1.565Y-1.403
X1.604Y-2.5341
X1.604Y-2.5841
X1.6085Y-1.9435
X1.6085Y-1.9935
X1.6181Y-1.353
X1.6181Y-1.403
X1.6548Y-2.5341
X1.6548Y-2.5841
X1.6601Y-1.9435
X1.6601Y-1.9935
X1.6713Y-1.353
X1.6713Y-1.403
X1.7056Y-2.5341
X1.7056Y-2.5841
X1.7117Y-1.9435
X1.7117Y-1.9935
X1.7244Y-1.353
X1.7244Y-1.403
X1.7564Y-2.5341
X1.7564Y-2.5841
X1.7632Y-1.9435
X1.7632Y-1.9935
X1.7776Y-1.353
X1.7776Y-1.403
X1.8072Y-2.5341
X1.8072Y-2.5841
X1.8148Y-1.9435
X1.8148Y-1.9935
X1.8307Y-1.353
X1.8307Y-1.403
X1.858Y-2.5341
X1.858Y-2.5841
X1.8663Y-1.9435
X1.8663Y-1.9935
X1.8701Y-1.353
X1.8701Y-1.403
X1.9088Y-2.5341
X1.9088Y-2.5841
X1.9179Y-1.9435
X1.9179Y-1.9935
X1.9409Y-1.353
X1.9409Y-1.403
X1.9596Y-2.5341
X1.9596Y-2.5841
X1.9694Y-1.9435
X1.9694Y-1.9935
X2.0104Y-2.5341
X2.0104Y-2.5841
X2.0118Y-1.353
X2.0118Y-1.403
X2.015Y-1.3275
X2.015Y-1.4275
X2.021Y-1.9435
X2.021Y-1.9935
X2.05Y-1.3
X2.05Y-1.45
X2.0591Y-1.378
X2.0612Y-2.5341
X2.0612Y-2.5841
X2.0726Y-1.9435
X2.0726Y-1.9935
X2.075Y-1.3
X2.075Y-1.45
X2.105Y-1.3275
X2.105Y-1.4275
X2.1063Y-1.353
X2.1063Y-1.403
X2.112Y-2.5341
X2.112Y-2.5841
X2.1241Y-1.9435
X2.1241Y-1.9935
X2.1628Y-2.5341
X2.1628Y-2.5841
X2.1654Y-1.353
X2.1654Y-1.403
X2.1757Y-1.9435
X2.1757Y-1.9935
X2.2136Y-2.5341
X2.2136Y-2.5841
X2.2244Y-1.353
X2.2244Y-1.403
X2.2272Y-1.9435
X2.2272Y-1.9935
X2.2644Y-2.5341
X2.2644Y-2.5841
X2.2788Y-1.9435
X2.2788Y-1.9935
X2.2835Y-1.353
X2.2835Y-1.403
X2.3152Y-2.5341
X2.3152Y-2.5841
X2.3228Y-1.353
X2.3228Y-1.403
X2.3303Y-1.9435
X2.3303Y-1.9935
X2.366Y-2.5341
X2.366Y-2.5841
X2.3729Y-1.353
X2.3729Y-1.403
X2.3819Y-1.9435
X2.3819Y-1.9935
X2.4168Y-2.5341
X2.4168Y-2.5841
X2.4213Y-1.9435
X2.4213Y-1.9935
X2.423Y-1.353
X2.423Y-1.403
X2.4676Y-2.5341
X2.4676Y-2.5841
X2.4716Y-1.9435
X2.4716Y-1.9935
X2.4732Y-1.353
X2.4732Y-1.403
X2.5184Y-2.5341
X2.5184Y-2.5841
X2.5219Y-1.9435
X2.5219Y-1.9935
X2.5233Y-1.353
X2.5233Y-1.403
X2.5692Y-2.5341
X2.5692Y-2.5841
X2.5722Y-1.9435
X2.5722Y-1.9935
X2.5724Y-1.4043
X2.5734Y-1.353
X2.62Y-2.5341
X2.62Y-2.5841
X2.6225Y-1.9435
X2.6225Y-1.9935
X2.6235Y-1.353
X2.6235Y-1.403
X2.6708Y-2.5341
X2.6708Y-2.5841
X2.6728Y-1.9435
X2.6728Y-1.9935
X2.6736Y-1.353
X2.6736Y-1.403
X2.7216Y-2.5341
X2.7216Y-2.5841
X2.7231Y-1.9435
X2.7231Y-1.9935
X2.7237Y-1.353
X2.7237Y-1.403
X2.7724Y-2.5341
X2.7724Y-2.5841
X2.7734Y-1.9435
X2.7734Y-1.9935
X2.7738Y-1.353
X2.7738Y-1.403
X2.7953Y-1.2598
X2.7953Y-1.4961
X2.7953Y-1.8504
X2.7953Y-2.0866
X2.7953Y-2.4409
X2.7953Y-2.6772
X2.8346Y-1.2598
X2.8346Y-1.4961
X2.8346Y-1.8504
X2.8346Y-2.0866
X2.8346Y-2.4409
X2.8346Y-2.6772
X2.874Y-1.2598
X2.874Y-1.4961
X2.874Y-1.8504
X2.874Y-2.0866
X2.874Y-2.4409
X2.874Y-2.6772
X2.9134Y-1.2598
X2.9134Y-1.4961
X2.9134Y-1.8504
X2.9134Y-2.0866
X2.9134Y-2.4409
X2.9134Y-2.6772
X2.9528Y-1.2598
X2.9528Y-1.4961
X2.9528Y-1.8504
X2.9528Y-2.0866
X2.9528Y-2.4409
X2.9528Y-2.6772
T0
M30
